<?xml version="1.0" encoding="UTF-8" standalone="no"?>
<svg
   xmlns:dc="http://purl.org/dc/elements/1.1/"
   xmlns:cc="http://creativecommons.org/ns#"
   xmlns:rdf="http://www.w3.org/1999/02/22-rdf-syntax-ns#"
   xmlns:svg="http://www.w3.org/2000/svg"
   xmlns="http://www.w3.org/2000/svg"
   xmlns:sodipodi="http://sodipodi.sourceforge.net/DTD/sodipodi-0.dtd"
   xmlns:inkscape="http://www.inkscape.org/namespaces/inkscape"
   version="1.1"
   id="Vrstva_1"
   x="0px"
   y="0px"
   viewBox="0 0 145 60"
   style="enable-background:new 0 0 145 60;"
   xml:space="preserve"
   sodipodi:docname="naskok.svg"
   inkscape:version="1.0.2 (e86c870879, 2021-01-15)"><metadata
   id="metadata27"><rdf:RDF><cc:Work
       rdf:about=""><dc:format>image/svg+xml</dc:format><dc:type
         rdf:resource="http://purl.org/dc/dcmitype/StillImage" /></cc:Work></rdf:RDF></metadata><defs
   id="defs25" /><sodipodi:namedview
   pagecolor="#ffffff"
   bordercolor="#666666"
   borderopacity="1"
   objecttolerance="10"
   gridtolerance="10"
   guidetolerance="10"
   inkscape:pageopacity="0"
   inkscape:pageshadow="2"
   inkscape:window-width="1650"
   inkscape:window-height="844"
   id="namedview23"
   showgrid="false"
   inkscape:zoom="9.0896552"
   inkscape:cx="72.5"
   inkscape:cy="30"
   inkscape:window-x="26"
   inkscape:window-y="23"
   inkscape:window-maximized="0"
   inkscape:current-layer="g20" />
<style
   type="text/css"
   id="style2">
	.st0{fill:#FFFFFF;}
	.st1{fill:#D0004E;}
</style>
<g
   id="g20">
	<path
   class="st0"
   d="M0.7,48.5c0-3.4,0.9-6.4,1.5-9.6c0-0.3,0.3-1.6,0.3-2v-6.3c0.1-0.3,1.8-1,2.2-1c4.1,0,5.2,4.4,7.8,7.8   c0.3,0.5,2.3,2.7,2.9,3.3c0.1,0.1,1.2,1.1,1.8,1.5c0.2,0.2,0.6,0.5,0.7,0.5c1.4,0,2.2-5.1,2.4-7c0-0.1,0.1-0.2,0.1-0.5l0.7-4.3   l0.3-0.6h0.6c1.2,0,2.4,0.2,2.4,1.8c-0.1,1-0.9,5.6-1.1,6.5c-0.5,2.9-1.4,8-4.8,8c-0.6,0-1.2-0.3-1.8-0.5c-1.4-1.1-3.7-2.6-5.2-4   c-1-1-2.9-4-4.3-4H6.8c-0.1,0.5-0.6,2.7-0.7,3.3c0,0.1,0,0.2-0.1,0.4C6.1,41.8,6,41.9,6,42c-0.5,2-2.2,8.6-3.7,8.6   c-0.7,0-1.2-0.3-1.6-1V48.5z"
   id="path4"
   style="fill:#25303b;fill-opacity:1" />
	<path
   class="st0"
   d="M25.4,53c0-1.8-1.8-2.5-1.8-4.1c0-2,3.1-0.5,3.4-2.3c0.2-0.7,0.9-3.7,1-4.4c0.2-1-0.3-0.5,0.3-1.4l2.2-10.5   c0.6-3.1-0.5-2.7,1.9-4.6c1.4-1,1.2-1.4,3.1-1.4c2.2,0,3.5,3.7,4.4,5.1l1.7,2.4l5.2,9.5c0.7,2,1.7,3.7,2.4,5.6c0.4,1,0.6,2.1,1,3.1   c0.5,1.5,1.7,3.4,1.7,5.2c0,0.9-0.7,2.1-1.9,2.1c-0.9,0-1.9-0.9-2.3-1.7c-0.4-0.9-0.3-2-0.7-2.9c0-0.1-0.2-0.5-0.2-0.5   c-0.7-0.9-1-1.9-1.5-2.9c-1.1-2.3-6.9-11.4-9.2-11.4c-1.6,0-2.5,6.5-3.1,8c-0.1,0.7,0.4,0.9,1,1l9.4,0.7c0.6,0.1,0.6,0.7,0.6,1   c0,2.3-6.5,1.8-7.6,1.9c-2.2,0.3-5.3,1.3-6.6,3.2c-1,1.6,0.3,5.6-2.7,5.6c-1.7,0-2-2.6-2-3.8C25.1,54.7,25.4,53.9,25.4,53"
   id="path6"
   style="fill:#25303b;fill-opacity:1" />
	<path
   class="st0"
   d="M124,28.5c0-2.5,0-4.4,3.2-4.4c2.7,0,3.9,1.1,3.9,4.1c0,1.2-0.7,2.2-0.7,3.4c0,0.3-0.1,0.7,0.4,0.7   c0.8,0,5.2-5.2,6.7-6.2c0.1-0.1,1.4-1,1.6-1.1c0.5-0.3,2.5-2,2.9-2.4h0.2c0.5,0,0.6,0.5,0.6,0.9c0,2.2-2.6,3.4-4,4.6   c-0.6,0.5-2.7,2.6-3.1,2.9l-2.4,2.9c0,0.1-0.3,0.6-0.3,0.7c0,0,0,0.1,0,0.2c0,0.3,0.1,0.6,0.4,0.9c2.7,1.8,5.3,3.6,7.8,5.6l1.1,0.9   c0.3,0.1,1.5,0.5,1.8,0.5c0.5,0.1,0.4,0.6,0.4,0.9c0,0.7-0.3,1.4-1.1,1.7h-1.1c-3.2,0-6.9-1.7-9.8-3.1c-0.4-0.2-1.6-1.1-2.2-1.1   c-0.5,0-1,1.7-1.1,2.2v1.5c0,1.4,0,2.9,0.4,4.2c0.1,0.7,0.4,1.2,0.4,1.8c0,1.4-0.6,2.6-2.1,2.6c-1.5,0-1.8-1.5-2-2.8   c-0.7-7-1.8-14.3-1.8-21.5V28.5z"
   id="path8"
   style="fill:#25303b;fill-opacity:1" />
	<path
   class="st1"
   d="M73.8,8.4c-1.5,3.6-0.8,7.2,1.5,8.2c2.3,1,5.4-1.1,6.9-4.7s0.8-7.2-1.5-8.2C78.4,2.7,75.3,4.8,73.8,8.4"
   id="path10" />
	<path
   class="st0"
   d="M35.9,20.6c0.3-0.2,2.4-1.9,2.6-2.1c0.8-0.7,1.7-1.7,2.6-2l0.3-0.3c1.7-1.3,3.4-2.6,4.3-4.5   c0.2-0.6,0.7-1.3,0.5-1.8l-0.4-1.2c-0.1-0.1-0.5-0.4-0.5-0.4C44,8,43.2,9.1,42.5,10c-0.6,0.6-1.1,1.3-1.6,1.9   c-0.3,0.4-0.3,0.6-0.6,0.8l-0.4,0.3L37,16.3c0,0,0,0.2-0.1,0.2c-1.2,0.7-4,5.4-1.3,4.3C35.7,20.7,35.8,20.6,35.9,20.6"
   id="path12"
   style="fill:#25303b;fill-opacity:1" />
	<path
   class="st0"
   d="M65.4,38.6c-0.1-1-0.1-1.4-0.8-3.2c-0.3-0.9-1.1-1.7-1.8-2.4c-3.5-3.5-6.7-4.8-6.7-10.1c0-2.2,0.2-4.5,1.2-6.6   c0.7-1.4,1.8-3.2,1.8-5v-0.4c0-0.4-0.5-1.4-1-1.4c-3.3,0-6.8,13.6-6.8,16.9c0,2.2,0.8,4.4,1.9,6.2c2.9,2.9,7.1,6.1,7.1,10.7   c0,2.9-1.3,5.6-2.8,8.1c-0.9,1.1-2.2,1.4-2.2,3.1c0,1.2,0.5,1.6,1.5,1.6c4.2,0,7.1-7.9,8-11.2c0-0.1,0-0.1,0-0.2   C65.7,41.8,65.4,39.5,65.4,38.6z"
   id="path14"
   style="fill:#25303b;fill-opacity:1" />
	<path
   class="st0"
   d="M112.9,28.3c1.1-1.5,1.3-2.6,1.3-4.6s-0.6-3.7-2.5-3.7c-3.6,0-6.6,3.3-9.6,5.1c-4.8,4.5-9,11.6-9,19   c0,5.3,2.8,9.6,7.4,10.8c0.8,0.3,1.8,0.5,2.8,0.6c3,0,6.3-1,7.6-2.4c0,0,0,0,0,0c1.6-1.3,2.9-3.4,4.6-6.4c2.2-3.8,4-5.7,4-10.5   C119.5,30.6,117.5,29.8,112.9,28.3z M114.5,42.8c-1.1,2.4-5.5,8.9-8.6,8.9c-3.5,0-6.2-5-6.2-8.6c0-7.3,3.5-13.4,8.1-18.1   c0.7-0.6,1.6-1,2.3-1c1.1,0,0.8,2.2,0.8,2.9v1.4c-1.1,1.9-4,1-4,4.8c0,1.7,0.8,4.4,2.5,4.4c1,0,1.8-0.5,1.8-1.6   c0-0.2-0.1-0.5-0.1-0.5c0-0.2-0.3-1.4-0.2-1.5c0.1-1,1-2.1,1.9-2.1c1.3,0,2.2,1.3,2.8,2.4c0,0.3,0.1,1.6,0.1,1.9   C115.8,38.5,115.4,40.6,114.5,42.8z"
   id="path16"
   style="fill:#25303b;fill-opacity:1" />
	<path
   class="st1"
   d="M85.1,29.3c-7.6-9.1,19.2-13.1,15.2-16.8c-6-5.5-18.4,7.5-24.6,6.9c-6.2-0.6-10.5-22.1-16-19.1   c-5.3,2.8,10.5,20.6,12.1,34.6c1.4,12,1.6,27.1,8.2,24.9c5.9-2-1.3-12.8,3.1-17.1c4.5-4.3,22.8,6.2,24.9,0.3   C109.9,38.1,88.9,33.8,85.1,29.3"
   id="path18" />
</g>
</svg>
