<?xml version="1.0" encoding="UTF-8" standalone="no"?>
<svg
   xmlns:dc="http://purl.org/dc/elements/1.1/"
   xmlns:cc="http://creativecommons.org/ns#"
   xmlns:rdf="http://www.w3.org/1999/02/22-rdf-syntax-ns#"
   xmlns:svg="http://www.w3.org/2000/svg"
   xmlns="http://www.w3.org/2000/svg"
   xmlns:sodipodi="http://sodipodi.sourceforge.net/DTD/sodipodi-0.dtd"
   xmlns:inkscape="http://www.inkscape.org/namespaces/inkscape"
   version="1.1"
   id="svg2"
   xml:space="preserve"
   width="1275.168"
   height="362.20932"
   viewBox="0 0 1275.168 362.20932"
   sodipodi:docname="Tipsport_SPORTUJ_CUS_RGB.ai"><metadata
     id="metadata8"><rdf:RDF><cc:Work
         rdf:about=""><dc:format>image/svg+xml</dc:format><dc:type
           rdf:resource="http://purl.org/dc/dcmitype/StillImage" /></cc:Work></rdf:RDF></metadata><defs
     id="defs6"><clipPath
       clipPathUnits="userSpaceOnUse"
       id="clipPath18"><path
         d="m 65.608,56.478 h 825.16 V 215.18 H 65.608 Z"
         id="path16" /></clipPath><clipPath
       clipPathUnits="userSpaceOnUse"
       id="clipPath78"><path
         d="m 65.608,56.478 h 825.16 V 215.18 H 65.608 Z"
         id="path76" /></clipPath><clipPath
       clipPathUnits="userSpaceOnUse"
       id="clipPath110"><path
         d="m 65.608,56.478 h 825.16 V 215.18 H 65.608 Z"
         id="path108" /></clipPath><clipPath
       clipPathUnits="userSpaceOnUse"
       id="clipPath142"><path
         d="m 65.608,56.478 h 825.16 V 215.18 H 65.608 Z"
         id="path140" /></clipPath></defs><sodipodi:namedview
     pagecolor="#ffffff"
     bordercolor="#666666"
     borderopacity="1"
     objecttolerance="10"
     gridtolerance="10"
     guidetolerance="10"
     inkscape:pageopacity="0"
     inkscape:pageshadow="2"
     inkscape:window-width="640"
     inkscape:window-height="480"
     id="namedview4" /><g
     id="g10"
     inkscape:groupmode="layer"
     inkscape:label="Tipsport_SPORTUJ_CUS_RGB"
     transform="matrix(1.3333333,0,0,-1.3333333,0,362.20933)"><g
       id="g12"><g
         id="g14"
         clip-path="url(#clipPath18)"><g
           id="g20"
           transform="translate(205.6848,99.3152)"><path
             d="m 0,0 c -1.496,0.88 -3.573,1.452 -5.896,1.452 -4.083,0 -5.949,-2.535 -5.949,-5.069 0,-2.385 2.226,-3.775 4.602,-5.175 3.212,-1.865 6.935,-4.452 6.935,-9.882 0,-6.046 -4.136,-12.355 -14.688,-12.355 -3.572,0 -7.242,0.924 -9.416,2.015 l 3.512,6.151 c 1.663,-0.88 4.091,-1.654 6.626,-1.654 4.497,0 6.512,2.587 6.512,5.28 0,2.323 -1.909,3.617 -4.136,4.91 -3.309,1.91 -7.295,4.348 -7.295,9.927 0,5.641 3.678,12.056 13.965,12.056 3.52,0 6.68,-0.827 8.537,-2.015 z"
             style="fill:#f59a00;fill-opacity:1;fill-rule:nonzero;stroke:none"
             id="path22" /></g><g
           id="g24"
           transform="translate(220.1159,68.592)"><path
             d="m 0,0 c -1.707,0 -3.362,0.308 -4.189,0.616 l -2.068,-11.423 h -7.084 l 6.979,37.595 c 2.745,1.249 6.204,2.024 10.137,2.024 7.656,0 11.845,-4.4 11.845,-11.379 C 15.62,8.378 10.393,0 0,0 m 3.256,23.329 c -1.241,0 -2.631,-0.317 -3.309,-0.624 L -3.159,5.896 c 0.572,-0.255 1.971,-0.519 3.212,-0.519 6.151,0 8.633,7.295 8.633,11.898 0,3.669 -1.91,6.054 -5.43,6.054"
             style="fill:#f59a00;fill-opacity:1;fill-rule:nonzero;stroke:none"
             id="path26" /></g><g
           id="g28"
           transform="translate(250.2194,68.2824)"><path
             d="m 0,0 c -6.829,0 -10.551,4.91 -10.551,11.273 0,9.108 5.376,17.847 15.206,17.847 6.829,0 10.552,-4.858 10.552,-11.221 C 15.207,8.791 9.777,0 0,0 m 3.986,23.584 c -5.482,0 -7.603,-7.911 -7.603,-12.258 0,-3.468 1.39,-5.588 4.285,-5.588 5.483,0 7.56,7.92 7.56,12.258 0,3.415 -1.347,5.588 -4.242,5.588"
             style="fill:#f59a00;fill-opacity:1;fill-rule:nonzero;stroke:none"
             id="path30" /></g><g
           id="g32"
           transform="translate(285.7023,91.5051)"><path
             d="m 0,0 c -0.669,0.211 -1.496,0.255 -2.482,0.255 -1.504,0 -3.159,-0.308 -4.188,-0.721 l -4.137,-22.133 h -7.04 l 4.92,26.48 c 3.256,1.241 6.978,2.015 11.378,2.015 1.444,0 3.001,-0.158 3.978,-0.361 z"
             style="fill:#f59a00;fill-opacity:1;fill-rule:nonzero;stroke:none"
             id="path34" /></g><g
           id="g36"
           transform="translate(305.8229,91.5051)"><path
             d="m 0,0 h -5.228 l -2.534,-13.605 c -0.044,-0.361 -0.096,-0.669 -0.096,-0.977 0,-1.399 0.976,-2.226 2.736,-2.226 0.722,0 1.602,0.202 2.121,0.413 l -1.082,-5.843 c -0.88,-0.413 -2.535,-0.774 -3.934,-0.774 -4.497,0 -6.979,2.27 -6.979,6.512 0,0.721 0.044,1.548 0.203,2.429 L -12.153,0 h -3.573 l 0.986,5.28 h 3.564 l 1.144,6.204 7.295,2.015 -1.505,-8.219 h 5.227 z"
             style="fill:#f59a00;fill-opacity:1;fill-rule:nonzero;stroke:none"
             id="path38" /></g><g
           id="g40"
           transform="translate(329.8224,70.4543)"><path
             d="m 0,0 c -2.948,-1.241 -6.67,-2.174 -10.912,-2.174 -7.348,0 -10.657,3.212 -10.657,7.965 0,0.827 0.053,1.654 0.211,2.437 l 3.362,18.102 h 7.031 L -14.274,8.377 c -0.105,-0.413 -0.105,-0.879 -0.105,-1.293 0,-2.271 1.135,-3.467 4.083,-3.467 1.61,0 3.107,0.317 4.039,0.677 l 4.083,22.036 h 7.032 z"
             style="fill:#f59a00;fill-opacity:1;fill-rule:nonzero;stroke:none"
             id="path42" /></g><g
           id="g44"
           transform="translate(343.6862,72.4192)"><path
             d="m 0,0 c -1.91,-10.446 -7.964,-14.019 -15.567,-15.048 l 1.082,5.993 c 3.159,0.932 6.31,3.264 7.401,9.055 l 4.497,24.359 h 7.084 z m 2.015,28.812 c -1.962,0 -3.564,1.548 -3.564,3.361 0,2.324 1.91,4.242 4.55,4.242 1.962,0 3.52,-1.505 3.52,-3.309 0,-2.332 -1.866,-4.294 -4.506,-4.294"
             style="fill:#f59a00;fill-opacity:1;fill-rule:nonzero;stroke:none"
             id="path46" /></g><g
           id="g48"
           transform="translate(382.1682,90.7805)"><path
             d="m 0,0 c -1.346,0.828 -3.52,1.399 -5.377,1.399 -2.64,0 -4.505,-1.452 -4.505,-3.52 0,-1.707 1.557,-2.481 3.572,-3.308 3.054,-1.241 6.618,-2.948 6.618,-7.348 0,-4.911 -3.309,-9.724 -12.62,-9.724 -3.15,0 -6.881,0.879 -8.949,2.023 l 3.159,5.166 c 1.549,-0.88 4.348,-1.602 6.363,-1.602 3.053,0 4.708,1.707 4.708,3.67 0,1.655 -1.611,2.438 -3.626,3.265 -2.895,1.188 -6.415,2.895 -6.415,7.339 0,4.919 3.625,9.258 11.484,9.258 3.361,0 6.574,-0.88 8.536,-2.015 z"
             style="fill:#f59a00;fill-opacity:1;fill-rule:nonzero;stroke:none"
             id="path50" /></g><g
           id="g52"
           transform="translate(425.5632,87.2121)"><path
             d="m 0,0 -3.362,-18.313 h -7.084 l 3.362,18.26 c 0.053,0.361 0.105,0.775 0.105,1.136 0,2.332 -1.504,3.467 -4.188,3.467 -1.708,0 -3.212,-0.308 -4.242,-0.722 l -4.145,-22.141 h -7.031 l 4.91,26.488 c 3.213,1.294 6.829,2.016 11.176,2.016 7.137,0 10.71,-3.16 10.71,-7.912 C 0.211,1.602 0.159,0.827 0,0"
             style="fill:#f59a00;fill-opacity:1;fill-rule:nonzero;stroke:none"
             id="path54" /></g><g
           id="g56"
           transform="translate(453.5466,87.1091)"><path
             d="m 0,0 -3.106,-16.808 c -2.535,-1.135 -6.407,-2.015 -10.754,-2.015 -7.401,0 -11.018,3.097 -11.018,7.647 0,9.627 10.859,10.508 18.155,10.921 l 0.255,1.443 c 0.053,0.308 0.106,0.625 0.106,0.88 0,2.226 -1.655,3.107 -4.55,3.107 -2.64,0 -5.949,-0.827 -8.123,-1.708 l -0.88,4.805 c 2.535,1.092 6.363,2.024 10.402,2.024 6.152,0 9.769,-2.692 9.769,-7.603 C 0.256,1.866 0.211,0.986 0,0 m -18.207,-10.296 c 0,-2.121 1.602,-3.511 5.016,-3.511 1.504,0 3.308,0.255 4.091,0.563 l 1.549,8.483 c -4.083,-0.202 -10.656,-0.413 -10.656,-5.535 m 12.47,23.171 h -5.017 l 4.911,6.829 c 1.24,1.091 2.895,1.557 4.241,1.557 1.347,0 2.587,-0.572 2.685,-1.557 z"
             style="fill:#f59a00;fill-opacity:1;fill-rule:nonzero;stroke:none"
             id="path58" /></g><g
           id="g60"
           transform="translate(498.5466,87.3674)"><path
             d="m 0,0 -3.415,-18.463 h -7.084 L -7.085,0 c 0.053,0.36 0.098,0.668 0.098,1.038 0,2.121 -1.391,3.362 -3.926,3.362 -1.76,0 -3.212,-0.52 -4.347,-1.4 l -3.977,-21.463 h -7.093 l 3.519,18.877 c 0.053,0.307 0.053,0.571 0.053,0.827 0,1.962 -1.399,3.159 -4.136,3.159 -1.557,0 -3.001,-0.317 -4.039,-0.731 l -4.136,-22.132 h -7.032 l 4.912,26.48 c 3.159,1.293 6.573,2.015 10.55,2.015 4.243,0 6.935,-1.346 8.484,-2.895 2.376,1.654 5.588,2.895 9.416,2.895 5.535,0 8.941,-2.895 8.941,-7.753 C 0.202,1.496 0.158,0.827 0,0"
             style="fill:#f59a00;fill-opacity:1;fill-rule:nonzero;stroke:none"
             id="path62" /></g><g
           id="g64"
           transform="translate(508.5827,68.9026)"><path
             d="m 0,0 h -7.084 l 5.165,27.879 h 7.094 z m 2.692,32.323 c -1.97,0 -3.572,1.558 -3.572,3.362 0,2.332 1.909,4.241 4.55,4.241 1.971,0 3.519,-1.496 3.519,-3.308 0,-2.324 -1.865,-4.295 -4.497,-4.295"
             style="fill:#f59a00;fill-opacity:1;fill-rule:nonzero;stroke:none"
             id="path66" /></g></g></g><g
       id="g68"
       transform="translate(218.5847,121.8029)"><path
         d="m 0,0 h 14.159 l 7.788,51.234 H 33.59 l 1.637,10.789 H -3.379 L -5.016,51.234 H 7.788 Z"
         style="fill:#0097f4;fill-opacity:1;fill-rule:nonzero;stroke:none"
         id="path70" /></g><g
       id="g72"><g
         id="g74"
         clip-path="url(#clipPath78)"><g
           id="g80"
           transform="translate(384.5319,170.0969)"><path
             d="m 0,0 c -7.357,0 -15.136,-1.267 -19.871,-3.229 l -9.152,-60.51 h 13.667 l 2.367,15.708 c 0,0 3.097,-1.038 7.938,-1.038 14.925,0 24.403,8.73 26.814,24.666 C 23.98,-9.698 16.632,0 0,0 m 8.025,-24.781 c -1.319,-8.572 -6.309,-13.693 -13.446,-13.693 -3.793,0 -5.975,1.091 -5.975,1.091 l 3.845,25.529 c 0,0 2.323,0.951 5.808,0.951 6.548,0 11.317,-3.864 9.768,-13.878"
             style="fill:#0097f4;fill-opacity:1;fill-rule:nonzero;stroke:none"
             id="path82" /></g><g
           id="g84"
           transform="translate(297.217,170.0969)"><path
             d="m 0,0 c -7.357,0 -15.136,-1.267 -19.871,-3.229 l -9.151,-60.51 h 13.666 l 2.367,15.708 c 0,0 3.098,-1.038 7.938,-1.038 14.925,0 24.403,8.73 26.814,24.666 C 23.98,-9.698 16.632,0 0,0 m 8.026,-24.781 c -1.32,-8.572 -6.31,-13.693 -13.447,-13.693 -3.792,0 -5.975,1.091 -5.975,1.091 l 3.846,25.529 c 0,0 2.323,0.951 5.808,0.951 6.547,0 11.308,-3.864 9.768,-13.878"
             style="fill:#0097f4;fill-opacity:1;fill-rule:nonzero;stroke:none"
             id="path86" /></g><g
           id="g88"
           transform="translate(494.654,178.2634)"><path
             d="m 0,0 -6.513,-43.05 c -1.214,-7.929 2.28,-14.239 12.594,-14.239 3.344,0 7.806,0.581 9.311,1.065 l 1.715,11.379 c -1.162,-0.194 -3.335,-0.291 -4.118,-0.291 -4.339,0 -5.843,2.007 -5.342,5.316 l 3.081,20.345 h 10.216 l 1.549,10.208 H 12.268 l 2.155,14.239 z"
             style="fill:#0097f4;fill-opacity:1;fill-rule:nonzero;stroke:none"
             id="path90" /></g><g
           id="g92"
           transform="translate(319.1374,122.6882)"><path
             d="m 0,0 c 0,0 7.207,-1.989 16.148,-1.989 11.528,0 19.237,4.383 20.54,12.787 0.95,6.178 -1.241,10.894 -11.44,16.614 -5.113,2.869 -7.701,3.952 -7.357,6.301 0.378,2.57 4.479,2.887 6.784,2.887 5.844,0 12.567,-1.453 12.567,-1.453 l 1.795,10.623 c 0,0 -6.028,1.636 -14.863,1.636 C 13.235,47.406 5.526,43.024 4.33,34.998 3.415,28.864 5.667,23.681 15.567,18.208 20.522,15.471 23.329,14.01 22.898,11.563 22.599,9.856 20.478,8.809 15.884,8.809 8.888,8.809 2.218,10.481 2.218,10.481 Z"
             style="fill:#0097f4;fill-opacity:1;fill-rule:nonzero;stroke:none"
             id="path94" /></g></g></g><g
       id="g96"
       transform="translate(248.4714,121.8029)"><path
         d="m 0,0 h 13.676 l 7.093,47.195 H 7.137 Z"
         style="fill:#0097f4;fill-opacity:1;fill-rule:nonzero;stroke:none"
         id="path98" /></g><g
       id="g100"
       transform="translate(256.2209,173.0407)"><path
         d="m 0,0 h 13.631 l 1.637,10.78 H 1.619 Z"
         style="fill:#0097f4;fill-opacity:1;fill-rule:nonzero;stroke:none"
         id="path102" /></g><g
       id="g104"><g
         id="g106"
         clip-path="url(#clipPath110)"><g
           id="g112"
           transform="translate(490.5036,169.9079)"><path
             d="m 0,0 c -5.869,0.537 -16.025,0.193 -25.256,-3.996 l -6.671,-44.106 h 13.676 l 5.5,36.372 c 0,0 3.978,1.627 11.097,0.8 z"
             style="fill:#0097f4;fill-opacity:1;fill-rule:nonzero;stroke:none"
             id="path114" /></g><g
           id="g116"
           transform="translate(437.0881,170.0969)"><path
             d="m 0,0 c -15.629,0 -24.447,-8.377 -26.92,-24.808 -1.725,-11.492 3.318,-24.587 19.898,-24.587 15.628,0 24.438,8.378 26.919,24.808 C 21.622,-13.094 16.139,0 0,0 m 6.221,-24.896 c -1.698,-11.193 -7.304,-13.613 -11.659,-13.613 -5.554,0 -9.17,4.435 -7.718,14.001 1.707,11.185 7.313,13.605 11.669,13.605 5.614,0 9.169,-4.435 7.708,-13.993"
             style="fill:#0097f4;fill-opacity:1;fill-rule:nonzero;stroke:none"
             id="path118" /></g></g></g><g
       id="g120"
       transform="translate(128.0798,118.5046)"><path
         d="M 0,0 14.248,13.244 H -0.739 Z"
         style="fill:#ffffff;fill-opacity:1;fill-rule:nonzero;stroke:none"
         id="path122" /></g><g
       id="g124"
       transform="translate(139.0485,116.6408)"><path
         d="M 0,0 H 13.605 L -10.551,-48.418 60.36,17.512 H 18.841 Z"
         style="fill:#0097f4;fill-opacity:1;fill-rule:nonzero;stroke:none"
         id="path126" /></g><g
       id="g128"
       transform="translate(65.6081,173.0539)"><path
         d="M 0,0 61.618,-20.909 3.186,-115.246 127.126,0 Z"
         style="fill:#f59a00;fill-opacity:1;fill-rule:nonzero;stroke:none"
         id="path130" /></g><g
       id="g132"
       transform="translate(66.7248,173.0539)"><path
         d="M 0,0 89.145,-11.766 3.15,-114.234 126.009,0 Z"
         style="fill:#f59a00;fill-opacity:1;fill-rule:nonzero;stroke:none"
         id="path134" /></g><g
       id="g136"><g
         id="g138"
         clip-path="url(#clipPath142)"><g
           id="g144"
           transform="translate(201.5026,197.9055)"><path
             d="m 0,0 c 0,-9.496 -8.404,-17.187 -18.779,-17.187 -10.367,0 -18.771,7.691 -18.771,17.187 0,9.495 8.404,17.195 18.771,17.195 C -8.404,17.195 0,9.495 0,0"
             style="fill:#0097f4;fill-opacity:1;fill-rule:nonzero;stroke:none"
             id="path146" /></g><g
           id="g148"
           transform="translate(890.7429,116.948)"><path
             d="m 0,0 0.026,1.074 c 0,20.064 -9.838,37.831 -24.957,48.735 -2.253,1.636 -10.956,6.635 -12.9,7.392 -1.69,0.66 -3.371,1.355 -5.052,2.032 -1.205,0.484 -8.104,3.142 -8.104,3.142 h 11.774 v 29.463 c 0,0 -28.53,0.009 -28.574,0 -6.626,-0.026 -12.804,-2.57 -17.494,-6.565 v 12.962 h -29.974 V 15.99 c 0,-12.769 -10.357,-23.127 -23.127,-23.127 -12.777,0 -23.126,10.358 -23.126,23.127 l -0.009,82.245 h -30.519 v -6.573 h -57.693 l 14.239,-18.524 c -24.2,-10.877 -41.053,-35.192 -41.053,-63.44 0,-38.386 31.126,-69.512 69.512,-69.512 21.129,0 40.076,9.451 52.827,24.332 0,0 0.713,-0.238 0.924,-0.29 1.382,-0.361 2.755,-0.749 4.145,-1.083 1.575,-0.37 3.186,-0.59 4.796,-0.774 1.188,-0.132 2.376,-0.309 3.572,-0.352 1.461,-0.062 2.913,-0.123 4.374,-0.018 1.365,0.097 2.729,0.105 4.083,0.255 1.444,0.15 2.887,0.405 4.322,0.66 1.566,0.282 3.001,0.651 4.514,1.126 0,0 0.37,-0.422 0.528,-0.606 12.417,-14.503 32.349,-23.911 54.825,-23.911 37.638,0 68.147,26.366 68.147,58.891 0,0.51 -0.008,1.012 -0.026,1.522 L 0,0 m -207.251,-29.533 c -21.596,0 -39.107,17.512 -39.107,39.107 0,21.613 17.511,39.126 39.107,39.126 5.342,0 10.445,-1.065 15.083,-3.001 0,0 -0.026,-19.237 0,-28.231 0,-2.789 0.142,-5.579 0.484,-8.351 0.29,-2.385 0.74,-4.726 1.356,-7.049 0.527,-1.98 1.099,-3.934 1.865,-5.835 0.783,-1.953 1.637,-3.889 2.631,-5.746 1.03,-1.91 2.103,-3.793 3.424,-5.535 0.818,-1.092 1.672,-2.253 2.534,-3.3 -7.049,-6.917 -16.711,-11.185 -27.377,-11.185 m 177.27,30.501 c -0.018,-6.908 -2.368,-13.271 -6.301,-18.34 l -0.053,-0.087 c -0.026,-0.036 -0.061,-0.08 -0.088,-0.115 -1.206,-1.505 -2.57,-2.886 -3.987,-4.197 -3.107,-2.87 -6.714,-4.876 -10.736,-6.143 -1.39,-0.431 -2.781,-0.88 -4.198,-1.223 -2.085,-0.502 -4.206,-0.792 -6.353,-0.915 -0.52,-0.036 -1.03,-0.115 -1.549,-0.168 -1.391,-0.158 -2.79,-0.017 -4.18,0.062 -2.332,0.15 -4.637,0.528 -6.943,0.88 -1.822,0.29 -3.652,0.598 -5.447,1.047 -1.567,0.387 -2.957,0.854 -4.594,1.452 -4.84,1.927 -9.073,4.647 -12.479,7.876 1.989,2.323 8.052,12.76 8.528,13.896 1.011,2.428 2.103,4.558 2.657,10.798 0.237,11.22 0.184,38.297 0.184,38.297 2.922,-2.543 6.689,-4.153 10.456,-5.579 l 0.492,-0.176 c 0,0 14.459,-4.479 26.841,-9.882 l 0.061,-0.027 c 1.003,-0.466 1.646,-0.765 1.646,-0.765 9.539,-5.043 16.043,-15.066 16.043,-26.603 z"
             style="fill:#de9d1d;fill-opacity:1;fill-rule:nonzero;stroke:none"
             id="path150" /></g><g
           id="g152"
           transform="translate(855.5563,165.3518)"><path
             d="m 0,0 c 16.931,-8.941 28.485,-26.805 28.485,-47.283 0,-0.8 -0.044,-2.657 -0.044,-2.657 0,-28.645 -27.078,-51.868 -60.227,-51.868 -28.9,0 -54.411,17.618 -60.122,41.122 l 0.263,0.098 c 2.543,1.011 4.919,2.067 7.076,3.801 1.09,0.871 2.042,1.892 3.045,2.86 0.651,0.634 2.296,2.534 2.604,2.851 0.106,-0.228 1.575,-4.277 2.394,-6.177 0.977,-2.253 3.336,-6.521 3.336,-6.521 6.397,-12.32 23.364,-21.393 42.011,-21.393 24.922,0 39.9,12.206 42.804,33.396 0.018,0.141 0.114,4.488 0.114,4.488 0,14.124 -7.858,26.374 -19.545,32.516 -13.086,6.204 -30.484,11.564 -30.484,11.564 -8.166,2.754 -14.036,10.375 -14.036,19.466 0,11.396 9.24,20.627 20.654,20.627 h 20.821 l -0.026,-16.43 h -20.979 c -2.13,0 -3.925,-1.759 -3.925,-3.88 0,-1.338 0.686,-2.517 1.733,-3.204 0,0 0.669,-0.448 1.003,-0.572 2.306,-0.888 25.054,-9.011 25.979,-9.407 1.31,-0.563 2.639,-1.109 3.907,-1.742 C -2.104,1.126 0,0 0,0"
             style="fill:#006eb6;fill-opacity:1;fill-rule:nonzero;stroke:none"
             id="path154" /></g><g
           id="g156"
           transform="translate(715.5388,93.5446)"><path
             d="m 0,0 c -8.236,-7.964 -19.377,-12.777 -31.741,-12.777 -25.301,0 -45.805,20.504 -45.805,45.804 0,25.3 20.504,45.805 45.805,45.805 16.218,0 30.466,-8.422 38.605,-21.138 L 6.855,82.308 v 0.017 c -8.922,7.031 -19.791,11.696 -31.68,13.033 v 0.009 l 9.311,13.121 H -61.46 l 11.749,-15.295 c -25.996,-7.656 -44.934,-31.689 -44.934,-60.157 0,-34.646 28.082,-62.727 62.718,-62.727 18.182,0 34.576,7.717 46.034,20.073 -0.211,0.123 -0.326,0.167 -0.493,0.255 -0.37,0.202 -0.739,0.413 -1.117,0.598 -2.895,1.417 -5.606,3.133 -8.141,5.113 -1.302,1.012 -2.534,2.121 -3.793,3.194 -0.167,0.142 -0.342,0.282 -0.554,0.449 z"
             style="fill:#ffffff;fill-opacity:1;fill-rule:nonzero;stroke:none"
             id="path158" /></g><g
           id="g160"
           transform="translate(705.3093,159.1169)"><path
             d="m 0,0 c 0,0 -0.229,-30.281 0.035,-32.067 0.334,-2.218 0.871,-3.978 1.4,-5.923 0.421,-1.601 0.906,-3.185 1.54,-4.717 1.24,-2.992 2.639,-5.922 4.373,-8.668 1.03,-1.61 2.033,-3.247 3.318,-4.673 0.563,-0.624 1.1,-1.285 1.681,-1.892 0.888,-0.95 1.777,-1.892 2.71,-2.789 1.073,-1.039 2.235,-1.972 3.415,-2.887 1.407,-1.1 2.877,-2.121 4.399,-3.027 2.429,-1.452 4.929,-2.763 7.595,-3.705 1.434,-0.51 2.869,-1.047 4.347,-1.425 1.751,-0.449 3.529,-0.819 5.333,-1.101 2.34,-0.36 4.699,-0.536 7.067,-0.563 2.701,-0.026 5.376,0.273 8.043,0.66 0.959,0.141 1.549,0.212 2.473,0.466 -0.053,0.08 -0.115,0.186 -0.159,0.256 -4.18,6.574 -5.914,12.109 -6.811,15.655 0,0 -1.892,-0.193 -2.499,-0.22 -1.954,-0.07 -3.89,0.15 -5.826,0.396 -0.607,0.079 -1.214,0.203 -1.813,0.352 -1.698,0.423 -3.379,0.915 -4.998,1.593 -1.919,0.81 -3.74,1.795 -5.465,2.957 -1.452,0.977 -2.763,2.138 -4.013,3.37 -0.598,0.59 -1.223,1.162 -1.751,1.813 -0.678,0.836 -1.285,1.716 -1.892,2.596 -1.496,2.183 -2.649,4.541 -3.494,7.041 -1.056,3.115 -1.628,6.036 -2.05,9.257 0,0 -1.734,16.984 -16.94,27.227 z"
             style="fill:#ec1c24;fill-opacity:1;fill-rule:nonzero;stroke:none"
             id="path162" /></g><g
           id="g164"
           transform="translate(798.7995,208.5393)"><path
             d="m 0,0 c 0,0 -0.009,-54.569 0,-81.04 0,-1.962 -0.141,-3.758 -0.466,-6.02 -1.241,-9.081 -9.593,-18.515 -9.126,-18.057 0,0 -1.575,2.27 -2.13,3.194 -0.474,0.801 -0.88,1.654 -1.338,2.482 -0.879,1.593 -2.85,7.163 -3.132,8.228 -0.326,1.241 -0.678,1.707 -0.678,3.766 0.01,4.453 0,87.447 0,87.447 z"
             style="fill:#ec1c24;fill-opacity:1;fill-rule:nonzero;stroke:none"
             id="path166" /></g><g
           id="g168"
           transform="translate(705.1979,192.6692)"><path
             d="M 0,0 C 6.143,-2.006 11.942,-4.84 17.195,-8.377 V 15.867 L 0,15.867 V 0.044"
             style="fill:#ec1c24;fill-opacity:1;fill-rule:nonzero;stroke:none"
             id="path170" /></g></g></g><path
       d="m 567.698,56.478 h 2.913 v 158.701 h -2.913 z"
       style="fill:#de9d1d;fill-opacity:1;fill-rule:nonzero;stroke:none"
       id="path172" /></g></svg>
