<?xml version="1.0" encoding="UTF-8" standalone="no"?>
<!-- Created with Inkscape (http://www.inkscape.org/) -->

<svg
   xmlns:dc="http://purl.org/dc/elements/1.1/"
   xmlns:cc="http://creativecommons.org/ns#"
   xmlns:rdf="http://www.w3.org/1999/02/22-rdf-syntax-ns#"
   xmlns:svg="http://www.w3.org/2000/svg"
   xmlns="http://www.w3.org/2000/svg"
   xmlns:sodipodi="http://sodipodi.sourceforge.net/DTD/sodipodi-0.dtd"
   xmlns:inkscape="http://www.inkscape.org/namespaces/inkscape"
   version="1.1"
   id="svg2"
   width="1367.2383"
   height="298"
   viewBox="0 0 1367.2383 298"
   sodipodi:docname="Brno.svg"
   inkscape:version="0.92.2 2405546, 2018-03-11">
  <metadata
     id="metadata8">
    <rdf:RDF>
      <cc:Work
         rdf:about="">
        <dc:format>image/svg+xml</dc:format>
        <dc:type
           rdf:resource="http://purl.org/dc/dcmitype/StillImage" />
        <dc:title></dc:title>
      </cc:Work>
    </rdf:RDF>
  </metadata>
  <defs
     id="defs6" />
  <sodipodi:namedview
     pagecolor="#ffffff"
     bordercolor="#666666"
     borderopacity="1"
     objecttolerance="10"
     gridtolerance="10"
     guidetolerance="10"
     inkscape:pageopacity="0"
     inkscape:pageshadow="2"
     inkscape:window-width="1606"
     inkscape:window-height="719"
     id="namedview4"
     showgrid="false"
     inkscape:zoom="0.51875"
     inkscape:cx="323.95166"
     inkscape:cy="219.06586"
     inkscape:window-x="0"
     inkscape:window-y="0"
     inkscape:window-maximized="0"
     inkscape:current-layer="layer1" />
  <g
     inkscape:groupmode="layer"
     id="layer1"
     inkscape:label="Layer 1"
     transform="translate(114.50018,49.071507)">
    <path
       inkscape:connector-curvature="0"
       id="path4524"
       d="m -27.26195,99.928492 v -149 h 640 640.00005 v 149 148.999998 h -640.00005 -640 z"
       style="fill:#ffffff" />
    <path
       inkscape:connector-curvature="0"
       id="path4522"
       d="m 164.73805,99.928492 v -149 h 5 5 v 149 148.999998 h -5 -5 z m 308,0 v -149 h 12 12 v 149 148.999998 h -12 -12 z m 322,0 v -149 h 29.5 29.5 v 149 148.999998 h -29.5 -29.5 z m 356.00005,0 v -149 h 50 50 v 149 148.999998 h -50 -50 z M 989.91945,149.48478 c -9.9183,-1.88199 -17.59238,-5.83746 -24.23652,-12.49226 -9.32167,-9.33662 -12.94488,-19.71065 -12.94488,-37.064028 0,-16.79681 3.35534,-26.85099 12.18503,-36.51207 11.37737,-12.44868 34.08397,-17.456662 54.60512,-12.04328 11.2431,2.96587 21.2316,10.34915 26.5722,19.64152 6.4603,11.24101 8.4264,30.599968 4.6194,45.485518 -5.4573,21.33783 -20.2004,32.44225 -44.9817,33.8801 -5.1884,0.30104 -11.35135,-0.0478 -15.81865,-0.8955 z m 24.20935,-21.26336 c 8.1785,-5.74806 12.1483,-20.52812 9.8142,-36.541058 -2.0907,-14.34551 -6.9593,-20.77931 -17.3358,-22.90993 -7.61535,-1.56366 -13.18755,0.125 -18.44245,5.58901 -5.4398,5.65618 -6.9267,11.14502 -6.9267,25.56905 0,13.811668 1.4751,19.603558 6.3873,25.079478 6.7407,7.51434 18.37665,8.92516 26.50345,3.21345 z M -24.01195,147.80566 c -0.963906,-0.98486 -1.25,-11.96051 -1.25,-47.954728 0,-39.82581 0.215555,-46.85645 1.468473,-47.89627 2.401683,-1.993224 53.445443,-0.85729 60.237398,1.34053 11.37413,3.68057 18.411116,12.37665 18.505392,22.86838 0.08135,9.05341 -4.062291,15.13931 -13.074833,19.2034 -2.275037,1.0259 -4.13643,2.21203 -4.13643,2.63584 0,0.42382 1.539472,1.27865 3.42105,1.89962 6.078202,2.005988 11.559223,6.786658 14.1428,12.335658 6.515308,13.99358 -0.504796,28.64601 -16.186813,33.78529 -6.301689,2.06518 -9.177745,2.28744 -34.377037,2.65659 -21.421733,0.31382 -27.776285,0.12057 -28.75,-0.87431 z m 47.318108,-19.34118 c 6.977701,-2.91547 7.934522,-12.63566 1.724642,-17.52035 -2.17147,-1.70808 -4.051429,-2.01564 -12.32062,-2.01564 -7.975668,0 -9.869029,0.28894 -10.365141,1.58179 -1.115563,2.90711 -0.657897,16.9673 0.593011,18.21821 1.725379,1.72538 16.051251,1.53969 20.368108,-0.26401 z M 22.198363,88.380302 c 6.005776,-2.84993 7.235473,-9.52234 2.692063,-14.6073 -2.70299,-3.02517 -3.286918,-3.2101 -11.496649,-3.641 -11.147093,-0.58508 -11.655727,-0.17762 -11.655727,9.33715 0,10.6264 -0.14704,10.45934 9.20586,10.45934 5.142896,0 9.154939,-0.55191 11.254453,-1.54819 z M 282.97824,148.0981 c -0.99042,-0.62876 -1.20426,-11.04981 -1,-48.734688 l 0.25981,-47.93492 22.5,-0.29003 c 12.375,-0.15952 26.325,0.19189 31,0.78092 11.28602,1.42199 20.30563,5.78279 24.5,11.84525 2.74605,3.96908 3,5.0411 3,12.66386 0,7.65632 -0.24478,8.6773 -3.03621,12.66386 -2.21102,3.15766 -4.91078,5.26793 -9.93359,7.76461 -6.43186,3.197078 -6.73313,3.490148 -4.46379,4.342318 11.12664,4.17823 13.17931,7.49817 15.94188,25.78408 1.11418,7.37496 2.42022,14.83754 2.90231,16.58351 0.57708,2.09003 0.50294,3.54808 -0.21704,4.26806 -1.74978,1.74978 -25.19582,1.44844 -26.99116,-0.3469 -0.85085,-0.85084 -1.91985,-5.45576 -2.61163,-11.25 -2.18337,-18.28763 -2.26597,-18.63859 -5.03958,-21.4122 -2.171,-2.17099 -3.95085,-2.78471 -9.77123,-3.36923 -11.91955,-1.19703 -11.27996,-2.20854 -11.27996,17.83928 0,12.06981 -0.35951,17.59212 -1.2,18.43261 -1.36936,1.36936 -22.48442,1.68713 -24.55981,0.36961 z M 330.0133,90.586852 c 4.13915,-1.72945 6.22639,-6.15915 5.38333,-11.42488 -1.05249,-6.57372 -7.4666,-9.55373 -19.43305,-9.02861 l -6.72553,0.29513 -0.28684,10.41821 c -0.21016,7.63326 0.0571,10.65641 1,11.30926 1.79909,1.24573 15.97967,0.13663 20.06209,-1.56911 z M 599.97824,148.0981 c -0.99042,-0.62876 -1.20426,-11.04981 -1,-48.734688 l 0.25981,-47.93492 16.5,-0.28552 c 9.075,-0.15703 17.44451,-0.053 18.59892,0.23114 1.6543,0.4072 5.33861,7.72293 17.3926,34.53551 8.41152,18.710378 15.67951,34.018868 16.15108,34.018868 0.47157,0 0.8574,-15.0199 0.8574,-33.377558 0,-27.34382 0.25236,-33.58699 1.396,-34.53613 0.91361,-0.75823 4.9738,-1.0597 11.75,-0.87244 l 10.354,0.28613 0.25981,47.93492 c 0.20426,37.684878 -0.01,48.105928 -1,48.734688 -2.16404,1.3738 -33.1527,1.0024 -35.01152,-0.41961 -0.89868,-0.6875 -8.3556,-16.53197 -16.57093,-35.20993 -8.21533,-18.677968 -15.44105,-34.127968 -16.05716,-34.333338 -0.8127,-0.2709 -1.1202,9.22779 -1.1202,34.602948 0,30.97136 -0.18112,35.04585 -1.58179,35.58333 -2.32753,0.89316 -19.708,0.70981 -21.17802,-0.2234 z"
       style="fill:#d92028" />
  </g>
</svg>
