<?xml version="1.0" encoding="UTF-8" standalone="no"?>
<svg
   xmlns:dc="http://purl.org/dc/elements/1.1/"
   xmlns:cc="http://creativecommons.org/ns#"
   xmlns:rdf="http://www.w3.org/1999/02/22-rdf-syntax-ns#"
   xmlns:svg="http://www.w3.org/2000/svg"
   xmlns="http://www.w3.org/2000/svg"
   xmlns:sodipodi="http://sodipodi.sourceforge.net/DTD/sodipodi-0.dtd"
   xmlns:inkscape="http://www.inkscape.org/namespaces/inkscape"
   viewBox="0 0 643.01117 335.32898"
   id="svg18"
   height="335.32898"
   width="643.01117"
   version="1.1"
   sodipodi:docname="nsm.svg"
   inkscape:version="0.92.2 2405546, 2018-03-11">
  <sodipodi:namedview
     pagecolor="#ffffff"
     bordercolor="#666666"
     borderopacity="1"
     objecttolerance="10"
     gridtolerance="10"
     guidetolerance="10"
     inkscape:pageopacity="0"
     inkscape:pageshadow="2"
     inkscape:window-width="1665"
     inkscape:window-height="832"
     id="namedview14"
     showgrid="false"
     inkscape:zoom="1.1212869"
     inkscape:cx="255.88778"
     inkscape:cy="171.96973"
     inkscape:window-x="0"
     inkscape:window-y="0"
     inkscape:window-maximized="0"
     inkscape:current-layer="svg18" />
  <metadata
     id="metadata24">
    <rdf:RDF>
      <cc:Work
         rdf:about="">
        <dc:format>image/svg+xml</dc:format>
        <dc:type
           rdf:resource="http://purl.org/dc/dcmitype/StillImage" />
        <dc:title></dc:title>
      </cc:Work>
    </rdf:RDF>
  </metadata>
  <defs
     id="defs22" />
  <rect
     style="fill:#ffffff;fill-opacity:1;stroke:none;stroke-width:1.47286236;stroke-opacity:1"
     id="rect15"
     width="643.01117"
     height="335.32898"
     x="0"
     y="0" />
  <g
     inkscape:groupmode="layer"
     id="layer1"
     inkscape:label="Layer 1"
     transform="translate(75.805756,11.01886)">
    <g
       id="Layer1000"
       transform="translate(-76.0741,-261.9112)">
      <path
         id="path2"
         style="fill:#c5c7c8;fill-rule:evenodd"
         d="m 277.2769,437.9563 -1.2711,-0.4176"
         inkscape:connector-curvature="0" />
      <path
         id="path4"
         style="fill:#c5c7c8;fill-rule:evenodd"
         d="m 222.6662,440.0189 c -0.3493,0.1032 -0.6989,0.2072 -1.0478,0.312"
         inkscape:connector-curvature="0" />
      <path
         id="path6"
         style="fill:#1b1918;fill-rule:evenodd"
         d="m 391.0938,502.7695 c -2.357,-3.2474 -2.5141,-3.4566 -9.218,-11.9934 -3.8755,-4.9759 -5.7087,-7.2802 -7.1229,-8.9564 -0.6809,-0.8376 -0.3665,-0.4189 -1.0474,-1.2568 -0.6287,-0.7334 -1.3096,-1.5713 -1.9905,-2.5665 -1.1523,-1.5188 -1.6234,-2.0948 -2.0423,-2.2519 -0.3144,-0.1048 -0.3144,-0.1048 -1.9902,-0.2094 -3.0901,0 -3.1428,0 -3.1428,2.0948 l -0.1043,2.8802 c -0.1574,4.1902 -0.6809,25.6113 -0.6809,29.1204 0,0.8903 0.2092,1.1522 0.8901,1.1522 l 1.2568,-0.0521 1.4145,0.1046 c 0.576,0.0609 0.9426,-0.2095 0.995,-0.8382 0.157,-1.9899 0.3141,-7.6989 0.419,-16.6023 0.1046,-6.4944 0.1046,-7.071 0.2619,-11.1036 1.5188,2.1476 2.2518,3.195 5.2897,6.9656 6.1279,7.5419 12.308,15.3981 14.5074,18.4884 2.2522,3.0901 2.2522,3.0901 2.8809,3.0901 h 0.4714 c 0.6809,0 1.0998,0 1.5188,0 1.2047,0 1.4664,-0.2095 1.4664,-1.2569 0,-0.1049 0,-0.3671 -0.0522,-0.7858 v -1.0474 c 0,-1.2568 0.157,-4.2947 0.4187,-9.2177 0.5763,-11.0511 0.9431,-19.3263 0.9431,-21.7355 0,-0.8382 -0.3668,-1.0998 -1.5191,-1.0998 -2.7757,0 -2.8806,0.0524 -2.8806,1.3093 l -0.1567,2.1997 z m 26.8676,6.9658 c 0.3144,0.0525 0.5239,0.0525 0.7331,0.0525 0.7333,0 1.0998,-0.3144 1.1525,-1.0999 0.1043,-1.938 0.2092,-5.6041 0.2092,-8.1181 0,-4.7137 -0.6284,-7.1229 -2.4613,-9.0607 -1.9378,-2.1475 -5.0278,-3.2998 -8.9036,-3.2998 -3.3523,0 -4.9235,0.4714 -4.9235,1.5716 0,0.9952 0.5238,2.0948 0.9952,2.0948 0,0 0.3144,-0.0522 0.6809,-0.1049 1.4139,-0.1049 2.1997,-0.1571 2.3043,-0.1571 4.9235,0 7.4897,2.2522 7.4897,6.5466 -0.4714,-0.0521 -0.7858,-0.0521 -1.0474,-0.0521 -7.8041,0 -13.1462,3.1949 -13.1462,7.8562 0,3.2995 2.6713,5.4556 6.7039,5.4556 1.3618,0 2.3048,-0.1571 4.5567,-0.847 2.8808,-0.8377 3.1946,-0.8901 3.8234,-0.8901 z m -2.7757,-9.375 c -0.0527,2.4092 -0.1048,4.5567 -0.2094,6.5466 -2.2,0.9953 -3.9283,1.4667 -5.4998,1.4667 -2.147,0 -3.5612,-1.0474 -3.5612,-2.7236 0,-2.671 3.352,-4.6088 9.2704,-5.2897 z m 27.2342,-10.9987 c -1.8853,-0.733 -3.6136,-1.0474 -5.6563,-1.0474 -6.6518,0 -11.889,5.1327 -11.889,11.7318 0,6.1279 4.6091,11.2691 10.0556,11.2691 1.1001,0 2.1475,-0.2095 4.138,-0.7943 2.3043,-0.6809 3.0898,-0.8903 3.8231,-0.8903 0.2095,0 0.6284,0.0524 1.2047,0.1048 0.419,0.0525 0.8904,0.1046 1.2047,0.1046 0.6282,0 1.1523,-0.2094 1.3618,-0.5238 0.157,-0.2616 0.2092,-0.733 0.2616,-2.8278 l 0.1049,-4.7141 c 0.6282,-19.5352 0.6809,-20.8448 0.6809,-25.2445 0,-0.9425 -0.1573,-1.152 -0.7336,-1.152 -0.1046,0 -1.0996,0 -1.5185,0.0525 h -0.9953 c -1.6237,0.0521 -1.6237,0.0521 -1.7804,1.7804 z m -0.1049,3.2474 c 0,2.3043 -0.0522,3.2471 -0.2092,6.7561 -0.2095,4.3472 -0.2619,5.0805 -0.3668,7.4897 -2.2519,0.6281 -3.2995,0.7857 -4.8705,0.7857 -4.5045,0 -7.4897,-3.1949 -7.4897,-8.1184 0,-4.5564 3.352,-7.9608 7.9084,-7.9608 1.4666,0 2.9851,0.3144 5.0278,1.0477 z m 26.3446,17.1263 c 0.3144,0.0525 0.5239,0.0525 0.7331,0.0525 0.7333,0 1.0998,-0.3144 1.1525,-1.0999 0.1043,-1.938 0.2092,-5.6041 0.2092,-8.1181 0,-4.7137 -0.6284,-7.1229 -2.4613,-9.0607 -1.938,-2.1475 -5.0281,-3.2998 -8.9036,-3.2998 -3.3523,0 -4.9235,0.4714 -4.9235,1.5716 0,0.9952 0.5238,2.0948 0.9952,2.0948 0,0 0.3144,-0.0522 0.6809,-0.1049 1.4139,-0.1049 2.1997,-0.1571 2.3043,-0.1571 4.9235,0 7.4897,2.2522 7.4897,6.5466 -0.4714,-0.0521 -0.7858,-0.0521 -1.0474,-0.0521 -7.8041,0 -13.1462,3.1949 -13.1462,7.8562 0,3.2995 2.6713,5.4556 6.7039,5.4556 1.3618,0 2.3048,-0.1571 4.5567,-0.847 2.8808,-0.8377 3.1946,-0.8901 3.8234,-0.8901 z m -2.7757,-9.375 c -0.0527,2.4092 -0.1048,4.5567 -0.2097,6.5466 -2.2,0.9953 -3.9283,1.4667 -5.4995,1.4667 -2.147,0 -3.5612,-1.0474 -3.5612,-2.7236 0,-2.671 3.352,-4.6088 9.2704,-5.2897 z m 22.2588,-12.0461 c -2.8281,0 -5.5516,0.8904 -7.9087,2.5141 -3.1422,2.1994 -4.8183,5.4992 -4.8183,9.532 0,6.5466 4.7662,11.2691 11.2604,11.2691 1.9905,0 4.3472,-0.5238 6.2328,-1.4229 1.309,-0.6282 1.5712,-0.8904 1.7283,-1.5713 0.1046,-0.4187 0.2616,-2.1997 0.2616,-2.6186 0,-0.4187 -0.1046,-0.6285 -0.3665,-0.6285 -0.2095,0 -0.5239,0.1049 -1.0999,0.4193 -2.4613,1.4139 -4.1374,1.9377 -5.8657,1.9377 -4.1374,0 -7.3327,-3.4044 -7.3327,-7.8559 0,-4.714 3.1953,-8.0657 7.6992,-8.0657 1.6234,0 3.5612,0.4711 5.2373,1.3615 0.7336,0.3668 0.8904,0.4189 1.1001,0.4189 0.3144,0 0.4187,-0.1048 0.576,-0.9428 0.3144,-1.0474 0.3666,-1.4663 0.3666,-1.8328 0,-1.1523 -3.8756,-2.5141 -7.0705,-2.5141 z m 14.6123,10.8941 h 4.347 c 1.9377,0 6.2325,0.0522 8.4322,0.1046 h 1.6239 c 1.7805,0 2.0427,-0.2095 2.0427,-1.8334 0,-1.4661 -0.4193,-3.1947 -1.048,-4.5564 -1.3612,-2.9328 -4.0847,-4.504 -7.8035,-4.504 -7.0704,0 -12.727,5.3422 -12.727,12.0461 0,6.1274 5.1852,11.1642 11.4174,11.1642 2.6189,0 5.1333,-0.7942 7.6992,-2.4182 1.4139,-0.9425 1.938,-1.4661 1.938,-2.0421 0,-1.3617 -0.2097,-2.2521 -0.5241,-2.2521 -0.2616,0 -0.3665,0.1046 -1.2569,0.6809 -2.2518,1.6755 -4.5564,2.5659 -6.5466,2.5659 -4.3469,0 -7.5943,-3.509 -7.5943,-8.17 z m 12.2556,-2.9333 c -0.9425,0.1049 -7.4894,0.2098 -10.5273,0.2098 -0.157,0 -0.5236,0 -1.1523,-0.0527 1.048,-3.2996 3.5093,-5.1849 6.704,-5.1849 2.9854,0 4.714,1.7283 4.9756,5.0278 z"
         inkscape:connector-curvature="0" />
      <path
         id="path8"
         style="fill:#1b1918;fill-rule:evenodd"
         d="m 154.9168,546.0316 c 0.0524,-0.5763 0.1049,-0.9428 0.1049,-1.0999 0,-0.576 -0.4714,-0.7333 -2.1997,-0.7333 -4.4518,0 -8.0136,3.09 -8.0136,6.9134 0,1.9381 0.4717,2.7235 3.8761,6.3896 1.9378,2.0951 2.4092,2.7757 2.4092,3.6142 0,1.4663 -1.4666,2.3042 -4.0853,2.3042 -0.6287,0 -1.0474,-0.0521 -1.7807,-0.1048 -0.1571,-0.0522 -0.2619,-0.0522 -0.3665,-0.0522 -0.6288,0 -0.6809,0.157 -0.6809,2.147 0,1.0564 0.4711,1.2135 3.7185,1.2135 4.7137,0 7.9611,-2.5226 7.9611,-6.084 0,-1.7283 -0.6288,-2.8809 -3.1428,-5.866 -3.1946,-3.8231 -3.2474,-3.8759 -3.2474,-4.7662 0,-1.5188 1.4145,-2.4613 3.7188,-2.4613 h 0.4714 c 0.2619,0.0521 0.4711,0.0521 0.5238,0.0521 0.3666,0 0.5236,-0.157 0.576,-0.6281 z m 6.023,5.4995 -0.2094,5.7608 -0.1571,7.7513 c -0.0521,5.77 -0.0521,5.77 -0.157,10.4837 v 1.8334 c 0,1.2569 0.2619,1.414 2.0948,1.414 2.5665,0 2.5665,0 2.6186,-0.7331 0.0525,-0.7857 0.262,-9.794 0.262,-11.9506 2.1472,0.847 3.666,1.1614 5.6565,1.1614 6.9134,0 12.2556,-5.6132 12.2556,-12.7882 0,-6.0231 -4.2948,-10.789 -9.7418,-10.789 -1.0474,0 -2.6187,0.262 -3.6139,0.5763 -3.2996,1.0474 -3.6661,1.152 -4.6613,1.152 -0.3138,0 -0.576,0 -0.8901,-0.0524 -1.5713,-0.1571 -1.5713,-0.1571 -1.9378,-0.1571 -1.2574,0 -1.4663,0.3666 -1.4663,2.933 z m 4.5565,11.1557 c 0.1048,-3.9804 0.2622,-8.5895 0.4714,-13.9317 2.4097,-0.9428 3.9282,-1.3093 5.6565,-1.3093 4.3469,0 7.1232,2.6708 7.1232,6.9131 0,5.3949 -3.6139,9.1658 -8.6945,9.1658 -1.309,0 -2.933,-0.3143 -4.5566,-0.8379 z m 34.5152,-19.1166 c -7.6992,0 -12.9892,4.8181 -12.9892,11.7839 0,6.861 4.8707,11.8979 11.4701,11.8979 7.175,0 12.5172,-5.351 12.5172,-12.5263 0,-6.6515 -4.3991,-11.1555 -10.9981,-11.1555 z m -0.0528,3.5612 c 4.1902,0 6.861,2.933 6.861,7.5419 0,4.9756 -3.1949,8.4322 -7.8562,8.4322 -4.1375,0 -7.0177,-3.1949 -7.0177,-7.7514 0,-4.7134 3.4041,-8.2227 8.0129,-8.2227 z m 21.3163,-0.009 c 0,-2.2958 0,-2.3485 -0.6809,-2.3485 h -0.3144 c -0.157,0.0527 -0.157,0.0527 -0.4714,0.0527 h -1.2568 c -1.7283,0.0522 -1.7283,0.0522 -1.8329,0.4714 -0.1571,0.6282 -0.4714,14.0188 -0.4714,19.6926 0,1.2569 0.157,1.3618 1.9899,1.3618 h 0.6287 l 0.8379,-0.0525 c 1.4143,-0.0524 1.4664,-0.1049 1.5191,-2.2958 0.0522,-6.3022 0.1049,-7.7601 0.3666,-10.9462 0.2094,-2.9679 1.2044,-4.0068 4.6088,-4.8447 2.8809,-0.5148 2.9855,-0.5672 2.9855,-1.7717 0,-1.9292 -0.1046,-2.3485 -0.6809,-2.3485 -1.0477,0 -2.6187,0.3665 -3.7712,0.7858 -1.7283,0.7333 -2.4614,1.4142 -3.4566,3.2995 z m 18.3832,-3.0815 c 0.4714,-5.4471 0.5239,-6.1277 0.5239,-7.28 0,-0.576 -0.2095,-0.8903 -0.576,-0.8903 -0.2098,0 -0.5241,0.0521 -0.8907,0.2094 -0.3665,0.2095 -0.8382,0.3666 -1.5191,0.4714 -2.2515,0.6285 -2.4091,0.6809 -2.4091,1.99 0,2.6186 -0.0522,4.8186 -0.1568,6.7039 -1.3096,0.0527 -1.5188,0.0527 -2.0948,0.0527 -0.8385,0 -1.1001,0.1568 -1.2574,0.6809 -0.1571,0.5233 -0.2617,1.3615 -0.2617,1.885 0,0.5239 0.2095,0.6809 0.995,0.6809 0.6809,0 1.2572,-0.0521 2.4092,-0.2092 -0.2617,3.6664 -0.3666,6.2323 -0.3666,8.8512 0,3.0376 0.262,4.7659 0.838,6.1277 1.1522,2.6189 3.4044,4.094 6.2849,4.094 3.2474,0 7.1751,-1.4227 7.1751,-2.5752 0,-0.6809 -0.4711,-1.7283 -0.7852,-1.7283 -0.1049,0 -0.2622,0.0527 -0.4192,0.1049 -0.995,0.4189 -2.3568,0.6808 -3.6139,0.6808 -1.414,0 -2.566,-0.3665 -3.2996,-1.0474 -0.9952,-0.8906 -1.2044,-1.7282 -1.2044,-5.1327 0,-1.9904 0.1046,-4.5045 0.3665,-9.6369 1.0474,-0.0524 1.0474,-0.0524 2.5662,-0.1049 1.5191,-0.0521 2.9858,-0.1049 4.3997,-0.157 0.8903,0 0.9952,-0.2095 0.9952,-1.8856 0,-1.4139 -0.0527,-1.5188 -0.6287,-1.5188 -0.157,0 -0.4714,0 -0.733,0.0521 -2.4092,0.2622 -3.0379,0.3144 -6.4423,0.5766 z m 25.2967,18.1737 c -2.3043,0.8382 -3.9283,1.2047 -5.4471,1.2047 -1.9899,0 -3.2995,-0.9425 -4.0852,-2.8284 -0.576,-1.309 -0.7331,-2.933 -0.7331,-6.599 0,-1.5188 0.0522,-2.9852 0.1049,-4.3991 0.1049,-2.7235 0.157,-3.7188 0.157,-3.9283 0,-0.6808 -0.2619,-0.8906 -1.3093,-0.8906 -2.6711,0 -3.2995,0.1049 -3.6663,0.5763 -0.3141,0.4711 -0.3665,2.086 -0.3665,7.9872 0,9.1916 2.6186,13.5997 8.1181,13.5997 1.2569,0 2.8278,-0.2619 4.7656,-0.847 2.8809,-0.8376 2.8809,-0.8376 3.7188,-0.8376 0.2619,0 0.6287,0.0524 1.1001,0.1046 l 1.0474,0.0522 c 1.0998,0 1.5185,-0.576 1.4664,-2.2516 l 0.0521,-2.2436 0.2622,-5.2725 0.1046,-5.1239 v -2.1911 c 0.0525,-0.7855 0.0525,-1.3091 0.0525,-1.4573 0,-1.2572 -0.1049,-1.6762 -0.4193,-1.9381 -0.2616,-0.2095 -1.6755,-0.3141 -3.2995,-0.3141 -1.0996,0 -1.4139,0.3666 -1.4139,1.7283 l 0.0521,3.7185 z m 14.1936,-17.5453 c -1.6236,0 -1.7282,0.1573 -1.781,3.0379 l -0.2092,5.9182 -0.2622,6.9134 c -0.2095,7.8647 -0.2616,9.017 -0.6281,10.6931 -0.4714,2.3565 -1.2048,3.5615 -2.6187,4.504 -1.3184,0.7857 -2.9418,1.2047 -5.0369,1.2047 -0.314,0 -0.3665,0 -0.89,-0.1049 h -0.3144 c -0.3144,0 -0.5238,0.2619 -0.5238,0.7333 0,0.576 0.2616,1.5191 0.5238,1.9378 0.2616,0.3668 0.6809,0.4717 2.514,0.4717 2.3043,0 4.4604,-0.5239 6.346,-1.5191 4.1899,-2.2521 5.3421,-5.5519 5.6041,-16.5589 0.1046,-3.8755 0.2094,-7.3326 0.3665,-10.1083 0.2095,-3.9804 0.2616,-5.1851 0.2616,-5.9709 0,-0.9425 -0.2616,-1.0474 -1.8853,-1.0996 l -0.9425,-0.0524 z m 3.2474,-11.0512 c -2.357,0 -3.7188,1.0474 -3.7188,2.8809 0,1.571 1.3091,2.6711 3.2471,2.6711 1.9902,0 3.352,-1.2047 3.352,-2.9852 0,-1.5194 -1.152,-2.5668 -2.8803,-2.5668 z m 6.5988,30.7438 c -0.0522,0.3665 -0.0522,0.7336 -0.0522,0.8906 0,1.0999 0,1.0999 2.6708,1.0999 2.357,0 2.357,0 2.4616,-2.2 0.1571,-4.3294 0.5763,-16.454 0.5763,-18.1735 0,-0.7336 -0.1049,-0.9952 -0.4714,-1.1001 -0.3144,-0.1049 -1.5712,-0.2095 -2.4616,-0.2095 -1.4666,0 -1.7807,0.1046 -1.9902,0.576 -0.1573,0.3668 -0.3144,2.9245 -0.4711,9.3489 l -0.1576,5.1239 z m 5.8136,-32.1577 c -0.6285,0 -0.6806,0.0522 -0.995,0.6285 -1.7283,3.5617 -2.1475,4.2947 -2.776,5.3946 -0.5763,0.9949 -0.6809,1.1523 -0.6809,1.3617 0,0.3141 0.2095,0.3666 1.9902,0.3666 1.0474,0 1.1002,-0.0525 1.8854,-1.0999 4.0331,-5.2897 4.5045,-5.9184 4.5045,-6.285 0,-0.3143 -0.2619,-0.4189 -1.1001,-0.4189 h -0.9425 l -0.9953,0.0524 z m 17.1788,11.6272 c -2.8285,0 -5.552,0.8903 -7.909,2.514 -3.1422,2.1994 -4.8183,5.499 -4.8183,9.5321 0,6.5466 4.7662,11.2691 11.2606,11.2691 1.9905,0 4.3469,-0.5238 6.2325,-1.423 1.3094,-0.6281 1.5716,-0.8903 1.7283,-1.5712 0.1049,-0.4187 0.2619,-2.1997 0.2619,-2.6187 0,-0.4186 -0.1048,-0.6284 -0.3665,-0.6284 -0.2097,0 -0.5241,0.1049 -1.1001,0.4192 -2.4613,1.414 -4.1374,1.9378 -5.8657,1.9378 -4.1375,0 -7.3327,-3.4044 -7.3327,-7.8562 0,-4.7137 3.1952,-8.0657 7.6992,-8.0657 1.6237,0 3.5614,0.4714 5.2376,1.3617 0.7333,0.3666 0.8903,0.419 1.0998,0.419 0.3144,0 0.4187,-0.1049 0.5763,-0.9428 0.3141,-1.0474 0.3665,-1.4664 0.3665,-1.8329 0,-1.1523 -3.8758,-2.514 -7.0704,-2.514 z m 11.103,20.5305 c -0.0522,0.3665 -0.0522,0.7336 -0.0522,0.8906 0,1.0999 0,1.0999 2.6708,1.0999 2.357,0 2.357,0 2.4619,-2.2 0.1568,-4.3294 0.576,-16.454 0.576,-18.1735 0,-0.7336 -0.1049,-0.9952 -0.4714,-1.1001 -0.3143,-0.1049 -1.5712,-0.2095 -2.4616,-0.2095 -1.4666,0 -1.7804,0.1046 -1.9902,0.576 -0.1573,0.3668 -0.3144,2.9245 -0.4711,9.3489 l -0.1573,5.1239 z m 5.8136,-32.1577 c -0.6285,0 -0.6806,0.0522 -0.995,0.6285 -1.7283,3.5617 -2.1473,4.2947 -2.776,5.3946 -0.576,0.9949 -0.6809,1.1523 -0.6809,1.3617 0,0.3141 0.2095,0.3666 1.9905,0.3666 1.0474,0 1.0999,-0.0525 1.8851,-1.0999 4.0331,-5.2897 4.5045,-5.9184 4.5045,-6.285 0,-0.3143 -0.2619,-0.4189 -1.1001,-0.4189 h -0.9425 l -0.9953,0.0524 z m 24.7943,33.4148 c 0,0.7943 0.1571,0.8989 1.4661,0.8989 h 1.1526 c 0.6808,0 1.5709,-0.0522 1.7804,-0.1046 0.576,-0.1134 0.6287,-0.2704 0.6287,-2.2609 0,-2.2519 0.0522,-4.5564 0.1049,-6.861 0.1046,-2.3043 0.1046,-2.3043 0.1568,-8.3273 2.357,-1.2569 3.5093,-1.6237 5.1854,-1.6237 2.6186,0 3.7182,1.4142 3.7182,4.7662 0,2.2518 -0.2617,8.4322 -0.4714,12.2031 -0.0522,0.3665 -0.0522,0.7858 -0.0522,0.9952 0,0.7852 0.2092,0.995 1.0474,1.0475 0.4714,0.0609 1.7283,0.1133 2.0948,0.1133 1.781,0 1.8856,-0.1658 1.8856,-2.0511 l 0.1571,-2.933 c 0.2097,-2.7235 0.3143,-6.0755 0.3143,-8.3801 0,-1.8853 -0.0524,-2.7235 -0.2616,-4.1896 2.0948,-0.9952 3.4044,-1.4145 4.7135,-1.4145 1.6234,0 3.0378,0.8904 3.7709,2.4092 0.5238,1.1523 0.7333,2.5665 0.7333,5.1854 0,3.0898 -0.1046,5.6038 -0.2619,7.5943 -0.2619,2.4613 -0.2619,2.4613 -0.2619,2.723 0,1.0564 0,1.0564 2.8805,1.0564 1.5713,0 1.8329,-0.0524 2.0427,-0.4799 0.2095,-0.4717 0.6287,-6.8088 0.6287,-10.0562 0,-3.5611 -0.3144,-6.1801 -1.0474,-7.8035 -1.1001,-2.7235 -3.4571,-4.3996 -6.1279,-4.3996 -2.5665,0 -5.0279,0.8906 -7.7514,2.7757 -1.2047,-2.0427 -2.7235,-2.8803 -5.3422,-2.8803 -1.6761,0 -2.514,0.2095 -5.1854,1.2569 -1.885,0.7333 -3.0373,0.9952 -4.4518,0.9952 -0.2616,0 -0.2616,0 -1.3615,-0.0527 -1.1001,-0.0522 -1.5188,0.7336 -1.5188,3.2474 -0.1573,6.0755 -0.2619,11.4176 -0.3665,16.1838 z m 44.7276,-5.3334 c 0.3665,-10.3002 0.6809,-16.9954 1.0474,-25.0526 0.0522,-1.667 0.1049,-2.4525 0.1049,-2.9766 0,-0.8377 -0.1049,-0.8904 -1.781,-0.8904 h -0.6282 -0.8382 c -1.6758,0 -1.7804,0.1049 -1.8853,1.9381 l -0.1049,2.8196 c -0.576,13.1284 -1.0998,26.7196 -1.0998,29.2334 0,0.8904 0.2616,0.9953 2.4616,0.9953 2.514,0 2.5662,-0.0525 2.6186,-2.1473 z m 22.102,4.9669 c 0.3144,0.0524 0.5239,0.0524 0.7331,0.0524 0.7333,0 1.0998,-0.3143 1.1525,-1.0998 0.1043,-1.938 0.2092,-5.6041 0.2092,-8.1181 0,-4.7138 -0.6284,-7.1229 -2.4613,-9.0607 -1.938,-2.1475 -5.0281,-3.2998 -8.9036,-3.2998 -3.3523,0 -4.9235,0.4714 -4.9235,1.5715 0,0.995 0.5238,2.0948 0.9952,2.0948 0,0 0.3144,-0.0524 0.6809,-0.1049 1.4139,-0.1048 2.1994,-0.157 2.3043,-0.157 4.9235,0 7.4897,2.2521 7.4897,6.5466 -0.4714,-0.0521 -0.7858,-0.0521 -1.0474,-0.0521 -7.8041,0 -13.1462,3.1949 -13.1462,7.8562 0,3.2995 2.6713,5.4555 6.7039,5.4555 1.3618,0 2.3048,-0.157 4.5567,-0.847 2.8808,-0.8376 3.1946,-0.89 3.8234,-0.89 z m -2.7757,-9.375 c -0.0527,2.4091 -0.1048,4.5567 -0.2097,6.5466 -2.2,0.9952 -3.9283,1.4666 -5.4995,1.4666 -2.147,0 -3.5615,-1.0474 -3.5615,-2.7235 0,-2.6711 3.3523,-4.6088 9.2707,-5.2897 z m -1.3617,-23.6733 c -0.6288,0 -0.6809,0.0522 -0.9953,0.6285 -1.7283,3.5617 -2.1475,4.2947 -2.7757,5.3946 -0.5765,0.9949 -0.6808,1.1523 -0.6808,1.3617 0,0.3141 0.2092,0.3666 1.9899,0.3666 1.0474,0 1.1001,-0.0525 1.8856,-1.0999 4.0328,-5.2897 4.504,-5.9184 4.504,-6.285 0,-0.3143 -0.2617,-0.4189 -1.0999,-0.4189 h -0.9428 l -0.9949,0.0524 z m 28.4388,12.6746 c -1.8853,-0.7331 -3.6136,-1.0474 -5.6562,-1.0474 -6.6518,0 -11.8891,5.1327 -11.8891,11.7317 0,6.128 4.6092,11.2692 10.0556,11.2692 1.1002,0 2.1476,-0.2095 4.1378,-0.7943 2.3045,-0.6809 3.09,-0.8904 3.8231,-0.8904 0.2097,0 0.6287,0.0525 1.205,0.1049 0.4189,0.0524 0.8903,0.1046 1.2047,0.1046 0.6281,0 1.152,-0.2095 1.3618,-0.5238 0.157,-0.2617 0.2092,-0.7331 0.2616,-2.8279 l 0.1049,-4.714 c 0.6281,-19.5352 0.6809,-20.8448 0.6809,-25.2445 0,-0.9425 -0.1574,-1.152 -0.7337,-1.152 -0.1045,0 -1.0995,0 -1.5185,0.0524 h -0.9952 C 445.248,531 445.248,531 445.0912,532.7283 Z m -0.1048,3.2473 c 0,2.3043 -0.0522,3.2471 -0.2092,6.7561 -0.2095,4.347 -0.2622,5.0806 -0.3668,7.4897 -2.2519,0.6282 -3.2996,0.7858 -4.8705,0.7858 -4.5046,0 -7.4897,-3.1949 -7.4897,-8.1184 0,-4.5564 3.3517,-7.9608 7.9083,-7.9608 1.4667,0 2.9852,0.3143 5.0279,1.0476 z m 14.8745,6.5991 h 4.3469 c 1.9378,0 6.2325,0.0524 8.4322,0.1049 h 1.624 c 1.7804,0 2.0426,-0.2095 2.0426,-1.8335 0,-1.466 -0.4192,-3.1946 -1.0479,-4.5564 -1.3612,-2.9327 -4.0848,-4.5039 -7.8035,-4.5039 -7.0705,0 -12.727,5.3421 -12.727,12.0461 0,6.1273 5.1851,11.1642 11.4174,11.1642 2.6189,0 5.1332,-0.7942 7.6992,-2.4182 1.4139,-0.9425 1.938,-1.4661 1.938,-2.0421 0,-1.3618 -0.2098,-2.2521 -0.5241,-2.2521 -0.2617,0 -0.3665,0.1046 -1.2569,0.6809 -2.2519,1.6755 -4.5564,2.5659 -6.5466,2.5659 -4.347,0 -7.5943,-3.509 -7.5943,-8.17 z m 12.2556,-2.933 c -0.9426,0.1049 -7.4894,0.2098 -10.5273,0.2098 -0.1571,0 -0.5236,0 -1.1523,-0.0528 1.0479,-3.2995 3.5093,-5.1848 6.7039,-5.1848 2.9855,0 4.714,1.7283 4.9757,5.0278 z m 10.4748,-7.1751 c -1.9377,-0.0527 -2.5665,0.1568 -2.7759,0.995 -0.1049,0.3141 -0.3666,1.8332 -0.3666,2.0426 0,0.6285 0.3144,0.7855 1.414,0.7855 h 0.3143 l 1.5191,-0.1046 h 3.1947 c 1.7807,-0.0524 2.671,-0.1046 4.085,-0.2095 -1.3615,2.4614 -2.147,3.6661 -5.0278,7.6465 -7.1314,9.6894 -7.1314,9.6894 -7.1314,10.1083 0,0.3141 0.375,0.5324 1.0037,0.5324 l 2.3046,0.0524 8.8509,0.0522 c 5.1329,0 5.5516,-0.0522 5.7614,-0.5321 0.2095,-0.4192 0.5238,-1.9377 0.5238,-2.5665 0,-0.3665 -0.0527,-0.3665 -1.4145,-0.4714 l -3.9276,-0.0524 c -1.0474,0 -2.3571,0 -5.9709,0.1046 1.152,-1.8329 1.5712,-2.4613 4.2426,-6.1798 3.9804,-5.5519 7.2275,-10.6846 7.2275,-11.3655 0,-0.8377 -0.6285,-0.8904 -7.8563,-0.8904 -1.4139,0 -2.671,0 -3.7709,0.0527 z m -1.0998,-11.2084 0.576,0.7336 c 1.1001,1.5712 3.8234,5.0278 4.1374,5.3421 0.4193,0.4187 0.8382,0.4712 3.2474,0.4712 0.8379,0 0.8379,0 3.0379,-2.1473 l 2.5138,-2.4091 c 0.6284,-0.576 1.2571,-1.1523 1.938,-1.7811 0.6809,-0.6281 0.9425,-0.9425 0.9425,-1.152 0,-0.2619 -0.2094,-0.3143 -1.4139,-0.3143 -1.1001,0 -2.4616,0.1046 -2.7235,0.2095 -0.1573,0.1048 -1.8329,1.6761 -5.0281,4.871 -1.2572,-1.5715 -2.8806,-3.6663 -3.2471,-4.2423 -0.4714,-0.6809 -0.7336,-0.8382 -1.6234,-0.8382 -2.357,0 -2.8811,0.0524 -2.8811,0.4189 0,0.1049 0.1048,0.3144 0.2622,0.5242 z m 21.5257,21.3165 h 4.347 c 1.9377,0 6.2325,0.0524 8.4322,0.1049 h 1.6239 c 1.7805,0 2.0427,-0.2095 2.0427,-1.8335 0,-1.466 -0.4193,-3.1946 -1.048,-4.5564 -1.3612,-2.9327 -4.0847,-4.5039 -7.8035,-4.5039 -7.0704,0 -12.727,5.3421 -12.727,12.0461 0,6.1273 5.1852,11.1642 11.4174,11.1642 2.6189,0 5.1333,-0.7942 7.6992,-2.4182 1.4139,-0.9425 1.938,-1.4661 1.938,-2.0421 0,-1.3618 -0.2097,-2.2521 -0.5241,-2.2521 -0.2616,0 -0.3665,0.1046 -1.2569,0.6809 -2.2518,1.6755 -4.5564,2.5659 -6.5466,2.5659 -4.3469,0 -7.5943,-3.509 -7.5943,-8.17 z m 12.2556,-2.933 c -0.9425,0.1049 -7.4894,0.2098 -10.5273,0.2098 -0.157,0 -0.5236,0 -1.1523,-0.0528 1.048,-3.2995 3.5093,-5.1848 6.704,-5.1848 2.9854,0 4.714,1.7283 4.9756,5.0278 z"
         inkscape:connector-curvature="0" />
      <g
         id="Layer1001">
        <path
           id="path10"
           style="fill:#ffec00;fill-rule:evenodd"
           d="m 256.3514,263.8545 11.6087,-1.7455 4.4242,0.4507 1.2233,-0.6485 2.6333,0.6211 c 5.9834,1.4345 10.0344,4.3913 13.2865,7.9781 3.0595,3.9915 4.8568,8.4153 5.392,13.2713 -0.2364,7.0181 -1.914,14.2835 -4.8388,21.2138 l -1.1085,2.6207 -0.3707,0.9016 -1.2642,5.3964 c -0.6521,1.029 -1.5579,2.1561 -1.9766,3.3669 -0.8,2.3127 -2.3271,4.0691 -3.3043,6.2809 -2.3318,0.6357 -3.8725,1.8803 -4.6223,3.7346 -0.1221,1.7187 -1.5725,3.8086 -3.0364,5.5477 l -1.4057,2.3639 -10.7289,10.1236 -0.7351,-0.2369 -4.1406,3.0661 -2.0338,1.3624 c -3.3635,1.7847 -4.3879,2.0408 -7.2615,4.0944 -6.6389,0.1319 -12.8632,-0.5988 -17.5578,-3.0988 -5.7514,-3.5518 -9.6314,-9.5612 -12.4658,-17.0613 -1.381,-6.0024 -1.4247,-13.5948 -0.3605,-22.5043 1.1183,-5.752 2.6037,-10.0635 4.6252,-12.2688 0.4845,-3.003 1.5871,-5.7259 3.1125,-8.2568 0.9958,-3.4659 2.9075,-6.8149 5.4452,-10.0836 2.8021,-1.7214 5.2065,-3.811 7.2125,-6.2685 6.0209,-5.0152 12.0998,-8.5263 18.2481,-10.2212 z m -8.3036,18.7113 c -3.4956,1.4737 -6.2729,2.9201 -7.469,4.3049 -2.4082,4.3911 -4.5049,9.6098 -6.344,15.5142 -0.7762,4.8035 -2.1234,9.7249 -2.3286,14.4105 l 0.2376,2.682 0.0508,2.3753 c 2.5623,7.8921 9.2543,10.6377 20.0082,12.0764 3.6839,-0.7426 7.158,-1.9567 10.6026,-3.937 0.9361,-0.2181 1.7911,-0.0495 2.8084,-0.6542 0.2382,-1.1287 0.9922,-2.1493 2.2619,-3.0617 l 1.8051,0.5254 1.5401,-1.5433 0.1821,-3.3846 1.6112,-6.197 1.3124,-4.2042 0.5492,-1.6543 1.8328,-11.8505 c -0.6118,-5.4373 -2.2121,-10.3894 -6.5765,-13.6353 -3.588,-1.8739 -7.1064,-3.6064 -11.6274,-3.1424 l -2.4881,-0.2677 c -2.6762,0.0372 -5.3325,0.585 -7.9688,1.6435 z"
           inkscape:connector-curvature="0" />
        <path
           id="path12"
           style="fill:#009035;fill-rule:evenodd"
           d="m 242.1414,433.4922 c -6.3647,1.0238 -22.2563,3.3458 -26.3661,4.9304 -20.9466,8.0752 -47.3418,20.3003 -63.9026,31.3906 -21.8777,13.9093 -39.1998,30.1678 -53.966,47.7445 -6.1396,7.8152 -11.6029,15.6883 -15.3093,23.7134 l 0.2826,2.4872 -1.6362,2.2521 -1.2434,4.5407 -1.5685,3.5473 1.1204,0.5197 -0.0929,1.2743 -0.6408,1.6702 -0.9833,0.5648 0.4386,3.0318 -2.1998,1.8922 1.4303,0.8795 0.8487,1.6306 -0.5498,1.6518 1.9756,1.4481 0.8576,-0.1962 2.1482,0.751 1.7788,-1.8224 1.3251,-0.4223 0.634,-2.2462 c 7.9606,-8.91 17.0089,-17.1048 27.1458,-24.5832 11.8554,-8.933 24.4807,-18.1999 38.17,-26.1622 28.7546,-16.5356 58.3926,-25.0887 88.6381,-28.4144 14.1341,-1.2242 36.1096,6.1 62.8261,16.8407 l 1.7154,-2.3931 6.9596,-2.1754 1.8529,-2.2135 1.6283,0.3938 -0.2727,-1.5062 c -3.0169,-4.2029 -6.9058,-7.9269 -11.8468,-11.0728 -14.409,-7.5468 -30.132,-12.9927 -48.3076,-14.2648 -19.8356,-1.8936 -40.419,3.5233 -60.2538,8.954 -14.4911,4.7643 -28.6751,10.5814 -42.4117,17.9373 -14.2381,8.4611 -26.2056,16.9779 -36.2412,23.9671 8.3847,-8.5827 18.7706,-18.348 29.7705,-27.0309 14.8409,-10.2165 31.0274,-19.6221 48.1947,-28.9448 10.7868,-5.883 26.2463,-10.0208 44.1572,-12.6973 15.1892,-1.1532 30.0686,2.2803 48.1767,8.8755 13.0379,6.1574 27.3871,14.475 39.1618,19.6992 l 1.8029,-1.5017 2.2531,-0.2822 1.953,1.5062 2.642,-2.0385 0.9622,-0.2014 2.3949,-2.314 0.6165,0.7106 0.6822,-1.2205 1.6374,-0.5103 -0.9214,-3.2029 -1.3559,-1.3852 0.454,-1.3623 -2.9435,-2.049 0.2618,-1.1981 c -10.0864,-6.7655 -20.6516,-13.2254 -32.4314,-19.3515 l -9.9136,-3.8729 -3.0035,-0.4761 -13.5124,-4.9755 -8.6727,-2.315 z"
           inkscape:connector-curvature="0" />
        <path
           id="path14"
           style="fill:#e30016;fill-rule:evenodd"
           d="m 238.8563,440.0609 c 9.2698,-0.7489 28.8993,-5.3889 30.0995,-5.9226 9.7757,-4.3468 24.8755,-11.6779 28.9613,-15.1664 1.6257,-1.3881 3.4851,-3.2766 7.7447,-5.3624 l 4.0967,-3.6785 1.2,-0.2519 8.3089,-7.6311 1.8452,-0.3229 7.1729,-6.9157 13.3555,-11.2063 9.4083,-10.7418 -0.5214,-4.7321 1.5508,-3.793 -5.0575,0.8733 c -0.7572,0.758 -2.2566,1.2066 -2.9139,2.049 -5.5401,7.0977 -11.2809,12.3388 -17.4502,17.3749 -7.8098,6.375 -15.5311,11.6088 -22.9265,16.2668 -12.3248,7.7639 -23.9915,13.4798 -35.4671,16.9172 -19.5613,3.9138 -37.3901,4.0019 -54.2671,-1.6561 -5.5211,-1.8513 -10.6499,-5.2277 -15.8411,-8.9035 -5.3147,-6.2496 -9.4819,-12.3412 -11.8111,-19.0052 18.384,11.5438 38.1922,13.9635 57.1642,12.5082 9.9039,-0.8958 19.6035,-2.8382 29.1564,-5.0704 8.279,-2.0797 16.549,-4.4017 24.8053,-7.0795 l 1.8472,-1.9405 5.7524,-2.6761 5.5687,-2.2374 4.0827,-1.7175 c 0.6874,-0.3469 1.0357,-0.8617 1.7213,-1.175 0.8824,-0.4029 2.0969,-0.612 2.9238,-1.1665 0.4899,-0.3286 0.7757,-1.2075 1.2927,-1.4875 0.5792,-0.3136 1.4663,-0.0687 2.0429,-0.3873 12.1699,-6.7209 23.8666,-14.5352 35.1182,-23.3733 0.5135,-0.4028 0.4435,-1.0733 0.9552,-1.4809 0.2769,-0.2207 0.4934,0.2329 0.7862,0.0183 2.0489,-1.5041 4.4891,-3.5593 6.3997,-5.1747 11.4023,-9.5422 22.5345,-19.3843 32.6473,-30.359 l 7.7858,-7.6957 0.6928,-1.6107 0.5739,0.1135 1.6537,-2.1238 1.0358,-1.2601 -0.4711,-0.892 0.6957,-0.5123 0.2914,-1.0206 -0.4094,-1.9223 0.5014,-1.2991 -0.8407,0.1829 -0.5569,-1.6158 -0.8924,0.7544 -0.6076,-0.5575 -0.3854,0.913 -0.4869,0.2931 -0.4869,0.2934 -2.7398,-0.913 c -0.4746,0.4999 -0.9501,0.9987 -1.4252,1.4958 -0.6403,0.6695 -1.2815,1.3366 -1.9225,2.0002 -0.2729,0.2825 -0.178,-0.7014 -0.4509,-0.4202 -0.3654,0.3775 -0.4407,1.5881 -0.8163,1.9557 -23.7759,23.2309 -47.3163,44.0488 -73.2346,58.2921 -9.5893,4.4909 -19.0856,8.881 -29.3944,12.3319 -10.1151,2.5877 -20.5359,4.799 -30.9716,6.6226 -9.6166,1.7039 -19.0512,2.6648 -28.2195,2.5399 -8.9692,-0.6796 -17.9655,-1.5596 -26.516,-4.8461 -5.3165,-2.4445 -10.5261,-5.0629 -15.3545,-8.303 l -10.3455,-5.5945 c -1.7397,-1.2053 -3.4416,-2.2824 -4.1665,-4.0444 l -2.2475,-1.3336 -0.9413,1.564 -0.7862,-0.0388 -2.2178,3.9448 -0.7858,-1.1139 0.1265,1.967 -2.4367,1.1867 -0.4435,2.1269 -1.0203,0.0141 -0.2894,0.6835 0.2065,1.2797 -0.7275,0.1459 -0.8482,1.8547 0.29,2.0341 -0.917,0.1066 0.4962,1.1365 -0.667,1.1569 -0.6908,-0.8693 -0.3164,0.9558 0.5198,1.4639 -0.6378,0.8582 -0.9439,0.0205 0.511,1.0804 -0.1183,2.5082 0.321,3.3126 0.1974,2.9382 c 2.0246,10.2298 5.7103,19.4811 11.4713,27.4466 8.4665,12.0515 23.7674,20.1812 36.7454,23.5322 1.3416,0.3464 16.8421,1.9662 23.8623,1.4876 z"
           inkscape:connector-curvature="0" />
      </g>
    </g>
  </g>
</svg>
