<?xml version="1.0" encoding="UTF-8" standalone="no"?>
<!-- Created with Inkscape (http://www.inkscape.org/) -->

<svg
   xmlns:dc="http://purl.org/dc/elements/1.1/"
   xmlns:cc="http://creativecommons.org/ns#"
   xmlns:rdf="http://www.w3.org/1999/02/22-rdf-syntax-ns#"
   xmlns:svg="http://www.w3.org/2000/svg"
   xmlns="http://www.w3.org/2000/svg"
   xmlns:sodipodi="http://sodipodi.sourceforge.net/DTD/sodipodi-0.dtd"
   xmlns:inkscape="http://www.inkscape.org/namespaces/inkscape"
   version="1.1"
   id="svg2"
   width="1200"
   height="292"
   viewBox="0 0 1200 292"
   sodipodi:docname="JMK.svg"
   inkscape:version="0.92.2 2405546, 2018-03-11">
  <metadata
     id="metadata8">
    <rdf:RDF>
      <cc:Work
         rdf:about="">
        <dc:format>image/svg+xml</dc:format>
        <dc:type
           rdf:resource="http://purl.org/dc/dcmitype/StillImage" />
        <dc:title></dc:title>
      </cc:Work>
    </rdf:RDF>
  </metadata>
  <defs
     id="defs6" />
  <sodipodi:namedview
     pagecolor="#ffffff"
     bordercolor="#666666"
     borderopacity="1"
     objecttolerance="10"
     gridtolerance="10"
     guidetolerance="10"
     inkscape:pageopacity="0"
     inkscape:pageshadow="2"
     inkscape:window-width="1538"
     inkscape:window-height="758"
     id="namedview4"
     showgrid="false"
     inkscape:zoom="0.55333333"
     inkscape:cx="512.07213"
     inkscape:cy="-116.78838"
     inkscape:window-x="0"
     inkscape:window-y="0"
     inkscape:window-maximized="0"
     inkscape:current-layer="g4532" />
  <g
     id="g4532"
     transform="translate(-93.975899,659.35352)">
    <path
       style="fill:#ffffff"
       d="m 93.975899,-513.35352 v -146 h 600.000001 600 v 146 146 h -600 -600.000001 z"
       id="path4540"
       inkscape:connector-curvature="0" />
    <path
       style="fill:#edca09"
       d="m 148.4759,-415.44823 c -10.0063,-6.497 -17.1232,-11.77037 -17.29946,-12.81831 -0.7291,-4.33466 21.00854,-28.54202 35.04946,-39.03161 3.1625,-2.36261 5.75,-4.73463 5.75,-5.27114 0,-0.53652 -0.84352,-2.16996 -1.8745,-3.62986 -1.03097,-1.4599 -3.45466,-5.80437 -5.38599,-9.65437 -16.40086,-32.69429 -13.4587,-74.98964 7.34774,-105.62848 9.34452,-13.76042 25.78164,-28.23336 40.50737,-35.66688 32.16823,-16.23848 73.95801,-14.23893 103.90538,4.97164 19.37254,12.42704 34.61428,30.67308 42.01873,50.30103 1.24018,3.28752 2.86832,6.28371 3.61807,6.6582 0.74976,0.3745 8.3382,1.15843 16.8632,1.74206 18.20578,1.24641 33.49945,4.44576 47,9.83216 11.71038,4.67216 27,13.00953 27,14.723 0,1.25779 -20.04681,32.83381 -22.4729,35.3974 -1.04015,1.0991 -2.51411,0.69796 -8.48622,-2.30955 -10.09158,-5.08203 -21.07451,-8.98564 -31.04388,-11.03378 -6.84109,-1.40545 -11.42022,-1.63233 -23.497,-1.1642 -17.37038,0.67332 -27.5689,3.04853 -42.10259,9.8056 -7.94817,3.69529 -21.73647,12.65439 -23.60577,15.33811 -1.03552,1.48667 -0.24697,1.93667 10.20836,5.82565 12.05667,4.48461 27.54641,13.02977 27.36772,15.09782 -0.18606,2.15334 -21.49593,34.72219 -23.12877,35.34877 -0.73794,0.28317 -5.70609,-1.53723 -11.04033,-4.04534 -47.38844,-22.2816 -99.90401,-10.54188 -131.82883,29.46998 -3.00024,3.76024 -5.99831,6.82403 -6.66238,6.80842 -0.66408,-0.0156 -8.85741,-4.99546 -18.20741,-11.06632 z m 74.30271,-77.90976 c 4.56649,-1.09474 10.86649,-2.27819 14,-2.62988 3.13351,-0.35169 6.45713,-1.02887 7.38583,-1.50483 0.92869,-0.47597 4.75369,-4.81878 8.5,-9.65069 13.38123,-17.25886 31.83106,-31.8428 53.03333,-41.92097 6.20297,-2.94849 11.27813,-5.57826 11.27813,-5.84392 0,-1.81209 -6.7891,-12.58454 -10.97974,-17.42185 -17.94504,-20.71423 -48.6316,-26.81033 -73.02026,-14.50598 -33.36158,16.83128 -43.86047,56.83494 -23.41475,89.21663 2.15311,3.41008 4.13975,6.2118 4.41475,6.22605 0.275,0.0142 4.23622,-0.86981 8.80271,-1.96456 z m 821.86399,49.3378 c -0.3667,-0.36666 -0.6667,-2.63079 -0.6667,-5.03138 0,-4.62576 0.1384,-4.75441 6.1936,-5.75878 2.4683,-0.4094 3.9023,-1.26994 4.3225,-2.59391 0.3762,-1.18534 -2.2344,-11.26901 -6.4985,-25.101 -3.9201,-12.71585 -6.8839,-23.75436 -6.5862,-24.53 0.4083,-1.06411 2.2,-1.33761 7.2994,-1.11426 l 6.7584,0.296 1.2663,5 c 0.6965,2.75 2.2739,9.275 3.5054,14.5 1.2315,5.225 2.6891,9.41578 3.2391,9.31285 0.55,-0.10293 2.4115,-6.25096 4.1368,-13.66228 1.7252,-7.41132 3.4392,-13.9646 3.809,-14.56285 0.8438,-1.36536 13.2163,-1.44345 14.0536,-0.0887 0.7464,1.20771 -16.7513,54.92961 -19.0177,58.38852 -2.4206,3.69434 -7.45,5.61246 -14.7162,5.61246 -3.5377,0 -6.7322,-0.3 -7.0988,-0.66667 z m 211,0 c -0.3667,-0.36666 -0.6667,-2.58602 -0.6667,-4.9319 0,-3.59778 0.4695,-4.59953 3,-6.40143 l 3,-2.13619 0.015,-24.1819 c 0.01,-13.30005 0.3869,-24.76774 0.8411,-25.48375 0.5734,-0.90406 2.784,-1.20962 7.2347,-1 l 6.4089,0.30184 0.2662,27.31475 c 0.2984,30.62159 -0.062,32.67391 -6.2446,35.60798 -3.3095,1.57044 -12.5854,2.1801 -13.8549,0.9106 z m -630.6667,-15.2728 c -7.8635,-1.59399 -16.28071,-8.0359 -17.49267,-13.3876 -2.24246,-9.90208 -2.4174,-11.87415 -1.48806,-16.77455 2.58736,-13.64309 10.96032,-19.99598 26.47218,-20.08547 15.56001,-0.0898 25.36186,10.989 24.30415,27.47032 -1.10433,17.20785 -13.93333,26.39811 -31.7956,22.7773 z m 13.35072,-13.68397 c 7.34792,-7.34792 4.34935,-23.21659 -4.70812,-24.91579 -9.91162,-1.85943 -16.52601,8.96942 -12.51195,20.48416 2.37121,6.80207 12.29557,9.35613 17.22007,4.43163 z m 127.4289,13.67067 c -6.38399,-1.24023 -12.88077,-6.00286 -15.72325,-11.52632 -2.14963,-4.17715 -2.5534,-6.30933 -2.55476,-13.49108 -0.001,-7.49134 0.33081,-9.0953 2.72878,-13.17443 5.25761,-8.94362 11.37074,-12.04735 23.73636,-12.05131 15.29419,-0.005 24.5137,9.69048 24.43467,25.69591 -0.0567,11.4896 -5.45739,19.88065 -15.12326,23.49712 -5.43614,2.03392 -10.78287,2.35478 -17.49854,1.05011 z m 13.10351,-12.67792 c 7.41554,-5.19405 6.49756,-21.31266 -1.42907,-25.09261 -9.30667,-4.43804 -18.15029,5.18994 -15.52824,16.90547 1.85196,8.27469 10.71971,12.55612 16.95731,8.18714 z m 71.85739,12.20138 c -4.82323,-1.72112 -6.19599,-2.90341 -8.14841,-7.01782 -3.15198,-6.64231 -1.41336,-13.29922 4.68911,-17.95379 2.00127,-1.52645 6.9802,-3.40138 12.75105,-4.8017 8.12273,-1.97101 9.51198,-2.60828 9.77922,-4.48589 0.17662,-1.24086 -0.61867,-3.11867 -1.83666,-4.33666 -2.62672,-2.62672 -6.37321,-2.01677 -9.7653,1.58985 -1.87175,1.99012 -3.26614,2.43532 -7.62755,2.43532 -6.83495,0 -8.25454,-1.45457 -6.20557,-6.35845 4.5152,-10.80639 30.54611,-11.93812 37.7574,-1.64155 1.49906,2.14042 1.79283,5.37666 2.04242,22.5 l 0.29153,20 -5.3432,0.30605 c -3.83778,0.21982 -5.84315,-0.14639 -7.11764,-1.29979 -1.63336,-1.47817 -2.25817,-1.44287 -7.85913,0.44395 -7.0522,2.37572 -8.32352,2.43455 -13.40727,0.62048 z m 15.95761,-12.7704 c 2.49213,-2.32584 3.97911,-7.52305 2.55879,-8.94337 -1.34976,-1.34976 -12.0231,2.83768 -13.29619,5.21646 -1.12833,2.1083 0.0455,5.34517 2.27781,6.28131 2.05982,0.8638 6.10615,-0.358 8.45959,-2.5544 z m 86.59841,13.20037 c -4.81963,-1.00954 -7.46019,-2.25429 -12.05218,-5.68134 -3.76635,-2.81086 -3.35782,-4.67821 1.83195,-8.37366 l 3.08038,-2.19342 5.45553,2.76024 c 8.51915,4.3103 16.94985,3.336 16.18604,-1.87056 -0.24575,-1.67517 -1.9173,-2.42856 -9.49487,-4.27947 -10.27945,-2.51088 -13.72959,-4.35216 -15.8545,-8.46129 -3.92578,-7.59161 0.35842,-17.12517 9.22695,-20.53264 6.30191,-2.42132 15.16612,-2.19731 22.48306,0.56818 7.98429,3.01773 8.86811,4.3819 5.27126,8.1362 -3.69962,3.86156 -6.56095,4.54273 -9.89788,2.35629 -3.15114,-2.0647 -10.89845,-2.46195 -12.70936,-0.65167 -1.98114,1.98046 0.25154,4.56185 4.77736,5.52351 7.81239,1.66 13.97058,3.93202 17.11846,6.31571 5.70754,4.32197 6.29516,13.28199 1.28849,19.64693 -4.29824,5.46433 -17.22325,8.72429 -26.71069,6.73699 z m 263.20346,0.0904 c -4.7915,-1.19342 -7.4145,-3.30142 -9.5275,-7.6568 -2.3432,-4.82985 -2.4592,-7.33372 -0.5512,-11.90011 1.9923,-4.76842 7.7205,-8.17628 18.1372,-10.79031 8.2985,-2.08251 8.9638,-2.4371 9.2519,-4.93124 0.2276,-1.97074 -0.3594,-3.12621 -2.2011,-4.33293 -3,-1.96571 -5.766,-1.30187 -8.9692,2.15262 -2.0279,2.18701 -2.9922,2.44193 -8.2188,2.17271 -5.6848,-0.29284 -5.9343,-0.41902 -6.2478,-3.15917 -0.4026,-3.51968 2.7059,-7.16172 8.3265,-9.75581 5.9796,-2.75976 17.7266,-2.57967 23.4796,0.35996 8.2399,4.2104 8.5204,5.11806 8.5204,27.57075 v 19.67925 l -5.7621,0.30026 c -4.4757,0.23323 -5.8949,-0.0458 -6.357,-1.25 -0.7366,-1.91964 -2.2354,-1.95596 -5.9773,-0.14487 -3.8196,1.84874 -10.1618,2.61767 -13.9036,1.68569 z m 12.5105,-11.75635 c 4.0532,-2.39428 6.6404,-9.19639 4.096,-10.76892 -1.2206,-0.75437 -9.0913,2.11041 -11.3069,4.11551 -2.2927,2.07492 -2.3191,5.91674 -0.05,7.23858 2.4785,1.4436 4.039,1.31784 7.2605,-0.58517 z m -744.7605,10.56487 c -1.29147,-1.3427 -1.70671,-8.54585 -0.6512,-11.29646 0.37393,-0.97443 2.43286,-1.80374 5.48256,-2.2083 2.68606,-0.35632 5.33327,-1.1895 5.8827,-1.85151 0.5863,-0.70645 1.10985,-11.08438 1.26744,-25.12348 l 0.2685,-23.91983 h 8 8 v 28.17818 c 0,27.01558 -0.0862,28.29461 -2.08993,31 -1.14947,1.552 -3.36261,3.44513 -4.9181,4.20695 -4.00279,1.96042 -19.61495,2.70601 -21.24197,1.01445 z m 41.45762,0.47471 c -0.38919,-0.38919 -0.70762,-11.42405 -0.70762,-24.5219 v -23.81429 l 2.31627,-0.58134 c 1.27395,-0.31974 4.53645,-0.44082 7.25,-0.26905 l 4.93373,0.31229 v 24.5 24.5 l -6.54238,0.29096 c -3.5983,0.16002 -6.8608,-0.0275 -7.25,-0.41667 z m 27.4004,-0.74414 c -0.80871,-0.97443 -1.06055,-10.42794 -0.87245,-32.75 l 0.26443,-31.38015 h 7 7 l 0.28621,9.75 c 0.15742,5.3625 0.70904,9.75 1.22583,9.75 0.51679,0 2.413,-0.89832 4.21379,-1.99626 4.34422,-2.64867 12.167,-2.67135 16.46984,-0.0477 6.38396,3.89255 6.77012,5.36636 7.12894,27.20876 l 0.3246,19.75969 -2.40482,0.60357 c -1.32265,0.33196 -4.39372,0.46146 -6.8246,0.28777 l -4.41979,-0.31583 -0.59772,-16.27346 c -0.55957,-15.23464 -0.74624,-16.43154 -2.92432,-18.75 -3.60901,-3.84162 -8.05209,-3.16766 -10.51495,1.59498 -1.08461,2.09741 -1.46301,6.54065 -1.46301,17.17882 0,9.82751 -0.37817,14.72783 -1.2,15.54966 -1.67371,1.67371 -11.26853,1.54531 -12.69198,-0.16985 z m 114.34124,0.0982 c -0.26839,-0.6994 -0.36677,-11.6119 -0.21862,-24.25 l 0.26936,-22.97835 5.97208,-0.30653 c 4.57178,-0.23466 6.246,0.0681 7.14031,1.29112 1.05705,1.4456 1.56526,1.39071 5.33989,-0.57674 3.41413,-1.77954 5.25645,-2.07602 10.14544,-1.63271 3.28558,0.29793 7.06686,1.2579 8.40285,2.13327 3.06319,2.00709 4.93567,2.00709 7.99886,0 3.84018,-2.51618 13.45413,-2.99881 17.8819,-0.8977 6.27099,2.97578 6.69558,4.81847 6.38941,27.72973 l -0.27074,20.25956 h -6.5 -6.5 l -0.5,-17.0998 c -0.55211,-18.88209 -1.0334,-20.4002 -6.46746,-20.4002 -6.21131,0 -6.96931,2.09831 -7.53254,20.85182 l -0.5,16.64818 h -6.5 -6.5 l -0.58563,-17 c -0.3221,-9.35 -0.6596,-17.08036 -0.75,-17.17857 -3.92968,-4.26926 -8.07196,-4.52566 -11.09179,-0.68657 -1.89762,2.41243 -2.07258,3.96511 -2.07258,18.39301 0,17.76902 0.38094,16.97213 -8.11317,16.97213 -3.08211,0 -5.13371,-0.47979 -5.43757,-1.27164 z m 141,0 c -0.26839,-0.6994 -0.36677,-11.6119 -0.21862,-24.25 l 0.26936,-22.97835 5.97208,-0.30653 c 4.68835,-0.24064 6.23674,0.0554 7.2033,1.37726 1.14508,1.56599 1.51578,1.56994 5.29816,0.0565 2.23681,-0.89499 5.18283,-1.62726 6.5467,-1.62726 2.33226,0 2.47976,0.31987 2.47976,5.37756 0,5.80768 -0.77387,6.94067 -5.5,8.05228 -1.65,0.38808 -4.0125,1.3605 -5.25,2.16094 -2.16617,1.4011 -2.25,2.00591 -2.25,16.23227 0,10.15985 -0.37494,15.15189 -1.2,15.97695 -1.64455,1.64455 -12.71498,1.58515 -13.35074,-0.0716 z m 98.19067,-0.93386 c -1.66626,-2.61062 -14.63993,-42.61348 -14.63993,-45.14058 0,-1.38012 1.15214,-1.65391 6.95986,-1.65391 h 6.95986 l 1.04538,3.75 c 0.57496,2.0625 2.28698,8.83909 3.80448,15.05908 1.5175,6.22 3.1999,11.30752 3.73867,11.30561 0.53876,-0.002 2.42331,-6.33669 4.18788,-14.07727 1.76457,-7.74058 3.48137,-14.5156 3.81511,-15.0556 0.75038,-1.21415 13.16666,-1.31201 13.90977,-0.10963 0.29648,0.47971 -2.93947,11.39221 -7.19098,24.25 l -7.73003,23.37781 -6.69779,0.2945 c -6.05834,0.26638 -6.83761,0.0754 -8.16228,-2 z m 86.59578,1.39694 c -0.98471,-0.64423 -1.20585,-7.8886 -1,-32.75929 l 0.26429,-31.93214 6.75,-0.29569 6.75,-0.29569 v 14.98667 c 0,10.32383 0.3623,15.2106 1.1645,15.70638 0.7085,0.4379 3.796,-2.08409 7.8852,-6.44098 l 6.7207,-7.16069 h 7.6148 c 5.5244,0 7.6148,0.35174 7.6148,1.2813 0,0.70472 -2.7327,3.96722 -6.0726,7.25 -3.3399,3.28279 -6.5127,6.76928 -7.0507,7.74778 -0.7777,1.41446 0.7876,4.66468 7.6377,15.859 4.7388,7.74397 8.3757,14.70588 8.0821,15.47093 -0.6052,1.5772 -12.12,1.97916 -14.4474,0.50433 -0.7429,-0.47083 -3.6679,-4.81729 -6.5,-9.65881 -2.832,-4.84152 -5.6435,-8.96421 -6.2477,-9.16152 -0.6043,-0.19732 -2.153,0.49498 -3.4416,1.53843 -1.9863,1.60844 -2.4279,3.09742 -2.9014,9.78288 l -0.5584,7.88568 -5.5,0.2593 c -3.025,0.14261 -6.06893,-0.11293 -6.76429,-0.56786 z m 125.23679,-0.40258 c -0.2759,-0.71899 -0.3826,-15.47812 -0.2371,-32.79806 l 0.2646,-31.49079 6.75,-0.29569 6.75,-0.29569 v 14.98667 c 0,10.56641 0.3535,15.20513 1.1984,15.72732 0.7552,0.46676 3.6276,-1.91507 7.7675,-6.44098 l 6.5692,-7.18163 h 7.7324 c 5.6201,0 7.7325,0.35003 7.7325,1.2813 0,0.70472 -2.7327,3.96722 -6.0726,7.25 -3.3399,3.28279 -6.5138,6.77129 -7.0531,7.75223 -0.7806,1.41991 0.7742,4.65941 7.6261,15.88926 4.7337,7.75815 8.3717,14.71806 8.0845,15.46647 -0.6829,1.77965 -12.5728,1.8689 -14.7519,0.11074 -0.852,-0.6875 -3.8932,-5.1875 -6.7582,-10 -2.865,-4.8125 -5.7841,-8.75 -6.4869,-8.75 -3.1259,0 -5.0849,4.15456 -5.5879,11.85054 l -0.5,7.64946 -6.2629,0.29805 c -4.4573,0.21212 -6.4076,-0.0788 -6.7646,-1.00919 z m 54.6309,-0.16433 c -0.8002,-0.96406 -1.0611,-8.21726 -0.8725,-24.25 l 0.2691,-22.87452 6.3529,-0.30039 c 5.0977,-0.24103 6.6026,0.041 7.6163,1.42739 1.1881,1.62482 1.474,1.62783 4.7982,0.0504 1.9442,-0.92256 4.7258,-1.67739 6.1814,-1.67739 2.6091,0 2.6424,0.0877 2.3489,6.18844 l -0.2977,6.18844 -4.9807,1.2668 c -2.7394,0.69674 -5.5519,2.04795 -6.25,3.00269 -0.8837,1.2086 -1.2693,6.02155 -1.2693,15.84476 0,9.64023 -0.3801,14.48894 -1.2,15.30887 -1.6775,1.67754 -11.2688,1.54499 -12.6966,-0.17547 z m -647.68377,-54.97336 c -0.30409,-0.79246 -0.41041,-3.17566 -0.23626,-5.296 l 0.31663,-3.85516 7.30382,-0.2949 7.30381,-0.29489 -0.30381,5.29489 -0.30382,5.2949 -6.76373,0.296 c -5.16791,0.22617 -6.89418,-0.0439 -7.31664,-1.14484 z m 533.58037,-0.0683 c 0,-0.77941 0.884,-3.47941 1.9645,-6 l 1.9644,-4.58291 h 7.5356 c 4.1445,0 7.5355,0.35287 7.5355,0.78416 0,0.43129 -2.3767,3.13129 -5.2815,6 -4.6871,4.62888 -5.7561,5.21584 -9.5,5.21584 -2.9734,0 -4.2185,-0.41825 -4.2185,-1.41709 z m 202.441,-0.96208 c -0.3285,-1.30854 -0.4495,-3.67104 -0.2691,-5.25 0.3234,-2.82997 0.4295,-2.87498 7.4553,-3.16216 8.0235,-0.32797 8.2882,-0.10019 7.6019,6.54133 l -0.4392,4.25 h -6.8759 c -6.4072,0 -6.9166,-0.16218 -7.473,-2.37917 z"
       id="path4538"
       inkscape:connector-curvature="0" />
    <path
       style="fill:#0a5598"
       d="m 148.4759,-415.44823 c -10.0063,-6.497 -17.1232,-11.77037 -17.29946,-12.81831 -0.7348,-4.36857 20.84403,-28.34274 35.29946,-39.21784 18.90356,-14.22151 47.96342,-25.99756 70.35285,-28.50939 3.10593,-0.34844 6.40699,-1.02297 7.33569,-1.49893 0.92869,-0.47597 4.75369,-4.81878 8.5,-9.65069 23.37123,-30.14376 58.77324,-49.75445 100.59889,-55.72604 28.92497,-4.12971 63.41418,2.63709 90.96257,17.84689 4.8125,2.65704 8.75,5.40283 8.75,6.10175 0,1.25779 -20.04681,32.83381 -22.4729,35.3974 -1.04015,1.0991 -2.51411,0.69796 -8.48622,-2.30955 -10.09158,-5.08203 -21.07451,-8.98564 -31.04388,-11.03378 -6.84109,-1.40545 -11.42022,-1.63233 -23.497,-1.1642 -17.37038,0.67332 -27.5689,3.04853 -42.10259,9.8056 -7.94817,3.69529 -21.73647,12.65439 -23.60577,15.33811 -1.03552,1.48667 -0.24697,1.93667 10.20836,5.82565 12.05667,4.48461 27.54641,13.02977 27.36772,15.09782 -0.18606,2.15334 -21.49593,34.72219 -23.12877,35.34877 -0.73794,0.28317 -5.70609,-1.53723 -11.04033,-4.04534 -47.38844,-22.2816 -99.90401,-10.54188 -131.82883,29.46998 -3.00024,3.76024 -5.99831,6.82403 -6.66238,6.80842 -0.66408,-0.0156 -8.85741,-4.99546 -18.20741,-11.06632 z m 896.1667,-28.57196 c -0.3667,-0.36666 -0.6667,-2.63079 -0.6667,-5.03138 0,-4.62576 0.1384,-4.75441 6.1936,-5.75878 2.4683,-0.4094 3.9023,-1.26994 4.3225,-2.59391 0.3762,-1.18534 -2.2344,-11.26901 -6.4985,-25.101 -3.9201,-12.71585 -6.8839,-23.75436 -6.5862,-24.53 0.4083,-1.06411 2.2,-1.33761 7.2994,-1.11426 l 6.7584,0.296 1.2663,5 c 0.6965,2.75 2.2739,9.275 3.5054,14.5 1.2315,5.225 2.6891,9.41578 3.2391,9.31285 0.55,-0.10293 2.4115,-6.25096 4.1368,-13.66228 1.7252,-7.41132 3.4392,-13.9646 3.809,-14.56285 0.8438,-1.36536 13.2163,-1.44345 14.0536,-0.0887 0.7464,1.20771 -16.7513,54.92961 -19.0177,58.38852 -2.4206,3.69434 -7.45,5.61246 -14.7162,5.61246 -3.5377,0 -6.7322,-0.3 -7.0988,-0.66667 z m 211,0 c -0.3667,-0.36666 -0.6667,-2.58602 -0.6667,-4.9319 0,-3.59778 0.4695,-4.59953 3,-6.40143 l 3,-2.13619 0.015,-24.1819 c 0.01,-13.30005 0.3869,-24.76774 0.8411,-25.48375 0.5734,-0.90406 2.784,-1.20962 7.2347,-1 l 6.4089,0.30184 0.2662,27.31475 c 0.2984,30.62159 -0.062,32.67391 -6.2446,35.60798 -3.3095,1.57044 -12.5854,2.1801 -13.8549,0.9106 z m -630.6667,-15.2728 c -7.8635,-1.59399 -16.28071,-8.0359 -17.49267,-13.3876 -2.24246,-9.90208 -2.4174,-11.87415 -1.48806,-16.77455 2.58736,-13.64309 10.96032,-19.99598 26.47218,-20.08547 15.56001,-0.0898 25.36186,10.989 24.30415,27.47032 -1.10433,17.20785 -13.93333,26.39811 -31.7956,22.7773 z m 13.35072,-13.68397 c 7.34792,-7.34792 4.34935,-23.21659 -4.70812,-24.91579 -9.91162,-1.85943 -16.52601,8.96942 -12.51195,20.48416 2.37121,6.80207 12.29557,9.35613 17.22007,4.43163 z m 127.4289,13.67067 c -6.38399,-1.24023 -12.88077,-6.00286 -15.72325,-11.52632 -2.14963,-4.17715 -2.5534,-6.30933 -2.55476,-13.49108 -0.001,-7.49134 0.33081,-9.0953 2.72878,-13.17443 5.25761,-8.94362 11.37074,-12.04735 23.73636,-12.05131 15.29419,-0.005 24.5137,9.69048 24.43467,25.69591 -0.0567,11.4896 -5.45739,19.88065 -15.12326,23.49712 -5.43614,2.03392 -10.78287,2.35478 -17.49854,1.05011 z m 13.10351,-12.67792 c 7.41554,-5.19405 6.49756,-21.31266 -1.42907,-25.09261 -9.30667,-4.43804 -18.15029,5.18994 -15.52824,16.90547 1.85196,8.27469 10.71971,12.55612 16.95731,8.18714 z m 71.85739,12.20138 c -4.82323,-1.72112 -6.19599,-2.90341 -8.14841,-7.01782 -3.15198,-6.64231 -1.41336,-13.29922 4.68911,-17.95379 2.00127,-1.52645 6.9802,-3.40138 12.75105,-4.8017 8.12273,-1.97101 9.51198,-2.60828 9.77922,-4.48589 0.17662,-1.24086 -0.61867,-3.11867 -1.83666,-4.33666 -2.62672,-2.62672 -6.37321,-2.01677 -9.7653,1.58985 -1.87175,1.99012 -3.26614,2.43532 -7.62755,2.43532 -6.83495,0 -8.25454,-1.45457 -6.20557,-6.35845 4.5152,-10.80639 30.54611,-11.93812 37.7574,-1.64155 1.49906,2.14042 1.79283,5.37666 2.04242,22.5 l 0.29153,20 -5.3432,0.30605 c -3.83778,0.21982 -5.84315,-0.14639 -7.11764,-1.29979 -1.63336,-1.47817 -2.25817,-1.44287 -7.85913,0.44395 -7.0522,2.37572 -8.32352,2.43455 -13.40727,0.62048 z m 15.95761,-12.7704 c 2.49213,-2.32584 3.97911,-7.52305 2.55879,-8.94337 -1.34976,-1.34976 -12.0231,2.83768 -13.29619,5.21646 -1.12833,2.1083 0.0455,5.34517 2.27781,6.28131 2.05982,0.8638 6.10615,-0.358 8.45959,-2.5544 z m 86.59841,13.20037 c -4.81963,-1.00954 -7.46019,-2.25429 -12.05218,-5.68134 -3.76635,-2.81086 -3.35782,-4.67821 1.83195,-8.37366 l 3.08038,-2.19342 5.45553,2.76024 c 8.51915,4.3103 16.94985,3.336 16.18604,-1.87056 -0.24575,-1.67517 -1.9173,-2.42856 -9.49487,-4.27947 -10.27945,-2.51088 -13.72959,-4.35216 -15.8545,-8.46129 -3.92578,-7.59161 0.35842,-17.12517 9.22695,-20.53264 6.30191,-2.42132 15.16612,-2.19731 22.48306,0.56818 7.98429,3.01773 8.86811,4.3819 5.27126,8.1362 -3.69962,3.86156 -6.56095,4.54273 -9.89788,2.35629 -3.15114,-2.0647 -10.89845,-2.46195 -12.70936,-0.65167 -1.98114,1.98046 0.25154,4.56185 4.77736,5.52351 7.81239,1.66 13.97058,3.93202 17.11846,6.31571 5.70754,4.32197 6.29516,13.28199 1.28849,19.64693 -4.29824,5.46433 -17.22325,8.72429 -26.71069,6.73699 z m 263.20346,0.0904 c -4.7915,-1.19342 -7.4145,-3.30142 -9.5275,-7.6568 -2.3432,-4.82985 -2.4592,-7.33372 -0.5512,-11.90011 1.9923,-4.76842 7.7205,-8.17628 18.1372,-10.79031 8.2985,-2.08251 8.9638,-2.4371 9.2519,-4.93124 0.2276,-1.97074 -0.3594,-3.12621 -2.2011,-4.33293 -3,-1.96571 -5.766,-1.30187 -8.9692,2.15262 -2.0279,2.18701 -2.9922,2.44193 -8.2188,2.17271 -5.6848,-0.29284 -5.9343,-0.41902 -6.2478,-3.15917 -0.4026,-3.51968 2.7059,-7.16172 8.3265,-9.75581 5.9796,-2.75976 17.7266,-2.57967 23.4796,0.35996 8.2399,4.2104 8.5204,5.11806 8.5204,27.57075 v 19.67925 l -5.7621,0.30026 c -4.4757,0.23323 -5.8949,-0.0458 -6.357,-1.25 -0.7366,-1.91964 -2.2354,-1.95596 -5.9773,-0.14487 -3.8196,1.84874 -10.1618,2.61767 -13.9036,1.68569 z m 12.5105,-11.75635 c 4.0532,-2.39428 6.6404,-9.19639 4.096,-10.76892 -1.2206,-0.75437 -9.0913,2.11041 -11.3069,4.11551 -2.2927,2.07492 -2.3191,5.91674 -0.05,7.23858 2.4785,1.4436 4.039,1.31784 7.2605,-0.58517 z m -744.7605,10.56487 c -1.29147,-1.3427 -1.70671,-8.54585 -0.6512,-11.29646 0.37393,-0.97443 2.43286,-1.80374 5.48256,-2.2083 2.68606,-0.35632 5.33327,-1.1895 5.8827,-1.85151 0.5863,-0.70645 1.10985,-11.08438 1.26744,-25.12348 l 0.2685,-23.91983 h 8 8 v 28.17818 c 0,27.01558 -0.0862,28.29461 -2.08993,31 -1.14947,1.552 -3.36261,3.44513 -4.9181,4.20695 -4.00279,1.96042 -19.61495,2.70601 -21.24197,1.01445 z m 41.45762,0.47471 c -0.38919,-0.38919 -0.70762,-11.42405 -0.70762,-24.5219 v -23.81429 l 2.31627,-0.58134 c 1.27395,-0.31974 4.53645,-0.44082 7.25,-0.26905 l 4.93373,0.31229 v 24.5 24.5 l -6.54238,0.29096 c -3.5983,0.16002 -6.8608,-0.0275 -7.25,-0.41667 z m 27.4004,-0.74414 c -0.80871,-0.97443 -1.06055,-10.42794 -0.87245,-32.75 l 0.26443,-31.38015 h 7 7 l 0.28621,9.75 c 0.15742,5.3625 0.70904,9.75 1.22583,9.75 0.51679,0 2.413,-0.89832 4.21379,-1.99626 4.34422,-2.64867 12.167,-2.67135 16.46984,-0.0477 6.38396,3.89255 6.77012,5.36636 7.12894,27.20876 l 0.3246,19.75969 -2.40482,0.60357 c -1.32265,0.33196 -4.39372,0.46146 -6.8246,0.28777 l -4.41979,-0.31583 -0.59772,-16.27346 c -0.55957,-15.23464 -0.74624,-16.43154 -2.92432,-18.75 -3.60901,-3.84162 -8.05209,-3.16766 -10.51495,1.59498 -1.08461,2.09741 -1.46301,6.54065 -1.46301,17.17882 0,9.82751 -0.37817,14.72783 -1.2,15.54966 -1.67371,1.67371 -11.26853,1.54531 -12.69198,-0.16985 z m 114.34124,0.0982 c -0.26839,-0.6994 -0.36677,-11.6119 -0.21862,-24.25 l 0.26936,-22.97835 5.97208,-0.30653 c 4.57178,-0.23466 6.246,0.0681 7.14031,1.29112 1.05705,1.4456 1.56526,1.39071 5.33989,-0.57674 3.41413,-1.77954 5.25645,-2.07602 10.14544,-1.63271 3.28558,0.29793 7.06686,1.2579 8.40285,2.13327 3.06319,2.00709 4.93567,2.00709 7.99886,0 3.84018,-2.51618 13.45413,-2.99881 17.8819,-0.8977 6.27099,2.97578 6.69558,4.81847 6.38941,27.72973 l -0.27074,20.25956 h -6.5 -6.5 l -0.5,-17.0998 c -0.55211,-18.88209 -1.0334,-20.4002 -6.46746,-20.4002 -6.21131,0 -6.96931,2.09831 -7.53254,20.85182 l -0.5,16.64818 h -6.5 -6.5 l -0.58563,-17 c -0.3221,-9.35 -0.6596,-17.08036 -0.75,-17.17857 -3.92968,-4.26926 -8.07196,-4.52566 -11.09179,-0.68657 -1.89762,2.41243 -2.07258,3.96511 -2.07258,18.39301 0,17.76902 0.38094,16.97213 -8.11317,16.97213 -3.08211,0 -5.13371,-0.47979 -5.43757,-1.27164 z m 141,0 c -0.26839,-0.6994 -0.36677,-11.6119 -0.21862,-24.25 l 0.26936,-22.97835 5.97208,-0.30653 c 4.68835,-0.24064 6.23674,0.0554 7.2033,1.37726 1.14508,1.56599 1.51578,1.56994 5.29816,0.0565 2.23681,-0.89499 5.18283,-1.62726 6.5467,-1.62726 2.33226,0 2.47976,0.31987 2.47976,5.37756 0,5.80768 -0.77387,6.94067 -5.5,8.05228 -1.65,0.38808 -4.0125,1.3605 -5.25,2.16094 -2.16617,1.4011 -2.25,2.00591 -2.25,16.23227 0,10.15985 -0.37494,15.15189 -1.2,15.97695 -1.64455,1.64455 -12.71498,1.58515 -13.35074,-0.0716 z m 98.19067,-0.93386 c -1.66626,-2.61062 -14.63993,-42.61348 -14.63993,-45.14058 0,-1.38012 1.15214,-1.65391 6.95986,-1.65391 h 6.95986 l 1.04538,3.75 c 0.57496,2.0625 2.28698,8.83909 3.80448,15.05908 1.5175,6.22 3.1999,11.30752 3.73867,11.30561 0.53876,-0.002 2.42331,-6.33669 4.18788,-14.07727 1.76457,-7.74058 3.48137,-14.5156 3.81511,-15.0556 0.75038,-1.21415 13.16666,-1.31201 13.90977,-0.10963 0.29648,0.47971 -2.93947,11.39221 -7.19098,24.25 l -7.73003,23.37781 -6.69779,0.2945 c -6.05834,0.26638 -6.83761,0.0754 -8.16228,-2 z m 86.59578,1.39694 c -0.98471,-0.64423 -1.20585,-7.8886 -1,-32.75929 l 0.26429,-31.93214 6.75,-0.29569 6.75,-0.29569 v 14.98667 c 0,10.32383 0.3623,15.2106 1.1645,15.70638 0.7085,0.4379 3.796,-2.08409 7.8852,-6.44098 l 6.7207,-7.16069 h 7.6148 c 5.5244,0 7.6148,0.35174 7.6148,1.2813 0,0.70472 -2.7327,3.96722 -6.0726,7.25 -3.3399,3.28279 -6.5127,6.76928 -7.0507,7.74778 -0.7777,1.41446 0.7876,4.66468 7.6377,15.859 4.7388,7.74397 8.3757,14.70588 8.0821,15.47093 -0.6052,1.5772 -12.12,1.97916 -14.4474,0.50433 -0.7429,-0.47083 -3.6679,-4.81729 -6.5,-9.65881 -2.832,-4.84152 -5.6435,-8.96421 -6.2477,-9.16152 -0.6043,-0.19732 -2.153,0.49498 -3.4416,1.53843 -1.9863,1.60844 -2.4279,3.09742 -2.9014,9.78288 l -0.5584,7.88568 -5.5,0.2593 c -3.025,0.14261 -6.06893,-0.11293 -6.76429,-0.56786 z m 125.23679,-0.40258 c -0.2759,-0.71899 -0.3826,-15.47812 -0.2371,-32.79806 l 0.2646,-31.49079 6.75,-0.29569 6.75,-0.29569 v 14.98667 c 0,10.56641 0.3535,15.20513 1.1984,15.72732 0.7552,0.46676 3.6276,-1.91507 7.7675,-6.44098 l 6.5692,-7.18163 h 7.7324 c 5.6201,0 7.7325,0.35003 7.7325,1.2813 0,0.70472 -2.7327,3.96722 -6.0726,7.25 -3.3399,3.28279 -6.5138,6.77129 -7.0531,7.75223 -0.7806,1.41991 0.7742,4.65941 7.6261,15.88926 4.7337,7.75815 8.3717,14.71806 8.0845,15.46647 -0.6829,1.77965 -12.5728,1.8689 -14.7519,0.11074 -0.852,-0.6875 -3.8932,-5.1875 -6.7582,-10 -2.865,-4.8125 -5.7841,-8.75 -6.4869,-8.75 -3.1259,0 -5.0849,4.15456 -5.5879,11.85054 l -0.5,7.64946 -6.2629,0.29805 c -4.4573,0.21212 -6.4076,-0.0788 -6.7646,-1.00919 z m 54.6309,-0.16433 c -0.8002,-0.96406 -1.0611,-8.21726 -0.8725,-24.25 l 0.2691,-22.87452 6.3529,-0.30039 c 5.0977,-0.24103 6.6026,0.041 7.6163,1.42739 1.1881,1.62482 1.474,1.62783 4.7982,0.0504 1.9442,-0.92256 4.7258,-1.67739 6.1814,-1.67739 2.6091,0 2.6424,0.0877 2.3489,6.18844 l -0.2977,6.18844 -4.9807,1.2668 c -2.7394,0.69674 -5.5519,2.04795 -6.25,3.00269 -0.8837,1.2086 -1.2693,6.02155 -1.2693,15.84476 0,9.64023 -0.3801,14.48894 -1.2,15.30887 -1.6775,1.67754 -11.2688,1.54499 -12.6966,-0.17547 z m -647.68377,-54.97336 c -0.30409,-0.79246 -0.41041,-3.17566 -0.23626,-5.296 l 0.31663,-3.85516 7.30382,-0.2949 7.30381,-0.29489 -0.30381,5.29489 -0.30382,5.2949 -6.76373,0.296 c -5.16791,0.22617 -6.89418,-0.0439 -7.31664,-1.14484 z m 533.58037,-0.0683 c 0,-0.77941 0.884,-3.47941 1.9645,-6 l 1.9644,-4.58291 h 7.5356 c 4.1445,0 7.5355,0.35287 7.5355,0.78416 0,0.43129 -2.3767,3.13129 -5.2815,6 -4.6871,4.62888 -5.7561,5.21584 -9.5,5.21584 -2.9734,0 -4.2185,-0.41825 -4.2185,-1.41709 z m 202.441,-0.96208 c -0.3285,-1.30854 -0.4495,-3.67104 -0.2691,-5.25 0.3234,-2.82997 0.4295,-2.87498 7.4553,-3.16216 8.0235,-0.32797 8.2882,-0.10019 7.6019,6.54133 l -0.4392,4.25 h -6.8759 c -6.4072,0 -6.9166,-0.16218 -7.473,-2.37917 z"
       id="path4536"
       inkscape:connector-curvature="0" />
    <path
       style="fill:#05974a"
       d="m 180.9759,-476.84743 c 8.72152,-5.03196 31.79505,-15.04437 32.66495,-14.17447 0.20427,0.20427 -3.34928,1.84016 -7.89678,3.63532 -9.61976,3.79749 -17.98333,7.88075 -25.89898,12.64442 -3.09695,1.86375 -6.24695,3.38576 -7,3.38224 -0.75306,-0.004 2.90581,-2.4729 8.13081,-5.48751 z m 111.5,-16.59186 c -9.03069,-1.93206 -26.40977,-3.91519 -34.43642,-3.92954 -12.5048,-0.0224 -12.64329,-0.30461 -5.00981,-10.21034 22.78892,-29.57247 58.64826,-49.35297 100.23366,-55.29026 28.92497,-4.12971 63.41418,2.63709 90.96257,17.84689 4.8125,2.65704 8.75,5.40283 8.75,6.10175 0,1.25779 -20.04681,32.83381 -22.4729,35.3974 -1.04015,1.0991 -2.51411,0.69796 -8.48622,-2.30955 -10.09158,-5.08203 -21.07451,-8.98564 -31.04388,-11.03378 -12.28059,-2.52296 -34.8869,-1.59162 -47.59959,1.96101 -12.22079,3.41516 -25.17287,9.59691 -34.98692,16.6985 -8.30063,6.00646 -9.05905,6.23374 -15.91049,4.76792 z"
       id="path4534"
       inkscape:connector-curvature="0" />
  </g>
</svg>
