<?xml version="1.0" encoding="UTF-8" standalone="no"?>
<svg
   xmlns:dc="http://purl.org/dc/elements/1.1/"
   xmlns:cc="http://creativecommons.org/ns#"
   xmlns:rdf="http://www.w3.org/1999/02/22-rdf-syntax-ns#"
   xmlns:svg="http://www.w3.org/2000/svg"
   xmlns="http://www.w3.org/2000/svg"
   xmlns:sodipodi="http://sodipodi.sourceforge.net/DTD/sodipodi-0.dtd"
   xmlns:inkscape="http://www.inkscape.org/namespaces/inkscape"
   version="1.1"
   id="svg11440"
   width="880.79999"
   height="286.72"
   viewBox="0 0 880.79999 286.72"
   sodipodi:docname="hack.svg"
   inkscape:version="1.0.2 (e86c870879, 2021-01-15)">
  <metadata
     id="metadata11446">
    <rdf:RDF>
      <cc:Work
         rdf:about="">
        <dc:format>image/svg+xml</dc:format>
        <dc:type
           rdf:resource="http://purl.org/dc/dcmitype/StillImage" />
        <dc:title />
      </cc:Work>
    </rdf:RDF>
  </metadata>
  <defs
     id="defs11444" />
  <sodipodi:namedview
     pagecolor="#ffffff"
     bordercolor="#666666"
     borderopacity="1"
     objecttolerance="10"
     gridtolerance="10"
     guidetolerance="10"
     inkscape:pageopacity="0"
     inkscape:pageshadow="2"
     inkscape:window-width="1920"
     inkscape:window-height="1011"
     id="namedview11442"
     showgrid="false"
     inkscape:zoom="0.40128806"
     inkscape:cx="536.73457"
     inkscape:cy="229.42898"
     inkscape:window-x="0"
     inkscape:window-y="0"
     inkscape:window-maximized="1"
     inkscape:current-layer="g11448"
     inkscape:document-rotation="0" />
  <g
     inkscape:groupmode="layer"
     inkscape:label="Image"
     id="g11448">
    <path
       style="fill:#e03a35;stroke-width:0.08;fill-opacity:1"
       d="m 438.92,286.6375 c -3.20871,-0.18075 -5.78964,-0.55182 -8.4,-1.20771 -2.06818,-0.51965 -2.48639,-0.65323 -4.35938,-1.39238 -2.79772,-1.1041 -5.22006,-2.42403 -7.24062,-3.94543 -1.94121,-1.46165 -3.08048,-2.50724 -4.53494,-4.16206 -2.74817,-3.12674 -4.6227,-6.43445 -6.17149,-10.88992 -0.54872,-1.57852 -0.9565,-3.39967 -1.38829,-6.2 -0.21523,-1.39587 -0.22188,-1.53562 -0.21701,-4.56 0.003,-1.85194 0.0453,-3.52643 0.10424,-4.12 0.23993,-2.41817 1.05673,-6.47738 1.77879,-8.84 0.49053,-1.60503 1.74113,-4.59488 2.61008,-6.24 1.64222,-3.1091 3.3596,-5.50674 6.20846,-8.66766 2.12155,-2.35395 5.254,-4.83017 8.36012,-6.60872 2.58549,-1.48044 4.7185,-2.4252 7.41004,-3.28207 4.02603,-1.28171 7.37776,-1.86113 11.77365,-2.03533 4.41788,-0.17506 8.87109,0.27128 12.73464,1.2764 2.52797,0.65767 5.57916,1.81368 7.5317,2.85356 2.75196,1.46563 6.00196,3.948 7.98293,6.09742 1.54619,1.67766 2.49078,2.93637 3.81087,5.07815 1.12472,1.8248 1.94935,3.55303 2.61124,5.47259 0.54766,1.58828 1.16763,4.31811 1.45477,6.40557 0.25815,1.87678 0.25995,1.91235 0.25487,5.05009 -0.006,3.55106 -0.0574,4.24894 -0.52404,7.08 -0.81714,4.95732 -2.465,9.61626 -4.82444,13.64 -2.19394,3.7415 -4.62401,6.69917 -7.87046,9.57922 -1.78738,1.58566 -2.58532,2.19168 -4.41574,3.35365 -2.86684,1.81991 -5.16044,2.93967 -8.2792,4.04199 -3.14735,1.11243 -6.18828,1.7538 -9.95732,2.10013 -1.595,0.14656 -4.90073,0.20942 -6.44347,0.12251 z m 6.03999,-16.95128 c 2.82396,-0.42389 5.81978,-1.57456 7.7938,-2.99351 1.26956,-0.91259 2.09651,-1.63507 3.3262,-2.90604 2.52527,-2.61001 3.90152,-4.91861 5.02707,-8.43272 1.34819,-4.2092 1.35165,-9.80543 0.008,-13.45606 -0.56252,-1.52871 -1.43224,-3.12377 -2.38708,-4.37789 -0.77144,-1.01324 -2.40295,-2.60818 -3.28832,-3.2146 -2.53968,-1.73952 -4.98738,-2.62893 -8.11617,-2.94913 -1.81341,-0.18558 -4.39657,-0.0214 -6.36383,0.40447 -3.47739,0.7528 -6.88402,2.72551 -9.556,5.53371 -1.75007,1.83928 -3.44276,4.452 -4.18999,6.46736 -1.05086,2.83425 -1.56155,5.56376 -1.55634,8.31819 0.0101,5.34298 1.21862,9.05358 4.06463,12.48 0.90857,1.09386 2.59123,2.48212 3.84735,3.17423 0.86618,0.47725 2.17772,1.03399 3.23036,1.37127 2.01337,0.64509 5.89215,0.92113 8.15999,0.58072 z m 241.92,16.79272 c -2.83576,-0.33239 -3.83145,-0.50859 -5.4578,-0.9658 -4.3181,-1.21396 -8.35115,-3.4438 -11.84961,-6.55154 -0.52107,-0.46288 -1.05804,-0.9316 -1.19325,-1.0416 -0.28542,-0.23218 -2.6181,-2.78369 -2.67101,-2.92156 -0.0271,-0.0706 9.11829,-13.42694 9.41145,-13.74501 0.0337,-0.0366 0.5426,0.42679 1.13079,1.02977 1.14851,1.1774 2.13089,2.05447 3.67698,3.28279 4.68791,3.72442 9.97926,5.20744 14.50797,4.0662 0.57195,-0.14413 1.04469,-0.33382 1.63551,-0.65627 0.70998,-0.38747 0.93168,-0.56148 1.52196,-1.19458 0.59909,-0.64255 0.73536,-0.84474 1.02524,-1.5212 0.64513,-1.50543 0.68117,-2.88436 0.10508,-4.02014 -1.22411,-2.41334 -3.4958,-4.16494 -9.44331,-7.28128 -3.50882,-1.83854 -6.3495,-3.70475 -8.73799,-5.74051 -1.85062,-1.57734 -3.40794,-3.81112 -4.25146,-6.09821 -0.33717,-0.91421 -0.63592,-2.34777 -0.81693,-3.92 -0.26895,-2.33614 0.0126,-5.75758 0.68277,-8.29794 0.2718,-1.03029 1.12396,-3.22734 1.68408,-4.34191 0.86374,-1.71877 2.22076,-3.55408 3.85027,-5.2073 2.01177,-2.04105 3.4631,-3.09834 6.02926,-4.39229 3.32564,-1.67692 6.07394,-2.36097 10.65569,-2.65219 3.5446,-0.22531 7.88438,0.3289 11.14431,1.42316 3.03183,1.01769 6.27127,2.65937 8.85287,4.48642 0.91132,0.64495 2.58713,1.95935 2.58713,2.02917 0,0.0319 -1.73093,3.05775 -3.84649,6.72414 -2.11558,3.6664 -3.87058,6.70841 -3.9,6.76004 -0.035,0.0614 -0.27465,-0.0849 -0.69351,-0.42337 -2.9027,-2.34584 -4.54753,-3.43789 -6.79249,-4.50972 -1.27486,-0.60867 -2.41731,-0.9566 -3.80751,-1.15959 -0.80345,-0.11731 -1.05175,-0.12172 -1.96,-0.0348 -1.91602,0.18336 -3.42993,0.92097 -4.53692,2.21048 -0.50317,0.58612 -0.62111,0.78593 -0.88028,1.49125 -0.52359,1.42495 -0.49458,2.40262 0.10047,3.38607 0.99206,1.6396 3.47743,3.45032 7.48741,5.455 0.53387,0.2669 1.27187,0.66236 1.64,0.87879 0.36813,0.21644 1.26332,0.72548 1.98932,1.13121 1.98821,1.11111 4.1098,2.56428 5.77303,3.95419 2.90194,2.42506 4.2803,4.33491 5.31843,7.36919 0.70687,2.06605 0.97131,3.67224 1.04233,6.33103 0.16824,6.29835 -1.62152,11.58094 -5.40294,15.94711 -0.95772,1.10583 -2.60284,2.56469 -4.21085,3.73412 -1.8408,1.33873 -4.98857,2.85823 -7.32976,3.53822 -2.27941,0.66206 -4.14411,1.02242 -6.91024,1.33544 -1.29673,0.14674 -6.21053,0.2243 -7.16,0.11302 z M 144.68,285.03226 c -0.6543,-0.13788 -5.2372,-1.81259 -5.23918,-1.91452 -8e-4,-0.0233 0.85418,-0.54235 1.89918,-1.15356 6.72077,-3.93093 12.99189,-8.73212 17.82148,-13.64418 4.44233,-4.51819 7.5497,-8.24086 11.25922,-13.48868 3.68855,-5.21815 5.10771,-7.94359 6.50337,-12.48944 0.71434,-2.3267 0.9447,-4.00182 0.93813,-6.82188 -0.005,-2.32648 -0.16495,-3.63922 -0.69892,-5.75144 l -0.29109,-1.15144 -1.30433,-2.28856 c -2.27391,-3.9898 -5.76287,-9.14921 -8.63453,-12.76856 -5.75972,-7.25938 -12.17396,-13.6609 -18.05333,-18.01754 -1.254,-0.92921 -3.14724,-2.3314 -4.2072,-3.11597 -1.05996,-0.78457 -3.74196,-2.79093 -5.96,-4.45859 -2.21804,-1.66764 -4.0424,-3.03924 -4.05414,-3.048 -0.0117,-0.009 0.39304,-0.8043 0.8995,-1.7679 1.73489,-3.30087 3.25498,-6.93111 3.92433,-9.372 0.12368,-0.451 0.25135,-0.82 0.2837,-0.82 0.0324,0 0.0385,-0.0776 0.0137,-0.17251 -0.0328,-0.12561 -0.0176,-0.15551 0.0561,-0.10998 0.0754,0.0466 0.0866,0.0166 0.044,-0.11751 -0.04,-0.12586 -0.0295,-0.16297 0.0346,-0.12331 0.0647,0.04 0.0771,-0.0103 0.0421,-0.16999 -0.0399,-0.18226 -0.0315,-0.20317 0.0433,-0.1067 0.0747,0.0965 0.0832,0.0756 0.0433,-0.1067 -0.0363,-0.1659 -0.0237,-0.21066 0.0471,-0.16688 0.0662,0.0409 0.0809,0.0185 0.0466,-0.071 -0.054,-0.14081 0.1081,-0.93538 0.19087,-0.93538 0.0275,0 0.0341,-0.099 0.0148,-0.22 -0.0281,-0.17603 -0.0173,-0.19602 0.0541,-0.1 0.0688,0.0926 0.0792,0.0469 0.0454,-0.2 -0.0261,-0.19025 -0.018,-0.26103 0.02,-0.17458 0.15022,0.34236 0.98598,-4.30654 1.00326,-5.58061 0.006,-0.42717 0.0326,-0.63659 0.0665,-0.52 0.0312,0.10735 0.0458,-0.21881 0.0324,-0.72481 -0.0172,-0.65108 -0.01,-0.75631 0.0263,-0.36 0.0564,0.62377 0.0397,0.80067 0.25238,-2.68 0.0477,-0.7802 0.0477,-2.12994 3e-5,-3.64 -0.12274,-3.89002 -0.2072,-4.99366 -0.68806,-8.99054 -0.0232,-0.1928 -0.0942,-0.6248 -0.15771,-0.96 -0.0635,-0.3352 -0.17069,-1.00546 -0.23809,-1.48946 -0.0674,-0.484 -0.22801,-1.384 -0.35692,-2 -0.35847,-1.71302 -0.57121,-2.85755 -0.53743,-2.89134 0.0168,-0.0168 1.12511,0.659 2.46293,1.50174 2.62643,1.65449 4.00656,2.4937 4.97616,3.02585 0.33894,0.18601 0.61625,0.36496 0.61625,0.39765 0,0.0327 0.045,0.0597 0.1,0.0601 0.055,0 0.98339,0.49315 2.06309,1.09504 2.46934,1.37655 6.83656,3.47996 10.31691,4.969 10.84122,4.63832 21.78339,8.03859 29.48,9.16088 5.09505,0.74295 10.45479,1.1691 12.22891,0.97232 1.0748,-0.11922 2.0149,-0.39324 2.94155,-0.85742 1.69474,-0.84892 3.08331,-2.11049 3.99967,-3.63384 0.34427,-0.57231 0.37448,-0.67383 0.65471,-2.2 0.42996,-2.34167 0.68237,-4.38542 0.81514,-6.6 0.28271,-4.71558 0.004,-8.69612 -0.92177,-13.14343 -0.30453,-1.46373 -1.69772,-6.81659 -2.44042,-9.37657 -1.90534,-6.56742 -4.97038,-14.96549 -7.45998,-20.44 -0.98878,-2.1743 -4.01355,-8.236048 -4.76482,-9.548888 -0.2483,-0.433896 -0.42823,-0.826456 -0.39986,-0.87236 0.03,-0.04854 0.0129,-0.05958 -0.0408,-0.02639 -0.0825,0.05098 -0.12832,-0.04463 -0.10183,-0.21236 0.005,-0.033 -0.0221,-0.06 -0.0606,-0.06 -0.0385,0 -0.49595,-0.747 -1.0165,-1.66 -0.52056,-0.913 -1.64224,-2.771784 -2.49265,-4.13064 -0.85041,-1.358848 -1.53481,-2.482024 -1.52089,-2.495936 0.0139,-0.01392 1.57213,0.895272 3.4627,2.020424 11.62315,6.917392 25.79452,14.4383 35.15739,18.65842 4.40213,1.98418 14.6022,6.34223 16.16,6.90447 0.726,0.26203 1.33133,0.50744 1.34517,0.54534 0.0138,0.0379 0.0828,0.0468 0.15312,0.0198 0.0899,-0.0345 0.1092,-0.0187 0.0648,0.0531 -0.0468,0.0757 -0.0191,0.0882 0.10688,0.0482 0.0935,-0.0297 0.17002,-0.0232 0.17002,0.0143 0,0.0375 0.063,0.0703 0.14,0.0728 0.077,0.002 0.806,0.23901 1.62,0.52561 0.814,0.2866 2.64095,0.87727 4.05989,1.31261 1.41894,0.43534 2.57994,0.81488 2.58,0.84343 0,0.0697 -1.02279,1.79385 -1.79726,3.02921 -0.34442,0.54939 -0.80991,1.19029 -1.03442,1.42423 -1.16433,1.21318 -2.64289,1.84996 -4.30324,1.85327 -0.89376,0.002 -1.38695,-0.11404 -3.62497,-0.85138 -4.04375,-1.33225 -7.69407,-2.87969 -11.16,-4.73097 -2.96775,-1.58519 -4.61343,-2.61932 -8.68,-5.45447 -0.924,-0.6442 -3.282,-2.28309 -5.24,-3.642 -1.958,-1.35891 -5.486,-3.85661 -7.84,-5.55047 -2.354,-1.69385 -5.108,-3.671366 -6.12,-4.394478 -1.012,-0.72312 -1.894,-1.355272 -1.96,-1.4048 -0.14883,-0.111672 -0.27451,-0.28092 1.44791,1.94996 3.33262,4.316418 6.54726,9.230238 9.39441,14.359998 1.10328,1.9878 3.15915,6.0529 3.10527,6.14008 -0.0288,0.0466 -0.0197,0.0646 0.02,0.0402 0.0982,-0.0604 2.31964,5.02682 3.2749,7.49977 0.42491,1.1 0.81995,2.108 0.87785,2.24 0.20938,0.47735 1.80162,5.39667 2.2398,6.92 1.20453,4.18762 2.1031,7.86518 2.59975,10.64 0.13783,0.77 0.35482,1.976 0.48221,2.68 0.12739,0.704 0.40338,2.45 0.61332,3.88 l 0.3817,2.6 -0.001,3.04 c -0.001,2.68275 -0.0226,3.20452 -0.18196,4.44 -0.38868,3.01451 -1.13463,6.27432 -1.78489,7.8 -1.08151,2.53748 -2.85618,4.84578 -5.08588,6.61516 -1.11503,0.88483 -2.94807,1.63214 -4.87627,1.98799 -1.73624,0.32043 -6.28551,0.39423 -9.74674,0.15809 -5.36966,-0.36632 -12.03114,-1.56834 -16.64,-3.00256 -0.792,-0.24646 -3.006,-0.91221 -4.92,-1.47944 -3.28237,-0.97276 -8.79188,-2.7513 -8.87978,-2.86651 -0.0221,-0.029 -0.0942,-0.0578 -0.16022,-0.0639 -0.12033,-0.0112 -2.76658,-1.02269 -4.64,-1.77351 -2.17251,-0.87071 -6.40966,-2.81452 -8.85095,-4.06044 l -2.57096,-1.3121 -0.0478,0.41863 c -0.0263,0.23024 -0.12199,1.35462 -0.21271,2.49862 -0.19983,2.52008 -0.70767,6.57079 -1.08319,8.64 -0.33912,1.86868 -0.86538,3.96807 -1.43976,5.74363 -0.23907,0.73899 -0.43466,1.37554 -0.43466,1.41454 0,0.039 0.873,0.83795 1.94,1.77545 9.11334,8.00728 17.09907,16.27352 23.90665,24.74638 3.08892,3.84454 4.5035,5.89168 5.97029,8.64 2.24053,4.19811 4.10306,10.27434 4.10306,13.38567 0,1.92264 -0.46315,4.51699 -1.18795,6.65433 -0.71643,2.11266 -1.1137,2.86924 -3.05699,5.8219 -3.52436,5.35497 -7.69348,10.94985 -11.39756,15.29533 -2.39889,2.81428 -5.65454,6.41991 -7.51492,8.32277 -0.7098,0.726 -1.59474,1.63879 -1.96656,2.02843 -0.37181,0.38963 -1.71108,1.69909 -2.97616,2.90989 -2.62828,2.5155 -5.97992,5.37549 -9.34773,7.97646 -1.82728,1.41123 -2.39743,1.80863 -2.91213,2.02982 -1.83516,0.78866 -4.54825,1.10104 -6.32,0.72766 z M 161.05021,276.34 c 0.0995,-0.12689 0.0967,-0.12971 -0.0302,-0.0302 -0.13326,0.10451 -0.17564,0.17021 -0.10979,0.17021 0.0166,0 0.0796,-0.063 0.14,-0.14 z m 42.44812,-113.74834 c -0.0266,-0.0266 -0.0956,-0.0294 -0.15333,-0.006 -0.0638,0.0255 -0.0449,0.0445 0.0483,0.0483 0.0843,0.003 0.13159,-0.0154 0.105,-0.042 z m -1.6,-0.24 c -0.0266,-0.0266 -0.0956,-0.0294 -0.15333,-0.006 -0.0638,0.0255 -0.0449,0.0445 0.0483,0.0483 0.0843,0.003 0.13159,-0.0154 0.105,-0.042 z m -0.56,-0.08 c -0.0266,-0.0266 -0.0956,-0.0294 -0.15333,-0.006 -0.0638,0.0255 -0.0449,0.0445 0.0483,0.0483 0.0843,0.003 0.13159,-0.0154 0.105,-0.042 z m -0.56,-0.08 c -0.0266,-0.0266 -0.0956,-0.0294 -0.15333,-0.006 -0.0638,0.0255 -0.0449,0.0445 0.0483,0.0483 0.0843,0.003 0.13159,-0.0154 0.105,-0.042 z m -0.51833,-0.0846 c -0.055,-0.0222 -0.145,-0.0222 -0.2,0 -0.055,0.0222 -0.01,0.0403 0.1,0.0403 0.11,0 0.155,-0.0182 0.1,-0.0403 z m -0.52167,-0.0754 c -0.0266,-0.0266 -0.0956,-0.0294 -0.15333,-0.006 -0.0638,0.0255 -0.0449,0.0445 0.0483,0.0483 0.0843,0.003 0.13159,-0.0154 0.105,-0.042 z m -0.59833,-0.0846 c -0.055,-0.0222 -0.145,-0.0222 -0.2,0 -0.055,0.0222 -0.01,0.0403 0.1,0.0403 0.11,0 0.155,-0.0182 0.1,-0.0403 z m -0.48,-0.08 c -0.055,-0.0222 -0.145,-0.0222 -0.2,0 -0.055,0.0222 -0.01,0.0403 0.1,0.0403 0.11,0 0.155,-0.0182 0.1,-0.0403 z m -0.56,-0.08 c -0.055,-0.0222 -0.145,-0.0222 -0.2,0 -0.055,0.0222 -0.01,0.0403 0.1,0.0403 0.11,0 0.155,-0.0182 0.1,-0.0403 z m -0.56,-0.08 c -0.055,-0.0222 -0.145,-0.0222 -0.2,0 -0.055,0.0222 -0.01,0.0403 0.1,0.0403 0.11,0 0.155,-0.0182 0.1,-0.0403 z m -0.56,-0.08 c -0.055,-0.0222 -0.145,-0.0222 -0.2,0 -0.055,0.0222 -0.01,0.0404 0.1,0.0404 0.11,0 0.155,-0.0182 0.1,-0.0404 z m -0.47848,-0.0795 c -0.0542,-0.0219 -0.16216,-0.0232 -0.24,-0.003 -0.0778,0.0203 -0.0335,0.0382 0.0985,0.0399 0.132,0.002 0.19569,-0.015 0.14152,-0.0369 z m -0.56,-0.08 c -0.0542,-0.0219 -0.16216,-0.0233 -0.24,-0.003 -0.0778,0.0203 -0.0335,0.0382 0.0985,0.0399 0.132,0.002 0.19569,-0.015 0.14152,-0.0369 z m -0.56152,-0.0805 c -0.055,-0.0222 -0.145,-0.0222 -0.2,0 -0.055,0.0222 -0.01,0.0403 0.1,0.0403 0.11,0 0.155,-0.0182 0.1,-0.0403 z m -0.56,-0.08 c -0.055,-0.0222 -0.145,-0.0222 -0.2,0 -0.055,0.0222 -0.01,0.0404 0.1,0.0404 0.11,0 0.155,-0.0182 0.1,-0.0404 z m -0.56,-0.08 c -0.055,-0.0222 -0.145,-0.0222 -0.2,0 -0.055,0.0222 -0.01,0.0403 0.1,0.0403 0.11,0 0.155,-0.0182 0.1,-0.0403 z m -0.56,-0.08 c -0.055,-0.0222 -0.145,-0.0222 -0.2,0 -0.055,0.0222 -0.01,0.0403 0.1,0.0403 0.11,0 0.155,-0.0182 0.1,-0.0403 z m -0.60167,-0.0754 c -0.0266,-0.0266 -0.0956,-0.0294 -0.15333,-0.006 -0.0638,0.0255 -0.0449,0.0445 0.0483,0.0483 0.0843,0.003 0.13159,-0.0154 0.105,-0.042 z m -7.04,-1.04 c -0.0266,-0.0266 -0.0956,-0.0294 -0.15333,-0.006 -0.0638,0.0255 -0.0449,0.0445 0.0483,0.0483 0.0843,0.003 0.13159,-0.0154 0.105,-0.042 z M 184.42,159.78702 c -0.055,-0.0222 -0.145,-0.0222 -0.2,0 -0.055,0.0222 -0.01,0.0403 0.1,0.0403 0.11,0 0.155,-0.0182 0.1,-0.0403 z m -1.16167,-0.15536 c -0.0266,-0.0266 -0.0956,-0.0294 -0.15333,-0.006 -0.0638,0.0255 -0.0449,0.0445 0.0483,0.0483 0.0843,0.003 0.13159,-0.0154 0.105,-0.042 z m -1.6,-0.24 c -0.0266,-0.0266 -0.0956,-0.0294 -0.15333,-0.006 -0.0638,0.0255 -0.0449,0.0445 0.0483,0.0483 0.0843,0.003 0.13159,-0.0154 0.105,-0.042 z M 205.76,284.84285 c 0,-0.0204 8.9048,-12.10743 19.78845,-26.86 L 245.3369,231.16 232.10845,231.1398 c -9.3608,-0.0143 -13.22845,-0.0454 -13.22845,-0.10616 0,-0.0958 1.97291,-14.36327 2.0429,-14.77361 l 0.0444,-0.26 h 28.39637 c 15.61801,0 28.39638,0.0179 28.39638,0.0399 0,0.0219 -8.6978,11.82093 -19.32844,26.22 l -19.32844,26.18013 15.20844,0.0202 c 13.48844,0.0179 15.20844,0.0338 15.20844,0.14077 0,0.11083 -2.3432,15.42797 -2.45058,16.01902 l -0.0472,0.26 h -30.6311 c -16.8471,0 -30.63109,-0.0167 -30.63109,-0.0371 z m 62.49413,-0.0753 c 0.0142,-0.0618 7.76501,-15.55984 17.22395,-34.44 L 302.67618,216 h 11.52287 11.52288 l 7.27457,34.22 c 4.00102,18.821 7.28966,34.319 7.30811,34.44 l 0.0335,0.22 h -9.32908 c -5.17368,0 -9.32908,-0.0307 -9.32908,-0.069 0,-0.038 -0.612,-2.94195 -1.36,-6.45336 -0.748,-3.5114 -1.36,-6.39647 -1.36,-6.41127 0,-0.0148 -5.43886,-0.0178 -12.08635,-0.007 l -12.08634,0.0203 -3.29227,6.46 -3.29226,6.46 h -9.98726 c -8.53866,0 -9.98351,-0.0163 -9.96139,-0.11246 z M 316.28896,256.42 c -0.0316,-0.10586 -2.58397,-13.02207 -3.37121,-17.06 -0.24481,-1.25568 -0.59623,-3.9322 -0.68274,-5.2 -0.0495,-0.726 -0.0995,-1.32981 -0.11101,-1.34179 -0.0115,-0.012 -0.15683,0.36601 -0.32292,0.84 -0.16611,0.47398 -0.47242,1.29379 -0.68071,1.82179 -0.20829,0.528 -0.44204,1.158 -0.51945,1.4 -0.39996,1.25026 -1.57939,3.90893 -5.00673,11.28614 -2.07327,4.46262 -3.78831,8.17686 -3.81122,8.25386 -0.0394,0.13262 0.3432,0.14 7.25309,0.14 6.90994,0 7.29251,-0.007 7.2529,-0.14 z M 344.08,284.69766 c 0,-0.1784 10.75616,-68.15344 10.84355,-68.52726 l 0.0443,-0.18961 11.93606,0.0411 c 7.45319,0.0257 12.37173,0.0739 13.09607,0.12846 0.638,0.048 1.7,0.12718 2.36,0.17588 4.0322,0.29748 7.34516,1.24884 10,2.87162 1.27172,0.77734 2.72105,2.13443 3.76156,3.52214 1.24977,1.66682 2.33481,4.19878 2.77004,6.46399 0.24053,1.25185 0.29972,4.35969 0.11152,5.85601 -0.22526,1.79106 -0.80114,3.82942 -1.4481,5.12566 -1.82451,3.65552 -4.90257,6.43162 -8.5996,7.75598 -0.87134,0.31214 -3.0767,0.89633 -3.77542,1.0001 -0.209,0.031 -0.38,0.0799 -0.38,0.10849 0,0.0286 0.405,0.13463 0.9,0.23552 4.67454,0.95285 8.61362,3.63638 10.4805,7.13994 1.94476,3.64972 2.43929,7.83949 1.49126,12.63431 -0.74877,3.78704 -2.35512,6.91816 -4.92076,9.59167 -2.04992,2.1361 -3.90656,3.29483 -7.13906,4.45555 -2.40855,0.86485 -3.97974,1.13278 -8.61194,1.46854 -3.77032,0.27329 -6.86852,0.32308 -20.14,0.32367 l -12.78,5.7e-4 z m 25,-13.41769 c 2.64843,-0.12579 4.43085,-0.39288 6.2,-0.92907 2.10039,-0.6366 3.6377,-2.14032 4.28816,-4.19452 0.45262,-1.42938 0.64037,-3.2493 0.49894,-4.83638 -0.0779,-0.8745 -0.14214,-1.17222 -0.40355,-1.87084 -0.48855,-1.30565 -1.37335,-2.37646 -2.38355,-2.88466 -1.88998,-0.95076 -4.0067,-1.28027 -8.24144,-1.28292 l -2.52143,-0.002 -1.18817,7.78 c -0.65349,4.279 -1.20656,7.897 -1.22903,8.04 l -0.0409,0.26 h 1.67047 c 0.91875,-6e-5 2.42647,-0.036 3.35047,-0.0799 z m 4.28,-28.76842 c 2.63111,-0.29271 3.84341,-0.58957 5.19648,-1.27248 0.9996,-0.5045 1.59324,-1.06301 2.2418,-2.10913 0.34368,-0.55433 0.45414,-0.83064 0.63966,-1.6 0.30304,-1.25667 0.36808,-2.41969 0.20136,-3.60076 -0.10969,-0.77707 -0.18185,-1.0179 -0.49141,-1.64 -1.13557,-2.28208 -3.31335,-3.0793 -8.43088,-3.08628 l -2.12299,-0.003 -1.01148,6.69658 c -0.55632,3.68313 -0.99203,6.72806 -0.96826,6.76653 0.0618,0.1 3.46013,-0.009 4.74572,-0.15156 z m 131.24295,42.29324 c -0.0343,-0.0555 -17.9224,-67.29817 -18.24512,-68.58479 l -0.0552,-0.22 h 9.76328 c 9.22902,0 9.76558,0.008 9.8053,0.14 0.0821,0.27351 8.38198,38.95437 8.53574,39.78 0.24547,1.3181 0.44673,2.84787 0.63149,4.8 0.0937,0.99 0.19067,1.926 0.21549,2.08 l 0.0451,0.28 0.19126,-0.52 c 0.58977,-1.60345 1.38657,-3.69493 1.76773,-4.64 0.23956,-0.594 0.57965,-1.46002 0.75575,-1.9245 0.17609,-0.46448 4.43078,-9.64448 9.45487,-20.4 l 9.1347,-19.5555 10.26249,-0.0203 10.2625,-0.0203 -0.62419,1.18507 c -0.34331,0.6518 -8.5622,16.14944 -18.2642,34.4392 l -17.64,33.25412 -7.97528,10e-4 c -4.89309,8e-4 -7.99324,-0.028 -8.02176,-0.0741 z M 552.67668,284.7 c 0.0218,-0.099 2.45317,-15.516 5.40293,-34.26 2.94976,-18.744 5.38125,-34.161 5.40331,-34.26 l 0.0401,-0.18 h 10.93848 c 17.50732,8e-4 19.42834,0.12618 24.09664,1.5749 1.88685,0.58556 2.96999,1.08516 4.96183,2.28869 2.35811,1.42483 4.69607,3.90602 6.02664,6.39583 1.29712,2.42722 1.97485,5.03888 2.2058,8.50019 0.13683,2.0506 -0.14572,5.23167 -0.63952,7.2 -0.77118,3.07395 -2.41057,6.23865 -4.3369,8.37198 -2.12811,2.3568 -4.18093,3.88276 -6.94274,5.16088 -2.03896,0.9436 -4.10712,1.60387 -6.23328,1.99003 -0.418,0.0759 -0.79028,0.1654 -0.82731,0.19888 -0.037,0.0335 3.67999,6.14525 8.26,13.58176 4.58003,7.4365 8.32731,13.54241 8.32731,13.56868 0,0.0263 -4.71092,0.0478 -10.46872,0.0478 h -10.46871 l -6.6177,-13.06 c -3.63975,-7.183 -6.64327,-13.08666 -6.67451,-13.11923 -0.0312,-0.0326 -0.89681,5.27743 -1.92348,11.8 -1.02667,6.52257 -1.95696,12.42623 -2.0673,13.11923 l -0.20063,1.26 h -9.151 -9.15099 l 0.0397,-0.18 z m 30.80331,-37.26179 c 0.66,-0.0436 1.578,-0.13558 2.04,-0.20435 4.69819,-0.69939 7.57252,-3.35109 8.23664,-7.59871 0.18513,-1.18405 0.19928,-1.71633 0.0788,-2.96125 -0.40443,-4.17719 -2.77942,-6.37417 -7.70044,-7.12331 -0.56057,-0.0853 -1.69136,-0.13753 -3.62259,-0.16723 l -2.80763,-0.0432 -0.22509,1.42991 c -0.1238,0.78645 -0.77105,4.84991 -1.43833,9.02991 -0.66728,4.18 -1.19943,7.627 -1.18256,7.66 0.045,0.0879 5.21921,0.0709 6.62124,-0.0218 z m 33,37.28881 c 0,-0.0841 2.43,-15.56597 5.4,-34.40406 2.97,-18.83809 5.4,-34.26724 5.4,-34.28702 0,-0.0198 8.928,-0.0359 19.84,-0.0359 19.31559,0 19.84,0.004 19.84,0.14936 0,0.12957 -2.24341,14.73331 -2.37045,15.43064 l -0.0474,0.26 H 653.87467 643.2072 l -0.0472,0.26 c -0.21036,1.15909 -1.69531,10.99335 -1.66702,11.04 0.02,0.033 4.46227,0.06 9.87167,0.06 h 9.83528 l -0.003,0.18 c -0.002,0.099 -0.51538,3.438 -1.14105,7.42 l -1.13759,7.24 -9.93894,0.0203 c -5.46642,0.0112 -9.93894,0.0358 -9.93894,0.0546 0,0.0189 -0.396,2.54114 -0.88,5.60506 -0.484,3.06392 -0.88,5.62234 -0.88,5.68538 0,0.0989 1.45772,0.11462 10.64153,0.11462 h 10.64152 l -0.0411,0.18 c -0.0423,0.18546 -2.36195,15.04626 -2.36195,15.13205 0,0.0264 -8.928,0.048 -19.84,0.048 -19.48346,0 -19.84,-0.003 -19.84,-0.15298 z m 107.8434,0.093 c 0.002,-0.033 2.44292,-15.522 5.42455,-34.42 l 5.42115,-34.36 9.24805,-0.0203 c 8.78142,-0.0193 9.24634,-0.0132 9.21421,0.12 -0.0267,0.11091 -4.32063,26.50628 -4.58128,28.16202 -0.061,0.38749 -0.0558,0.41207 0.0645,0.30322 0.072,-0.0651 5.96165,-6.52641 13.08815,-14.35838 l 12.95727,-14.23994 17.00139,-0.003 17.00141,-0.003 3.47072,8.14 c 1.90888,4.477 3.77048,8.82651 4.1368,9.66556 0.72592,1.66248 1.49744,3.71568 2.02464,5.38808 0.18504,0.58684 0.36536,1.03535 0.4008,0.99668 0.0354,-0.0387 0.40064,-0.84432 0.8116,-1.79032 0.41096,-0.946 1.07968,-2.386 1.48608,-3.2 0.72728,-1.45659 0.83712,-1.62011 6.94656,-10.34 l 6.2076,-8.86 h 10.60088 c 8.22384,0 10.58768,0.0215 10.54168,0.096 -0.0326,0.0528 -6.56152,8.57579 -14.50864,18.94 -7.94712,10.36421 -14.5276,18.95201 -14.62328,19.08401 -0.15128,0.2088 -0.4812,2.20079 -2.53736,15.32 -1.29992,8.294 -2.3816,15.161 -2.40376,15.26 l -0.0402,0.18 h -9.23848 c -7.33608,0 -9.23904,-0.0206 -9.24112,-0.1 -0.002,-0.055 1.0828,-6.976 2.40936,-15.38 l 2.41192,-15.28 -7.90088,-15.56 c -4.34552,-8.558 -7.92644,-15.58893 -7.95764,-15.6243 -0.0312,-0.0354 -6.14186,6.0413 -13.57925,13.5037 l -13.52253,13.568 11.71083,17.40172 c 6.44096,9.57096 11.71083,17.41729 11.71083,17.43631 0,0.019 -4.88871,0.0346 -10.86381,0.0346 h -10.8638 l -9.6362,-15.15621 c -5.2999,-8.33592 -9.65519,-15.15792 -9.67842,-15.16 -0.0232,-0.002 -0.19012,0.94121 -0.37088,2.09621 -0.18077,1.155 -1.25802,7.977 -2.3939,15.16 l -2.06524,13.06 h -9.14388 c -5.02912,0 -9.14234,-0.027 -9.14047,-0.06 z M 131.28,279.36975 c -1.166,-0.56134 -2.85351,-1.37817 -3.75002,-1.81519 l -1.63001,-0.79456 1.71001,-0.75049 c 2.28699,-1.00371 5.76604,-2.69119 8.07002,-3.91428 1.034,-0.54891 2.816,-1.46453 3.96,-2.0347 3.78546,-1.88669 6.51932,-3.51763 9.86866,-5.88736 0.76377,-0.54038 1.39979,-0.97139 1.41338,-0.9578 0.058,0.058 -1.28428,2.45933 -1.90349,3.40548 -1.1103,1.69653 -2.04874,2.79109 -4.26898,4.97915 -2.12658,2.09577 -3.61201,3.45963 -4.86227,4.46434 -0.70068,0.56307 -3.01329,2.2322 -3.72457,2.68821 -0.79248,0.50807 -2.67804,1.64717 -2.7191,1.64264 -0.024,-0.003 -0.99763,-0.46409 -2.16363,-1.02544 z m -14.70641,-7.61703 c -2.03148,-1.236 -3.69346,-2.271 -3.6933,-2.3 0,-0.029 2.90716,-0.76802 6.46,-1.64227 9.92735,-2.44285 15.3438,-4.11211 22.01971,-6.78615 3.42523,-1.37197 3.36,-1.34649 3.36,-1.31228 0,0.0163 -0.549,0.49558 -1.22,1.06503 -3.14927,2.67264 -6.5425,4.90293 -10.38,6.82257 -0.814,0.40718 -2.29,1.19939 -3.28,1.76045 -2.14584,1.21612 -5.48947,2.89788 -7.77089,3.90857 -0.90799,0.40225 -1.68488,0.73136 -1.72642,0.73136 -0.0415,0 -1.73763,-1.01127 -3.7691,-2.24728 z m -75.122182,-3.839 c -1.027725,-0.0348 -1.913382,-0.0804 -1.968125,-0.10139 -0.151101,-0.058 -1.239911,-1.87957 -1.829551,-3.06085 -1.516453,-3.03805 -2.408512,-5.81514 -3.042448,-9.47148 -0.496711,-2.86488 -0.424768,-5.30598 0.23695,-8.04 0.117143,-0.484 0.23853,-0.90852 0.269748,-0.94337 0.03122,-0.0349 0.266206,0.48715 0.522194,1.16 1.582862,4.16047 3.734996,8.07903 6.316571,11.50106 0.581848,0.77127 1.638666,2.23031 2.348485,3.24231 0.709819,1.012 1.978651,2.686 2.819626,3.72 l 1.529047,1.88 -0.626953,0.05 c -1.167328,0.0931 -4.697084,0.12727 -6.575544,0.0637 z M 28.56,267.23966 c -1.254,-0.18591 -2.46,-0.38427 -2.68,-0.4408 -1.111118,-0.28555 -2.492598,-1.25057 -3.222135,-2.25081 -1.006512,-1.38 -2.568894,-5.9784 -3.147272,-9.26306 -0.465243,-2.64215 -0.565416,-3.858 -0.567248,-6.88499 -0.0018,-3.00586 0.03959,-3.47579 0.592101,-6.72 0.235875,-1.38499 0.287455,-1.56473 0.803479,-2.79985 1.481992,-3.54717 3.477746,-6.58876 6.183449,-9.42374 2.570228,-2.69303 5.404774,-4.7468 8.849019,-6.41155 l 1.251395,-0.60486 -0.973655,-1.0194 -0.973654,-1.01941 -0.837739,0.24115 c -1.82752,0.52605 -4.320688,0.7831 -6.15774,0.63488 -3.636997,-0.29346 -6.944011,-1.53896 -9.869855,-3.71722 -0.728762,-0.54255 -0.960188,-0.77398 -1.519971,-1.52 -1.637009,-2.18162 -2.781198,-4.85262 -3.302366,-7.70906 -0.190169,-1.04229 -0.213755,-1.3687 -0.214673,-2.97094 -9.2e-4,-1.60004 0.02243,-1.92971 0.210163,-2.96764 0.292623,-1.61783 0.681819,-2.98366 1.16905,-4.10263 0.227577,-0.52265 0.403397,-0.95883 0.390713,-0.96928 -0.01268,-0.0105 -0.617061,-0.30123 -1.343061,-0.64617 -2.566495,-1.2194 -5.7928066,-3.2702 -7.2304661,-4.59604 -4.5168285,-4.1655 -6.53060582,-9.93424 -5.80452597,-16.62786 0.38536945,-3.55266 2.12490497,-7.97197 3.82473797,-9.71678 2.2263017,-2.28522 4.7482292,-3.70549 7.7209791,-4.34823 0.866454,-0.18735 1.151732,-0.21041 2.689275,-0.21747 1.89139,-0.009 2.671574,0.0862 4.255511,0.51742 1.185021,0.32263 3.283521,1.37131 4.464325,2.23095 1.883352,1.37111 4.23176,3.94116 5.157009,5.64373 0.167381,0.308 0.376983,0.68102 0.465782,0.82893 l 0.161453,0.26892 0.44796,-0.87077 c 0.76414,-1.48537 2.222062,-3.30094 3.441108,-4.28525 1.386411,-1.11945 3.629077,-2.38797 4.827357,-2.73049 0.252722,-0.0722 0.658671,-0.18824 0.90211,-0.25778 l 0.442616,-0.12643 -0.64813,-0.68471 c -2.226824,-2.35248 -3.56877,-5.20236 -4.003619,-8.50242 -0.509438,-3.86612 0.379082,-7.56694 2.595158,-10.80919 0.566511,-0.82884 1.436822,-1.64859 2.81136,-2.648 1.226924,-0.89209 3.450147,-1.9033 4.988048,-2.26875 1.613247,-0.38337 2.782013,-0.50289 4.211951,-0.43072 1.599522,0.0807 2.314833,0.18054 3.48,0.48564 3.490571,0.91397 6.947453,2.98302 9.310367,5.57253 1.03582,1.13515 2.20294,2.73095 2.796334,3.8234 0.599519,1.10373 1.444144,3.20265 1.800818,4.47509 0.197032,0.70291 0.572481,2.61553 0.572481,2.91634 0,0.13057 0.943974,-0.1392 1.488683,-0.42543 0.81266,-0.42704 0.996342,-0.61658 1.67742,-1.73091 1.232709,-2.01686 2.451433,-4.71207 3.183358,-7.04 0.672966,-2.1404 1.194281,-5.08377 1.291503,-7.29188 l 0.05512,-1.25187 -0.228041,-0.0476 c -0.125424,-0.0262 -1.398043,-0.23051 -2.828043,-0.45407 -4.966748,-0.77648 -9.436033,-1.77781 -16.4,-3.67437 -9.916545,-2.70066 -19.288395,-6.52004 -27.935207,-11.38467 -2.109697,-1.18689 -2.681299,-1.52417 -5.184792,-3.05932 -2.086045,-1.27916 -3.232047,-2.27885 -4.723257,-4.12024 -2.832645,-3.49784 -4.263711,-8.51932 -3.715785,-13.03837 0.232529,-1.917786 0.944303,-4.255298 1.771722,-5.818434 0.888888,-1.679264 3.82952,-5.336456 6.039527,-7.511216 3.21107,-3.159848 7.068841,-6.086608 10.726124,-8.137558 0.912082,-0.51148 3.601681,-1.901417 5.976885,-3.088747 10.927903,-5.462698 18.03522,-8.539037 28.612772,-12.384782 4.603926,-1.673878 8.642798,-3.010986 12.86069,-4.257656 l 3.428681,-1.013406 -1.341456,-0.05291 c -0.7378,-0.0291 -1.732908,-0.05291 -2.211347,-0.05291 -2.494406,0 -9.24443,-0.728626 -12.664557,-1.367064 -5.459844,-1.019196 -8.285439,-1.736747 -12.72,-3.230208 -1.230219,-0.41431 -4.997284,-1.883652 -6.12,-2.387103 -1.76036,-0.789386 -4.03199,-1.882348 -4.395183,-2.114679 C 41.712879,48.221863 40.64,46.336101 40.64,44.310405 c 0,-0.564326 0.09775,-1.0403 0.686579,-3.343067 0.377618,-1.476782 0.710618,-2.725516 0.74,-2.774965 0.03442,-0.05792 0.949905,0.419741 2.57342,1.342707 7.178996,4.081245 16.12114,8.160922 22.56,10.292554 4.638379,1.535569 8.708475,2.563643 13.522216,3.415603 5.397168,0.955218 15.96704,1.751844 25.914445,1.953108 1.94587,0.03937 3.55238,0.08602 3.57003,0.103677 0.0177,0.01765 -1.39864,0.566765 -3.1473,1.220251 -3.56572,1.332529 -5.78716,2.203905 -8.646455,3.391637 -1.070888,0.444838 -1.985456,0.785076 -2.032368,0.756083 -0.05339,-0.033 -0.06154,-0.0143 -0.02179,0.05002 0.04223,0.06833 0.02651,0.09041 -0.04693,0.06593 -0.06073,-0.02024 -0.160384,0.01316 -0.221448,0.07422 -0.06106,0.06107 -0.158064,0.09298 -0.215544,0.07092 -0.05749,-0.02206 -0.115848,-0.0097 -0.129688,0.02743 -0.01384,0.03715 -0.457168,0.24808 -0.985168,0.468739 -0.528,0.220659 -1.927624,0.83551 -3.11028,1.366334 -1.182648,0.530825 -2.178576,0.947646 -2.213168,0.926268 -0.03458,-0.02138 -0.07496,-0.0048 -0.08972,0.0368 -0.01476,0.04162 -0.782832,0.415953 -1.706832,0.831854 -1.876984,0.84485 -8.330838,3.975655 -10.12,4.909275 -4.291445,2.239362 -7.540138,3.987532 -10.6,5.704018 -1.936,1.086035 -4.474,2.488715 -5.64,3.117067 -6.933424,3.736393 -12.233425,7.502849 -17.559883,12.478977 -1.932863,1.805736 -4.521867,4.499664 -4.996059,5.198536 -0.761868,1.122856 -1.151434,2.212472 -1.289095,3.6056 -0.168139,1.701579 0.514674,3.814619 1.685431,5.215749 0.522128,0.62487 2.815264,2.42041 4.959606,3.8834 3.487265,2.37921 6.808428,4.20704 10.416371,5.73275 0.999004,0.42245 1.854004,0.7681 1.9,0.7681 0.046,0 0.08363,0.0381 0.08363,0.0847 0,0.0466 0.02902,0.0668 0.0645,0.0449 0.03547,-0.0219 0.512473,0.12378 1.06,0.32378 13.310471,4.86207 23.147223,7.50246 35.275503,9.46868 1.694,0.27463 3.103296,0.52152 3.13176,0.54864 0.0987,0.094 -0.159608,4.85897 -0.369136,6.80932 -0.712944,6.63643 -1.737216,11.52115 -3.771624,17.98682 -1.061152,3.37252 -3.110608,8.28635 -4.948616,11.86496 l -1.006144,1.95896 -1.77812,-0.38693 c -4.813295,-1.04742 -9.040302,-1.50147 -13.97812,-1.5015 -2.687933,-1e-5 -5.884667,0.21829 -8.114993,0.55417 -0.877246,0.13211 -1.611559,0.22363 -1.631808,0.20338 -0.02025,-0.0202 -0.0015,-0.4065 0.04159,-0.85833 0.192112,-2.01289 -0.299887,-4.57075 -1.235171,-6.42153 -0.653943,-1.29406 -1.841188,-2.78262 -3.019621,-3.78599 -1.231497,-1.04856 -2.11366,-1.54053 -3.348496,-1.8674 -0.823446,-0.21798 -2.450892,-0.24051 -3.251504,-0.045 -1.19961,0.29292 -2.391632,1.00565 -3.302301,1.9745 -0.693395,0.73771 -1.14604,1.48686 -1.476627,2.4439 -0.210615,0.60973 -0.22102,0.71 -0.219996,2.12 9.28e-4,1.27381 0.02739,1.59146 0.189972,2.28 0.666701,2.82357 2.09526,5.11448 4.313606,6.91754 0.23356,0.18984 0.39556,0.3702 0.36,0.4008 -0.03556,0.0306 -0.478654,0.17102 -0.984654,0.31203 -1.743694,0.48589 -4.292893,1.60264 -5.918937,2.59295 -3.910944,2.38188 -6.820612,4.73169 -8.814834,7.11874 -1.487359,1.78035 -2.479189,2.87374 -4.437057,4.8914 -1.053435,1.0856 -1.637914,1.6336 -1.663852,1.56 -1.12146,-3.18204 -1.914266,-4.61071 -3.625388,-6.53307 -1.531013,-1.72001 -2.558661,-2.43594 -4.227063,-2.94484 -0.614787,-0.18752 -0.852639,-0.21729 -1.752111,-0.21933 -0.893289,-0.002 -1.15343,0.0288 -1.835947,0.21736 -1.323574,0.3657 -2.256751,0.90168 -3.272138,1.8794 -1.485956,1.43083 -2.249609,3.35696 -2.199216,5.54702 0.01291,0.561 0.04627,1.02 0.07413,1.02 0.02786,0 0.07396,0.171 0.102435,0.38 0.143792,1.05542 1.031079,2.86614 2.074704,4.23392 2.194171,2.8757 5.691971,4.88026 9.135272,5.23535 0.484,0.0499 0.891397,0.10064 0.905329,0.11274 0.01393,0.0121 -0.06694,0.50536 -0.179716,1.09614 -0.271536,1.4225 -0.36296,2.61459 -0.363663,4.74185 -10e-4,3.08723 0.282635,5.07687 0.930063,6.5237 0.417647,0.93332 1.201413,2.1522 2.081029,3.2363 2.144732,2.64334 5.627616,4.5538 9.174022,5.03223 1.684566,0.22727 6.425948,0.13127 9.372935,-0.18974 3.395248,-0.36986 6.835435,-1.0367 9.774029,-1.89458 4.673371,-1.36433 12.176351,-4.52688 17.165692,-7.23543 2.75498,-1.49559 6.075502,-3.42925 7.820279,-4.55402 0.77,-0.49637 1.634,-1.04559 1.92,-1.22047 1.303856,-0.79727 4.476864,-3.17943 5.504488,-4.13253 3.142896,-2.91498 6.156024,-6.79553 7.94116,-10.22725 0.370896,-0.713 0.6956,-1.29679 0.721576,-1.29729 0.128728,-0.002 -0.592472,3.05186 -1.031224,4.36734 -1.288792,3.86416 -3.041152,6.6868 -7.022584,11.31174 -1.927176,2.23866 -3.794944,3.97964 -6.833416,6.36954 -2.407066,1.89327 -6.143221,4.31195 -10.253822,6.63802 -4.285933,2.42529 -6.84466,3.70821 -11.103111,5.56698 -1.211687,0.52889 -2.290419,1.00732 -2.397182,1.06317 l -0.194114,0.10155 0.194114,0.10219 c 0.106763,0.0562 0.653579,0.34943 1.215147,0.65161 2.301278,1.23831 5.161719,2.35287 7.971215,3.10595 3.46448,0.92865 11.479459,1.75352 17.087753,1.75861 3.337416,0.003 8.398816,-0.43185 11.637048,-0.99987 0.630528,-0.1106 1.222128,-0.17786 1.31468,-0.14948 0.09255,0.0284 0.139904,0.0218 0.105224,-0.0147 -0.03468,-0.0365 0.37932,-0.1473 0.92,-0.24626 2.867384,-0.52487 7.525611,-1.84567 10.529161,-2.98545 4.54622,-1.72519 6.15485,-2.4668 8.61389,-3.97113 1.88187,-1.15125 4.32508,-3.12938 6.14609,-4.97617 l 1.02609,-1.04061 2.22703,0.7472 c 4.48636,1.50526 9.814,3.83745 14.36079,6.28649 1.27523,0.68688 5.32633,3.09932 5.60477,3.33767 0.0466,0.0399 0.56862,0.43204 1.16,0.87142 1.06703,0.79278 2.53975,2.1866 4.00389,3.7894 1.42031,1.5548 3.26831,4.37597 3.87623,5.91745 1.02713,2.60449 1.32102,6.07028 0.76984,9.07869 -0.12694,0.69288 -0.22185,0.94376 -0.69607,1.84 -1.09847,2.07604 -2.92529,4.48153 -4.52941,5.96419 -0.62945,0.58177 -1.29186,1.06564 -2.74925,2.00823 -5.90438,3.81874 -9.84847,5.84293 -18.39151,9.43891 -4.1372,1.74146 -5.29712,2.20411 -10.12849,4.03993 -3.14031,1.19325 -3.29011,1.24662 -7.94535,2.83132 l -3.26536,1.11156 -0.61464,-0.30952 c -0.86739,-0.4368 -1.51933,-0.96669 -1.78333,-1.44945 -1.18678,-2.17018 -0.56866,-4.74389 1.4502,-6.03831 0.28683,-0.18391 0.66483,-0.36052 0.84,-0.39247 1.45907,-0.26615 4.48828,-0.96678 6.43848,-1.48916 8.89656,-2.38304 17.34998,-6.21279 25.08827,-11.36599 1.99264,-1.32697 2.01604,-1.34585 3.00821,-2.42638 0.99696,-1.08575 1.00054,-1.09107 1.20517,-1.78706 0.11288,-0.38393 0.24359,-0.98606 0.29047,-1.33806 0.0469,-0.352 0.10854,-0.775 0.13702,-0.94 0.0346,-0.20034 0.0217,-0.3 -0.0387,-0.3 -0.0547,0 -0.0905,-0.15178 -0.0905,-0.38428 0,-0.74449 -0.90219,-2.93824 -1.57212,-3.82277 -0.10291,-0.13588 -0.17829,-0.26188 -0.1675,-0.28 0.0108,-0.0181 0.006,-0.025 -0.0113,-0.0154 -0.017,0.01 -0.20092,-0.20634 -0.40875,-0.48 -0.70864,-0.93308 -2.68967,-2.53777 -4.32036,-3.49962 -1.33751,-0.78891 -3.0737,-1.6244 -4.21102,-2.02642 -0.57805,-0.20433 -1.10708,-0.37151 -1.17561,-0.37151 -0.0685,0 -0.71158,0.38416 -1.42899,0.85368 -4.79932,3.14102 -9.12017,5.18835 -14.38438,6.8157 -1.09763,0.33932 -7.64287,1.90891 -9.86271,2.36515 -4.15507,0.85397 -8.544909,1.45541 -12.857293,1.76151 -5.399576,0.38328 -9.518752,0.39542 -14.48,0.0427 -4.710733,-0.33493 -10.757636,-1.19633 -14.83661,-2.1135 -1.662017,-0.37371 -2.332673,-0.49491 -2.373453,-0.42893 -0.03126,0.0506 -0.118995,0.50314 -0.194961,1.00567 -0.167424,1.10756 -0.120676,2.27334 0.133856,3.33805 0.09467,0.396 0.171233,0.80076 0.170143,0.89947 -0.0012,0.10679 0.03248,0.15817 0.08312,0.12687 0.05331,-0.0329 0.06602,-0.003 0.03401,0.0805 -0.0281,0.0732 -0.02191,0.13312 0.01374,0.13312 0.03565,0 0.110436,0.15223 0.166183,0.3383 0.05575,0.18606 0.290801,0.68688 0.522346,1.11292 0.231545,0.42604 0.65663,1.27675 0.944634,1.89047 0.288004,0.61372 0.694452,1.3819 0.903219,1.70708 0.208766,0.32517 0.379769,0.63465 0.380006,0.68771 2.4e-4,0.0531 0.02383,0.082 0.05242,0.0643 0.02859,-0.0177 0.11766,0.0829 0.197925,0.22352 0.08026,0.14061 0.340423,0.51758 0.578129,0.83771 0.237706,0.32012 0.413036,0.61304 0.389622,0.65093 -0.02341,0.0379 0.02003,0.11796 0.09655,0.17795 0.125894,0.0987 0.128681,0.0958 0.02932,-0.0309 -0.06039,-0.077 -0.09092,-0.14 -0.06785,-0.14 0.02307,0 0.208699,0.225 0.412514,0.5 0.203816,0.275 0.774351,0.93237 1.267855,1.46082 0.806218,0.86331 1.285387,1.25708 4.721451,3.88 3.999377,3.05292 4.240347,3.26916 4.6569,4.17904 0.567973,1.24062 0.229271,2.90116 -0.79265,3.88609 -0.380165,0.3664 -1.533853,0.82127 -3.06342,1.20782 l -0.917098,0.23177 -2.253951,-1.80988 c -4.502791,-3.61566 -9.231409,-7.9038 -13.657088,-12.38492 -2.507353,-2.53876 -3.092575,-3.1878 -3.887808,-4.31174 -1.896959,-2.68106 -3.112859,-5.73718 -3.675808,-9.239 -0.162815,-1.0128 -0.122291,-2.88132 0.08907,-4.10698 0.07515,-0.43579 0.104915,-0.81408 0.0667,-0.84771 -0.03796,-0.0334 -0.915017,-0.63047 -1.949017,-1.32685 -1.034,-0.69637 -2.318185,-1.56591 -2.853745,-1.93229 -0.535561,-0.36639 -0.997814,-0.66617 -1.02723,-0.66617 -0.145109,0 -2.375726,1.31878 -3.399024,2.00956 -2.133481,1.44022 -4.465944,3.49463 -5.983766,5.27044 -3.179788,3.72026 -4.834018,6.75259 -5.931968,10.87374 -0.52521,1.97136 -0.673705,3.31802 -0.671131,6.08626 0.0022,2.32688 0.02842,2.68465 0.355182,4.84 0.147878,0.9754 0.707376,3.04147 1.165115,4.30243 0.703756,1.93869 1.893964,4.32683 3.04888,6.11757 0.148404,0.2301 0.297948,0.24071 -2.542312,-0.18034 z m 42.778333,-112.168 c -0.02658,-0.0266 -0.09558,-0.0294 -0.153334,-0.006 -0.06382,0.0255 -0.04486,0.0445 0.04833,0.0483 0.08433,0.003 0.131583,-0.0154 0.105,-0.042 z m -1.04,-0.16 c -0.02658,-0.0266 -0.09558,-0.0294 -0.153334,-0.006 -0.06382,0.0255 -0.04486,0.0445 0.04833,0.0483 0.08433,0.003 0.131583,-0.0154 0.105,-0.042 z m -0.56,-0.08 c -0.02658,-0.0266 -0.09558,-0.0294 -0.153334,-0.006 -0.06382,0.0255 -0.04486,0.0445 0.04833,0.0483 0.08433,0.003 0.131583,-0.0154 0.105,-0.042 z m -0.518334,-0.0846 c -0.055,-0.0222 -0.145,-0.0222 -0.2,0 -0.055,0.0222 -0.01,0.0404 0.1,0.0404 0.11,0 0.155,-0.0182 0.1,-0.0404 z m -0.601666,-0.0754 c -0.02658,-0.0266 -0.09558,-0.0294 -0.153334,-0.006 -0.06382,0.0255 -0.04486,0.0445 0.04833,0.0483 0.08433,0.003 0.131583,-0.0154 0.105,-0.042 z m -0.518334,-0.0846 c -0.055,-0.0222 -0.145,-0.0222 -0.2,0 -0.055,0.0222 -0.01,0.0404 0.1,0.0404 0.11,0 0.155,-0.0182 0.1,-0.0404 z m -0.56,-0.08 c -0.055,-0.0222 -0.145,-0.0222 -0.2,0 -0.055,0.0222 -0.01,0.0403 0.1,0.0403 0.11,0 0.155,-0.0182 0.1,-0.0403 z m -1.04,-0.16 c -0.055,-0.0222 -0.145,-0.0222 -0.2,0 -0.055,0.0222 -0.01,0.0404 0.1,0.0404 0.11,0 0.155,-0.0182 0.1,-0.0404 z m -0.56,-0.08 c -0.055,-0.0222 -0.145,-0.0222 -0.2,0 -0.055,0.0222 -0.01,0.0403 0.1,0.0403 0.11,0 0.155,-0.0182 0.1,-0.0403 z M 53.940463,265.25505 c -0.978744,-1.11166 -2.568248,-2.97287 -3.532228,-4.13603 l -1.752693,-2.11484 -0.804819,-2.00209 c -1.03356,-2.57111 -1.905428,-5.21917 -2.454931,-7.45619 -0.239686,-0.97576 -0.435793,-1.81511 -0.435793,-1.86523 0,-0.0501 0.241032,0.22623 0.535628,0.61411 1.817277,2.39268 2.534588,3.29428 3.899191,4.90098 0.838849,0.98767 2.317181,2.60339 3.285181,3.59049 1.640892,1.67326 2.064832,2.04541 6.264316,5.49899 2.477373,2.03734 4.506824,3.73362 4.50989,3.76951 0.005,0.058 -7.175578,1.21394 -7.574206,1.21932 -0.110106,0.002 -0.714924,-0.62812 -1.939536,-2.01902 z m -4.420464,-11.84526 c 0,-0.0166 -0.063,-0.0796 -0.14,-0.14 -0.126884,-0.0995 -0.129714,-0.0967 -0.0302,0.0302 0.104509,0.13326 0.170204,0.17564 0.170204,0.10979 z M 579.51999,209.24987 c 0,-0.0166 -0.90342,-2.65357 -2.0076,-5.86 -1.10419,-3.20643 -2.38068,-6.91887 -2.83666,-8.24987 l -0.82906,-2.42 h 3.29772 3.2977 l 2.99895,4.19687 c 1.70779,2.38995 3.04073,4.18257 3.09599,4.16365 0.0534,-0.0183 2.38277,-1.90723 5.17646,-4.1977 l 5.07943,-4.16448 3.55507,0.0208 3.55508,0.0208 -5.80692,8.26 -5.80693,8.26 h -6.38461 c -3.51154,0 -6.38462,-0.0136 -6.38462,-0.0301 z M 242.48,209.16801 c 0,-0.0181 -1.10097,-3.23134 -2.4466,-7.14048 -1.34563,-3.90915 -2.62199,-7.62053 -2.83635,-8.24753 l -0.38976,-1.14 3.29635,2e-5 3.29636,1e-5 3.03585,4.19999 c 1.66972,2.30999 3.06424,4.19998 3.09894,4.19998 0.0347,0 2.35432,-1.89 5.1547,-4.2 l 5.09161,-4.2 h 3.59456 3.59455 l -0.32313,0.46 c -0.17773,0.253 -2.80316,3.97 -5.83431,8.26 l -5.51116,7.8 -6.41081,0.0205 c -3.52594,0.0113 -6.4108,0.006 -6.4108,-0.0125 z m 611.39999,-11.25753 c -1.33552,-0.11415 -3.09184,-0.38592 -4.14536,-0.64144 -4.47528,-1.08546 -8.27272,-3.41846 -10.84608,-6.66345 -2.21192,-2.78918 -3.65224,-6.27433 -4.10192,-9.92559 -0.14968,-1.21494 -0.12664,-4.55969 0.0413,-5.988 0.318,-2.70606 1.26816,-5.9404 2.41256,-8.21298 1.4852,-2.94911 4.0588,-6.12059 6.52232,-8.03735 0.74744,-0.58161 2.512,-1.70488 3.4584,-2.20163 3.17632,-1.66714 6.66984,-2.59312 10.59624,-2.80862 2.87872,-0.15799 6.15336,0.14858 8.62256,0.80724 3.35136,0.89399 6.62832,2.78816 8.99104,5.19714 0.74472,0.75923 1.99544,2.28825 2.4256,2.96526 0.86224,1.35685 1.84872,3.63813 2.24824,5.19894 0.60048,2.34598 0.79728,5.78699 0.4964,8.68 -0.14712,1.41459 -0.726,4.17708 -1.1064,5.28 -0.33384,0.9679 -1.094,2.76791 -1.52032,3.6 -0.99776,1.94728 -2.73488,4.22664 -4.66736,6.1244 -1.42,1.3945 -1.72088,1.63731 -3.43184,2.77026 -1.75424,1.16159 -3.38144,1.91823 -5.97912,2.7802 -0.99888,0.33147 -3.40928,0.83074 -4.65624,0.96446 -1.4644,0.15704 -4.16736,0.2131 -5.36,0.11116 z m 4.92032,-10.54602 c 2.63168,-0.50934 4.29552,-1.39445 6.15968,-3.27667 1.59144,-1.60689 2.44408,-2.93745 3.18456,-4.96959 1.426,-3.91322 0.94952,-8.47379 -1.18656,-11.3582 -0.88072,-1.18918 -2.53064,-2.55829 -3.71352,-3.08139 -1.39808,-0.61832 -2.6992,-0.86255 -4.64448,-0.87178 -1.21784,-0.006 -1.57256,0.0216 -2.29944,0.17721 -2.51336,0.53825 -4.05816,1.32528 -5.69416,2.90102 -2.04176,1.96655 -3.03488,3.6152 -3.68496,6.11708 -0.44976,1.73106 -0.57624,3.12183 -0.4436,4.87786 0.17552,2.32469 0.66768,3.83598 1.82384,5.6 1.03888,1.58522 3.00648,3.03484 4.8768,3.59302 0.56912,0.16983 1.03872,0.25407 2.50152,0.44869 0.75456,0.10039 2.15336,0.0299 3.12032,-0.15725 z m -229.00032,10.47158 c -3.3697,-0.20958 -7.33326,-1.84541 -10.16,-4.19322 -0.9862,-0.81911 -2.92,-2.77055 -2.92,-2.94664 0,-0.0378 5.71243,-8.35012 5.80423,-8.44585 0.0156,-0.0163 0.5971,0.51225 1.29212,1.17461 0.695,0.66235 1.50547,1.3957 1.80102,1.62967 1.2982,1.02769 3.06182,1.90233 4.74263,2.35202 0.70277,0.18803 0.96043,0.21521 2.12,0.22371 1.53644,0.0112 1.96256,-0.0793 3.00851,-0.63909 0.76018,-0.40687 1.24885,-0.9275 1.59236,-1.6965 0.19386,-0.43398 0.22593,-0.60889 0.2274,-1.24 0.002,-0.85523 -0.13058,-1.2264 -0.70001,-1.96013 -0.54924,-0.70771 -1.14906,-1.22228 -2.43204,-2.0864 -0.6058,-0.40804 -2.04578,-1.23157 -2.4453,-1.3985 -0.75699,-0.3163 -4.24676,-2.45178 -5.01092,-3.06633 -1.32333,-1.06423 -2.54509,-2.48169 -3.11983,-3.61954 -0.78568,-1.55546 -1.07651,-4.02303 -0.7591,-6.44069 0.3253,-2.47772 0.94933,-4.15992 2.25663,-6.08316 0.6979,-1.02672 1.31817,-1.68758 2.56269,-2.73039 2.75625,-2.30953 6.02928,-3.40143 10.21961,-3.40933 2.42918,-0.005 5.43634,0.58509 7.41967,1.45491 0.89432,0.39222 2.99655,1.54175 3.70033,2.02341 0.68442,0.46839 1.88063,1.43515 1.84705,1.49274 -0.0156,0.0268 -1.09979,1.90266 -2.4093,4.16866 -1.30951,2.266 -2.39286,4.13414 -2.40744,4.15143 -0.0146,0.0173 -0.25236,-0.16596 -0.52841,-0.40722 -1.56179,-1.36503 -3.65074,-2.60463 -5.3819,-3.19367 -0.48581,-0.1653 -0.70837,-0.19039 -1.68,-0.1894 -0.95317,9.6e-4 -1.19856,0.0281 -1.6474,0.18232 -1.05717,0.36321 -1.80387,1.02933 -2.26047,2.01654 -0.1937,0.41881 -0.24121,0.6303 -0.2441,1.08678 -0.003,0.50828 0.0251,0.61439 0.2742,1.02805 0.62344,1.0353 1.9033,1.95083 5.19777,3.71819 2.18052,1.16976 3.87647,2.23628 5.00183,3.14546 0.93607,0.75626 2.19416,2.11978 2.66639,2.88982 0.48386,0.78902 0.99413,2.0375 1.207,2.95316 0.31548,1.35706 0.40605,3.74949 0.2012,5.31444 -0.40675,3.10719 -1.71945,5.88525 -3.70752,7.8462 -2.11682,2.08792 -4.12004,3.25167 -7.05893,4.1008 -2.43614,0.70387 -5.29574,0.97812 -8.26997,0.79314 z M 653.0563,196.34 c 0.0397,-0.253 1.5462,-9.79585 3.34789,-21.20633 1.80169,-11.41048 3.2758,-20.76148 3.2758,-20.78 0,-0.0185 2.55669,-0.0337 5.68153,-0.0337 h 5.68152 l -0.0416,0.18 c -0.0758,0.32761 -2.8399,17.52817 -2.81997,17.5481 0.0108,0.0108 3.64952,-3.97367 8.08616,-8.85428 l 8.06663,-8.87382 h 7.32268 7.3227 l -4.5647,4.62 c -2.51059,2.541 -7.195,7.2479 -10.4098,10.45979 -3.21481,3.21189 -5.84511,5.8692 -5.84511,5.90514 0,0.0359 3.222,4.86581 7.16,10.73306 3.938,5.86726 7.16,10.68915 7.16,10.71533 0,0.0262 -3.01331,0.0384 -6.69625,0.0271 l -6.69624,-0.0205 -5.92376,-9.29297 c -4.25914,-6.68158 -5.93968,-9.2556 -5.98043,-9.16 -0.0312,0.0731 -0.68845,4.18297 -1.4606,9.13297 -0.77216,4.95 -1.42233,9.081 -1.44485,9.18 l -0.0409,0.18 h -5.62636 -5.62636 z m 55.10369,0.35 c 0,-0.0657 1.512,-9.60551 3.36,-21.19954 1.848,-11.59403 3.36,-21.10039 3.36,-21.12525 0,-0.0795 11.29856,-0.0487 14.08,0.0383 4.02807,0.12605 6.06554,0.46245 7.95395,1.31325 1.13518,0.51143 2.57684,1.70386 3.42641,2.83403 0.45927,0.61097 1.20664,2.14111 1.41323,2.8934 1.0016,3.64747 0.10484,7.75336 -2.22495,10.1871 -0.70789,0.73948 -1.98277,1.6858 -2.76864,2.05512 -0.72389,0.34019 -2.35836,0.83182 -3.05554,0.91905 -0.54194,0.0678 -0.51542,0.084 0.65554,0.40126 2.40652,0.65194 4.16694,1.73973 5.33121,3.29424 0.74434,0.99383 1.4073,2.58959 1.63644,3.93901 0.58544,3.44749 -0.27966,7.10313 -2.31914,9.8 -1.99483,2.63782 -4.82789,4.03203 -9.21437,4.53461 -1.45894,0.16716 -1.88089,0.17461 -11.57414,0.20418 -8.88367,0.0271 -10.06,0.0167 -10.06,-0.0888 z m 16.78691,-8.32984 c 2.5496,-0.25938 4.03954,-0.93749 4.71677,-2.14673 0.71392,-1.27474 0.94963,-3.74785 0.48258,-5.06336 -0.28971,-0.81598 -0.7764,-1.3632 -1.56503,-1.75964 -0.81901,-0.41171 -1.4284,-0.56626 -2.81157,-0.71307 -1.39691,-0.14826 -3.67934,-0.15888 -3.73163,-0.0174 -0.0203,0.055 -0.36163,2.17 -0.75846,4.7 -0.39683,2.53 -0.74309,4.717 -0.76945,4.86 l -0.0479,0.26 1.66891,-0.002 c 0.91789,-8.8e-4 2.18501,-0.0541 2.81581,-0.11826 z m 2.0462,-17.75888 c 0.50912,-0.0681 1.24278,-0.23997 1.75979,-0.41224 0.79541,-0.26504 0.93444,-0.34102 1.3507,-0.73806 0.82217,-0.78422 1.15678,-1.54999 1.30246,-2.98073 0.10348,-1.01627 -0.2499,-2.21559 -0.83007,-2.81716 -0.52709,-0.54655 -1.56524,-0.95444 -2.77599,-1.09073 -0.67313,-0.0758 -3.32,-0.1179 -3.32,-0.0529 0,0.0889 -1.12825,7.88839 -1.16934,8.08345 l -0.0491,0.23295 1.42921,-0.0539 c 0.78606,-0.0296 1.82211,-0.10647 2.30231,-0.17071 z M 745.40653,196.66 c 0.0382,-0.16937 6.67346,-42.21648 6.67346,-42.28901 0,-0.0756 11.55405,-0.0507 14.52,0.0314 2.87479,0.0795 4.27555,0.20568 5.68,0.51171 1.19235,0.25981 1.52599,0.36677 2.68,0.85921 3.70623,1.58148 5.96672,4.39739 6.70043,8.34674 0.10231,0.55069 0.13416,1.19972 0.13547,2.76 l 0.002,2.04 -0.26589,1.04 c -0.69186,2.7062 -1.7087,4.56743 -3.39794,6.21958 -1.2736,1.24564 -3.13451,2.42691 -4.75481,3.01824 -0.74043,0.27023 -2.35587,0.69768 -2.91896,0.77238 -0.26691,0.0354 -0.37656,0.0834 -0.34983,0.15307 0.0448,0.11687 10.10909,16.42556 10.22966,16.57673 0.0637,0.0798 -1.22783,0.1 -6.40417,0.1 h -6.48391 l -1.75582,-3.46 c -0.9657,-1.903 -2.81084,-5.54653 -4.1003,-8.09674 -1.28946,-2.5502 -2.35573,-4.6022 -2.36946,-4.56 -0.0137,0.0422 -0.58304,3.60474 -1.2651,7.91674 -0.68206,4.312 -1.25902,7.921 -1.28212,8.02 l -0.042,0.18 h -5.63098 c -5.32154,0 -5.62926,-0.008 -5.59943,-0.14 z m 20.31346,-23.06046 c 2.48303,-0.40652 4.15771,-1.6912 4.80115,-3.68305 0.18744,-0.58022 0.22424,-0.85295 0.25858,-1.91649 0.0353,-1.09446 0.0203,-1.31042 -0.12843,-1.84 -0.2355,-0.83871 -0.65332,-1.58305 -1.15491,-2.05742 -0.5119,-0.48413 -1.51072,-0.98558 -2.42084,-1.21535 -0.75202,-0.18985 -2.86556,-0.34877 -4.15167,-0.31217 l -0.87611,0.0249 -0.81742,5.24 c -0.44958,2.882 -0.84128,5.39798 -0.87044,5.59105 l -0.053,0.35105 2.42656,-0.0454 c 1.33461,-0.025 2.67856,-0.0867 2.98656,-0.13712 z M 784.76732,196.66 c 0.0364,-0.15758 6.67267,-42.21988 6.67267,-42.29307 0,-0.0258 2.925,-0.0462 6.5,-0.0452 l 6.5,0.002 4.54048,10.61829 c 5.5668,13.01855 6.19424,14.57714 6.65808,16.53829 l 0.17024,0.72 0.0557,-1.52 c 0.11448,-3.12899 0.0912,-2.95647 2.20456,-16.32 l 1.58144,-10 5.65472,-0.0205 c 3.11016,-0.0113 5.65624,0.007 5.65792,0.04 0.002,0.0333 -1.50128,9.59151 -3.34,21.24047 l -3.34312,21.17992 -6.24792,8e-5 -6.24792,7e-5 -3.42568,-7.78 c -1.88408,-4.279 -4.12584,-9.364 -4.98168,-11.3 -2.16088,-4.88803 -2.66712,-6.19458 -3.5179,-9.08 -0.069,-0.23388 -0.0839,-0.12847 -0.0908,0.64 -0.0132,1.47494 -0.16334,3.78641 -0.32744,5.04 -0.12894,0.98496 -3.19162,21.46598 -3.32272,22.22 l -0.0452,0.26 h -5.66888 c -5.35793,0 -5.66712,-0.008 -5.63654,-0.14 z M 140.49263,169.84 c 0,-0.11 0.0182,-0.155 0.0404,-0.1 0.0222,0.055 0.0222,0.145 0,0.2 -0.0222,0.055 -0.0404,0.01 -0.0404,-0.1 z m 0.08,-0.4 c 0,-0.11 0.0182,-0.155 0.0403,-0.1 0.0222,0.055 0.0222,0.145 0,0.2 -0.0222,0.055 -0.0403,0.01 -0.0403,-0.1 z m 0.08,-0.4 c 0,-0.11 0.0182,-0.155 0.0404,-0.1 0.0222,0.055 0.0222,0.145 0,0.2 -0.0222,0.055 -0.0404,0.01 -0.0404,-0.1 z m 0.08,-0.4 c 0,-0.11 0.0182,-0.155 0.0403,-0.1 0.0222,0.055 0.0222,0.145 0,0.2 -0.0222,0.055 -0.0403,0.01 -0.0403,-0.1 z m 0.08,-0.4 c 0,-0.11 0.0182,-0.155 0.0403,-0.1 0.0222,0.055 0.0222,0.145 0,0.2 -0.0222,0.055 -0.0403,0.01 -0.0403,-0.1 z m 0.08,-0.4 c 0,-0.11 0.0182,-0.155 0.0403,-0.1 0.0222,0.055 0.0222,0.145 0,0.2 -0.0222,0.055 -0.0403,0.01 -0.0403,-0.1 z m 0.083,-0.44 c 0.002,-0.132 0.0196,-0.17631 0.0399,-0.0985 0.0203,0.0778 0.0189,0.18584 -0.003,0.24 -0.0219,0.0542 -0.0385,-0.01 -0.0369,-0.14152 z m 0.08,-0.56 c 0.002,-0.132 0.0196,-0.17631 0.0399,-0.0985 0.0203,0.0778 0.0189,0.18584 -0.003,0.24 -0.0219,0.0542 -0.0385,-0.01 -0.0369,-0.14152 z m 0.08,-0.56 c 0.002,-0.132 0.0196,-0.17631 0.0399,-0.0985 0.0203,0.0778 0.0189,0.18584 -0.003,0.24 -0.0219,0.0542 -0.0385,-0.01 -0.0369,-0.14152 z m 0.077,-0.52 c 0,-0.11 0.0182,-0.155 0.0404,-0.1 0.0222,0.055 0.0222,0.145 0,0.2 -0.0222,0.055 -0.0404,0.01 -0.0404,-0.1 z m 0.08,-0.56 c 0,-0.11 0.0182,-0.155 0.0403,-0.1 0.0222,0.055 0.0222,0.145 0,0.2 -0.0222,0.055 -0.0403,0.01 -0.0403,-0.1 z m 0.083,-0.52 c 0.002,-0.132 0.0196,-0.17631 0.0399,-0.0985 0.0203,0.0778 0.019,0.18584 -0.003,0.24 -0.0219,0.0542 -0.0385,-0.01 -0.0369,-0.14152 z m 0.25066,-3.36 c 0,-0.308 0.0148,-0.4242 0.0321,-0.25822 0.0173,0.16599 0.017,0.41799 -8e-4,0.56 -0.0177,0.14202 -0.0318,0.006 -0.0315,-0.30178 z m 0.0766,-1.52 c 8e-4,-0.22 0.0161,-0.3005 0.0345,-0.1789 0.0184,0.1216 0.0179,0.3016 -0.001,0.4 -0.019,0.0984 -0.034,-10e-4 -0.0334,-0.2211 z m 0.08,-1.12 c 8e-4,-0.22 0.0161,-0.3005 0.0345,-0.1789 0.0184,0.1216 0.0179,0.3016 -10e-4,0.4 -0.019,0.0984 -0.034,-0.001 -0.0334,-0.2211 z M 187.4,141.07277 c -3.36971,-3.13782 -8.34519,-7.21199 -12.57092,-10.29375 -3.61354,-2.63527 -6.68759,-4.67341 -11.06908,-7.33893 -2.266,-1.37855 -4.18612,-2.58152 -4.26695,-2.67327 -0.0808,-0.0917 -0.12025,-0.11626 -0.0876,-0.0545 0.0666,0.12624 0.0878,0.13671 -0.64541,-0.31962 -2.04016,-1.26976 -7.99025,-4.37917 -11.16,-5.83202 -6.01533,-2.7571 -15.19307,-6.09836 -24.48,-8.91221 -3.38811,-1.02657 -3.75314,-1.1192 -7.56,-1.91851 -5.95048,-1.24939 -11.53063,-2.31762 -14.65919,-2.80625 C 90.827623,99.350464 83.356983,98.461488 75.338656,97.881968 73.192917,97.726888 71.340717,97.6 71.222656,97.6 c -0.12893,0 -0.184305,-0.02842 -0.138657,-0.07114 0.0418,-0.03913 3.136,-1.61756 6.876,-3.507632 3.74,-1.890064 9.068,-4.633952 11.84,-6.097528 7.376088,-3.894464 6.820856,-3.593912 15.183801,-8.219062 3.14294,-1.738218 5.1789,-2.807407 6.60384,-3.468028 5.44489,-2.52433 10.39483,-5.450162 15.88921,-9.391871 2.45588,-1.761865 3.22389,-2.427395 3.8202,-3.310432 1.46756,-2.173239 1.98569,-5.296291 1.25792,-7.582155 -0.37456,-1.176435 -0.84849,-1.897878 -1.97047,-2.999565 -1.77875,-1.746573 -3.54457,-3.076039 -5.5445,-4.174379 -0.99707,-0.547581 -8.44427,-4.812777 -11.88,-6.803965 -3.10391,-1.798881 -13.05987,-7.855417 -17.400001,-10.584992 -7.24844,-4.558646 -8.70056,-5.494904 -14.2,-9.155479 -4.88323,-3.250408 -6.305278,-4.241284 -8.68,-6.048182 C 68.991461,13.226843 65.080756,10.492029 60.257473,7.3584642 58.870163,6.457164 58.009701,5.8501088 58.033088,5.7891626 c 0.02098,-0.054667 0.807039,-1.0645931 1.746802,-2.244279 1.902272,-2.3879248 2.167981,-2.63649104 3.301443,-3.08843034 1.279788,-0.51028346 2.392255,-0.57386342 3.693822,-0.21111013 1.400731,0.39039056 2.049934,0.88415017 6.161463,4.68618477 3.990385,3.6900097 5.593538,5.1426541 6.663381,6.0378001 0.594,0.497006 1.836,1.554426 2.76,2.349822 3.463792,2.9817 10.570424,8.378204 15.475368,11.751408 6.616843,4.550502 11.773623,7.749924 17.991823,11.162689 5.5917,3.068914 13.55398,7.002226 16.85281,8.325168 6.08001,2.438291 10.96409,4.835956 15.87961,7.79553 l 2.16557,1.303861 0.5315,0.751097 c 0.72688,1.027207 1.51237,2.414159 1.97277,3.48335 0.6513,1.512489 0.74623,2.989678 0.32568,5.067747 -0.43527,2.150877 -1.6166,4.146786 -3.29462,5.566385 -0.29728,0.2515 -1.26051,1.133516 -2.14051,1.960035 -1.44063,1.353082 -2.97335,2.650454 -4.92,4.16454 -0.81983,0.637652 -4.88684,3.514357 -6.72,4.753231 -6.32465,4.274273 -12.98544,7.832969 -19.8,10.578641 l -2.32,0.934752 2.4,0.214432 c 4.71582,0.421328 9.90026,1.260792 14.24212,2.306072 5.95126,1.432736 11.72128,3.363496 15.10673,5.055016 5.81991,2.907876 10.75375,6.217676 15.09115,10.123696 0.638,0.57454 1.1697,1.0197 1.18157,0.98922 0.0118,-0.0305 -0.39496,-1.5833 -0.90405,-3.45072 -1.8897,-6.931708 -3.07235,-12.093412 -4.71883,-20.5953 -0.4586,-2.36812 -1.07787,-6.513819 -1.23084,-8.24 -0.24289,-2.740872 -0.33473,-3.995507 -0.40699,-5.56 -0.0437,-0.946 -0.10233,-2.206 -0.13031,-2.8 -0.0578,-1.22583 0.038,-2.18117 0.33977,-3.389176 0.55046,-2.203774 2.27494,-4.336763 4.47635,-5.536751 0.77738,-0.423746 1.32654,-0.625895 2.37619,-0.874687 l 0.78287,-0.185557 1.89713,0.312653 c 2.9128,0.480038 5.63515,1.101828 8.21714,1.876804 0.792,0.237716 3.03337,0.87685 4.98083,1.420296 1.94746,0.543448 3.51346,1.016932 3.48,1.05219 -0.0335,0.03526 0.0202,0.03921 0.11917,0.0088 0.099,-0.03043 0.18,-0.0259 0.18,0.01006 0,0.03596 0.081,0.06966 0.18,0.07488 0.3467,0.01828 4.53707,1.126777 4.47899,1.184854 -0.0323,0.03226 0.0456,0.03249 0.1731,4.8e-4 0.16941,-0.04252 0.216,-0.03264 0.17314,0.0367 -0.0425,0.06875 0.002,0.07977 0.16,0.04 0.15844,-0.03977 0.20249,-0.02875 0.16,0.04 -0.0423,0.06847 0.004,0.08105 0.16806,0.0452 0.1806,-0.03957 0.20231,-0.03111 0.10671,0.04165 -0.0942,0.07168 -0.0598,0.08063 0.16,0.04162 0.2174,-0.03859 0.25317,-0.02965 0.16,0.04 -0.0932,0.06965 -0.0574,0.0786 0.16,0.04 0.2174,-0.03859 0.25317,-0.02965 0.16,0.04 -0.0932,0.06965 -0.0574,0.0786 0.16,0.04 0.18293,-0.03248 0.24269,-0.02396 0.1724,0.02457 -0.14749,0.101805 0.23053,0.195297 0.5276,0.130488 0.17599,-0.03839 0.19599,-0.02973 0.1,0.04333 -0.0941,0.07161 -0.0617,0.07979 0.15001,0.03792 0.19337,-0.03825 0.25391,-0.02737 0.21329,0.03835 -0.0401,0.06495 0.007,0.07573 0.16193,0.03689 0.16919,-0.04247 0.20392,-0.03107 0.15358,0.05039 -0.0476,0.07703 -0.0278,0.09096 0.0739,0.05195 0.0764,-0.02932 0.55931,0.05159 1.07312,0.179802 0.51381,0.128214 1.7082,0.403404 2.6542,0.611536 0.946,0.208132 1.73197,0.409041 1.74662,0.446465 0.0146,0.03742 0.12264,0.04719 0.24,0.02171 0.17143,-0.03723 0.18979,-0.02838 0.0934,0.04499 -0.0941,0.07161 -0.0617,0.0798 0.15001,0.03792 0.20128,-0.03981 0.25472,-0.02869 0.20999,0.0437 -0.0448,0.07252 0.006,0.08265 0.2,0.04 0.20053,-0.04404 0.24557,-0.03374 0.19689,0.04504 -0.0458,0.0741 -0.0237,0.08703 0.0804,0.04709 0.0799,-0.03067 1.11224,0.157705 2.33069,0.425306 2.04117,0.448296 7.13295,1.40045 13.91207,2.601536 5.35077,0.94802 11.76237,1.684734 17.04,1.957951 8.15656,0.422256 11.31013,0.509457 16.33117,0.451579 5.14345,-0.05929 7.26429,-0.162466 11.73531,-0.570921 3.11979,-0.285011 3.22482,-0.289575 3.69233,-0.160439 0.88491,0.244434 1.58362,0.641191 2.27569,1.292242 0.99789,0.938744 1.54396,2.06688 1.64793,3.40447 0.0451,0.579947 -0.16971,3.324371 -0.40589,5.186146 l -0.0457,0.36 -0.61544,-0.0239 C 250.96215,81.65669 234.26265,80.087218 220.32,78.039379 c -4.09171,-0.600974 -5.26327,-0.807253 -9.32,-1.641001 -7.94317,-1.632496 -18.02724,-3.28162 -27.19553,-4.44749 -4.14546,-0.527151 -4.25184,-0.536566 -5.00304,-0.442818 -1.61701,0.201804 -2.97871,0.707552 -4.41507,1.639797 -1.35465,0.879207 -2.4025,2.54608 -2.74145,4.360957 -0.15751,0.843401 -0.15806,1.478459 -0.002,2.291162 0.0676,0.352 0.3743,2.368 0.68154,4.48 0.84911,5.836992 2.71656,15.814894 3.59345,19.200004 1.9808,7.64656 3.68306,13.67243 5.16515,18.28419 0.4603,1.43231 0.83691,2.62918 0.83691,2.65972 0,0.0305 0.55392,1.55865 1.23093,3.39581 1.61407,4.37997 3.34415,8.68301 4.87308,12.12028 0.68011,1.529 1.21394,2.77812 1.18628,2.77582 -0.0277,-0.002 -0.84229,-0.74166 -1.81029,-1.64306 z m 68.28,-31.26582 c -4.10506,-1.50144 -7.49176,-3.16167 -12.52,-6.13755 -3.78422,-2.23963 -11.24986,-6.806208 -11.20326,-6.852808 0.0255,-0.02552 8.55855,2.145152 11.56326,2.941528 9.47236,2.51055 11.56469,3.02165 14.55069,3.55434 1.11688,0.19924 2.04649,0.37806 2.06581,0.39737 0.0193,0.0193 -0.18601,0.60551 -0.45628,1.30264 -0.47688,1.23011 -1.97391,5.16586 -2.04162,5.36753 -0.0185,0.055 -0.0617,0.0967 -0.0961,0.0927 -0.0344,-0.004 -0.87251,-0.30361 -1.86251,-0.66571 z m 3.24,-12.965974 c -6.56332,-1.610472 -13.87484,-4.09076 -19.88,-6.743904 -2.77374,-1.225472 -4.73032,-2.133632 -4.65259,-2.159544 0.0387,-0.01291 2.31642,0.246816 5.06152,0.577184 4.3808,0.527216 12.35355,1.34424 15.27107,1.564944 0.55,0.0416 2.782,0.188512 4.96,0.326472 2.178,0.137952 3.97441,0.264424 3.99203,0.281048 0.0514,0.04853 -0.42885,2.133048 -1.05346,4.572208 -0.5657,2.209112 -0.58302,2.259272 -0.77857,2.2542 -0.11,-0.0029 -1.424,-0.305528 -2.92,-0.672608 z M 188.625,65.385351 c 0.0577,-0.02311 0.12675,-0.02027 0.15333,0.0063 0.0266,0.02658 -0.0207,0.04549 -0.105,0.04202 -0.0932,-0.0038 -0.11215,-0.0228 -0.0483,-0.04833 z M 72.399999,39.233568 c -0.066,-0.01533 -0.858,-0.08461 -1.76,-0.15396 -3.711389,-0.285342 -7.899308,-1.039886 -12.227649,-2.203074 -3.867607,-1.039372 -5.98384,-1.711875 -8.849636,-2.81226 -1.511867,-0.580516 -4.954643,-2.074704 -5.101543,-2.214105 -0.0842,-0.0799 1.067696,-3.030752 1.967814,-5.041021 0.421329,-0.940969 0.782481,-1.727281 0.80256,-1.74736 0.02008,-0.02008 0.984195,0.536702 2.142481,1.237291 2.650679,1.603263 5.447538,3.157679 10.825973,6.016768 2.332,1.239654 4.252253,2.288477 4.267228,2.330718 0.01498,0.04224 0.135938,0.133017 0.268805,0.201726 0.138358,0.07155 0.217151,0.0854 0.18441,0.03242 -0.03144,-0.05088 0.0906,-0.01712 0.271194,0.07502 0.1806,0.09213 0.328363,0.204911 0.328363,0.250613 0,0.0457 0.036,0.06085 0.08,0.03365 0.044,-0.02719 0.08,-0.0092 0.08,0.04 0,0.04919 0.036,0.06719 0.08,0.04 0.044,-0.02719 0.08,-0.01732 0.08,0.02195 0,0.03926 0.045,0.07172 0.1,0.07212 0.055,4e-4 1.558,0.775931 3.34,1.723388 1.782,0.947458 3.42,1.81545 3.64,1.928871 l 0.4,0.20622 -0.4,-0.0056 c -0.22,-0.0031 -0.454,-0.0181 -0.52,-0.03343 z m 1.44,-10.630294 c -1.43,-0.494484 -3.824,-1.394045 -5.32,-1.999025 -1.496,-0.60498 -3.909987,-1.559923 -5.364416,-2.122095 -3.223101,-1.245808 -6.54188,-2.700941 -10.167641,-4.45805 L 50.255884,18.7001 50.472962,18.33005 C 50.592355,18.126522 50.917501,17.528 51.195508,17 c 0.278008,-0.528 0.802475,-1.446 1.165482,-2.04 0.363007,-0.594 0.818356,-1.356936 1.011886,-1.695414 l 0.351872,-0.615414 3.680173,2.735414 c 2.024094,1.504478 5.281026,3.943325 7.237625,5.41966 3.061034,2.309678 6.239927,4.620808 10.817453,7.864547 1.021502,0.723859 1.19621,0.865369 1.04,0.842375 -0.033,-0.0049 -1.23,-0.41341 -2.66,-0.907894 z"
       id="path11452" />
  </g>
</svg>
