<?xml version="1.0" encoding="UTF-8" standalone="no"?>
<!-- Created with Inkscape (http://www.inkscape.org/) -->

<svg
   version="1.1"
   id="svg2"
   xml:space="preserve"
   width="300.04349"
   height="110.1153"
   viewBox="0 0 300.04348 110.1153"
   sodipodi:docname="ZBM_logo.svg"
   inkscape:version="1.1 (c68e22c387, 2021-05-23)"
   xmlns:inkscape="http://www.inkscape.org/namespaces/inkscape"
   xmlns:sodipodi="http://sodipodi.sourceforge.net/DTD/sodipodi-0.dtd"
   xmlns="http://www.w3.org/2000/svg"
   xmlns:svg="http://www.w3.org/2000/svg"><defs
     id="defs6"><clipPath
       clipPathUnits="userSpaceOnUse"
       id="clipPath20"><path
         d="M 0,595.275 H 841.89 V 0 H 0 Z"
         id="path18" /></clipPath></defs><sodipodi:namedview
     id="namedview4"
     pagecolor="#ffffff"
     bordercolor="#666666"
     borderopacity="1.0"
     inkscape:pageshadow="2"
     inkscape:pageopacity="0.0"
     inkscape:pagecheckerboard="0"
     showgrid="false"
     inkscape:zoom="0.97769937"
     inkscape:cx="-23.013209"
     inkscape:cy="78.756316"
     inkscape:window-width="1920"
     inkscape:window-height="995"
     inkscape:window-x="0"
     inkscape:window-y="0"
     inkscape:window-maximized="1"
     inkscape:current-layer="g8" /><g
     id="g8"
     inkscape:groupmode="layer"
     inkscape:label="ZBM-krivky-logo-s-zabickou"
     transform="matrix(1.3333333,0,0,-1.3333333,-382.85408,475.12392)"><g
       id="g10"
       transform="translate(512.8589,292.9951)"
       style="fill:#e03a35;fill-opacity:1"><path
         d="m 0,0 -7.34,-9.58 -1.2,-7.62 h -4.62 l 1.2,7.67 -3.96,7.83 V 0 h 1.69 2.55 l 1.88,-4.4 0.33,-0.75 0.3,-0.93 0.45,1.019 0.06,0.141 0.309,0.579 L -5.29,0 Z"
         style="fill:#e03a35;fill-opacity:1;fill-rule:nonzero;stroke:none"
         id="path12" /></g><g
       id="g14"><g
         id="g16"
         clip-path="url(#clipPath20)"
         style="fill:#e03a35;fill-opacity:1"><g
           id="g22"
           transform="translate(506.9292,310.5049)"
           style="fill:#e03a35;fill-opacity:1"><path
             d="M 0,0 C 0.39,0.9 0.529,1.88 0.409,2.84 0.35,3.64 0.05,4.4 -0.44,5.03 -1.16,5.93 -2.23,6.48 -3.381,6.54 -5.141,6.65 -6.82,5.8 -7.78,4.31 -8.4,3.31 -8.69,2.15 -8.62,0.98 c -0.03,-1.07 0.37,-2.11 1.12,-2.88 0.649,-0.65 1.5,-1.05 2.42,-1.14 1.22,-0.17 2.46,0.16 3.439,0.91 C -0.94,-1.55 -0.381,-0.82 0,0 M 5.159,4.15 C 5.39,2.3 5.149,0.42 4.449,-1.31 c -0.67,-1.58 -1.75,-2.96 -3.12,-4 -1.89,-1.47 -4.26,-2.18 -6.649,-2.01 -2.361,0.11 -4.59,1.13 -6.21,2.85 -1.351,1.64 -2.01,3.73 -1.861,5.85 0.021,2.24 0.851,4.4 2.33,6.08 1.941,2.19 4.741,3.42 7.651,3.36 2.21,0.08 4.359,-0.65 6.069,-2.05 1.38,-1.18 2.271,-2.83 2.5,-4.62"
             style="fill:#e03a35;fill-opacity:1;fill-rule:nonzero;stroke:none"
             id="path24" /></g><g
           id="g26"
           transform="translate(492.0786,320.8745)"
           style="fill:#e03a35;fill-opacity:1"><path
             d="m 0,0 -2.71,-17.2 h -5.05 l -3.86,8.75 -0.64,1.58 -0.3,1.02 -0.07,0.23 V -6.1 l -0.03,-1 -0.1,-0.99 -1.36,-9.11 h -4.59 L -16,0 h 5.25 l 3.64,-8.49 0.57,-1.47 0.311,-0.96 0.099,-0.38 v 0.43 l 0.06,1.05 0.15,1.37 1.33,8.45 z"
             style="fill:#e03a35;fill-opacity:1;fill-rule:nonzero;stroke:none"
             id="path28" /></g><g
           id="g30"
           transform="translate(492.689,292.9951)"
           style="fill:#e03a35;fill-opacity:1"><path
             d="M 0,0 H 4.25 V -1.7 L -2.521,-8.49 3.33,-17.2 H -2.11 L -6.931,-9.62 -8.12,-17.2 H -12.7 L -9.99,0 h 4.62 l -1.17,-7.19 z"
             style="fill:#e03a35;fill-opacity:1;fill-rule:nonzero;stroke:none"
             id="path32" /></g><g
           id="g34"
           transform="translate(479.189,291.4443)"
           style="fill:#e03a35;fill-opacity:1"><path
             d="m 0,0 -1.98,-3.409 c -0.3,0.239 -0.6,0.479 -0.911,0.71 -0.389,0.29 -0.83,0.51 -1.29,0.659 C -4.63,-1.859 -5.11,-1.819 -5.58,-1.909 -6,-2 -6.37,-2.279 -6.55,-2.67 c -0.131,-0.279 -0.14,-0.59 -0.03,-0.87 0.14,-0.29 0.35,-0.54 0.63,-0.71 0.32,-0.22 0.639,-0.42 0.979,-0.609 0.861,-0.431 1.671,-0.931 2.441,-1.5 0.849,-0.55 1.429,-1.441 1.59,-2.441 0.23,-1.099 0.169,-2.25 -0.18,-3.319 -0.37,-1.04 -1.061,-1.941 -1.96,-2.591 -0.96,-0.68 -2.07,-1.12 -3.24,-1.279 -1.401,-0.21 -2.821,-0.08 -4.16,0.389 -1.31,0.5 -2.47,1.34 -3.36,2.43 l 2.38,3.441 c 0.609,-0.661 1.3,-1.22 2.06,-1.691 0.48,-0.229 0.99,-0.38 1.509,-0.46 0.531,-0.08 1.061,-0.029 1.571,0.151 0.509,0.16 0.849,0.66 0.82,1.2 0.01,0.449 -0.2,0.88 -0.561,1.16 -0.519,0.399 -1.08,0.76 -1.66,1.069 -0.59,0.321 -1.159,0.66 -1.719,1.04 -0.6,0.38 -1.11,0.901 -1.47,1.521 -0.401,0.76 -0.57,1.63 -0.481,2.479 0.111,0.861 0.361,1.68 0.741,2.45 0.629,1.01 1.54,1.8 2.62,2.27 1.05,0.41 2.179,0.58 3.309,0.49 C -3.79,1.891 -2.88,1.66 -2.03,1.271 -1.311,0.931 -0.63,0.5 0,0"
             style="fill:#e03a35;fill-opacity:1;fill-rule:nonzero;stroke:none"
             id="path36" /></g><g
           id="g38"
           transform="translate(463.439,313.0146)"
           style="fill:#e03a35;fill-opacity:1"><path
             d="M 0,0 C 0.67,-0.02 1.34,0 2.01,0.06 2.41,0.12 2.8,0.24 3.16,0.42 3.56,0.65 3.87,1 4.05,1.42 4.22,1.85 4.29,2.31 4.24,2.77 4.189,3.27 3.93,3.74 3.52,4.04 3.109,4.25 2.67,4.4 2.22,4.48 1.72,4.52 1.21,4.54 0.71,4.52 Z M -0.431,-2.78 -1.46,-9.34 H -6.04 L -3.33,7.86 2.56,7.85 C 3.029,7.83 3.5,7.8 3.97,7.76 4.689,7.67 5.399,7.49 6.08,7.22 6.729,6.93 7.3,6.49 7.76,5.94 8.17,5.39 8.479,4.76 8.64,4.09 8.77,3.31 8.77,2.51 8.64,1.73 8.569,1.22 8.39,0.73 8.13,0.29 7.88,-0.23 7.529,-0.7 7.1,-1.08 6.729,-1.42 6.319,-1.71 5.88,-1.95 5.27,-2.24 4.62,-2.45 3.95,-2.55 L 8.13,-9.34 H 2.88 Z"
             style="fill:#e03a35;fill-opacity:1;fill-rule:nonzero;stroke:none"
             id="path40" /></g><g
           id="g42"
           transform="translate(465.6987,292.9951)"
           style="fill:#e03a35;fill-opacity:1"><path
             d="m 0,0 -0.62,-3.971 h -5.33 l -0.43,-2.8 h 4.93 l -0.58,-3.75 h -4.95 l -0.46,-2.86 h 5.32 L -2.71,-17.2 h -9.92 L -9.92,0 Z"
             style="fill:#e03a35;fill-opacity:1;fill-rule:nonzero;stroke:none"
             id="path44" /></g><g
           id="g46"
           transform="translate(451.3091,308.8047)"
           style="fill:#e03a35;fill-opacity:1"><path
             d="M 0,0 C 0.04,0.34 0.02,0.69 -0.08,1.03 -0.181,1.49 -0.5,1.87 -0.94,2.04 -1.271,2.13 -1.601,2.2 -1.94,2.23 -2.4,2.26 -2.88,2.27 -3.351,2.26 L -3.96,-1.76 c 0.6,-0.02 1.21,0 1.81,0.04 0.469,0.03 0.929,0.17 1.339,0.4 C -0.37,-1.01 -0.08,-0.53 0,0 m 0.399,6.81 c 0.09,0.32 0.08,0.68 -0.04,1 C 0.25,8.16 -0.03,8.44 -0.38,8.55 -0.641,8.66 -0.92,8.73 -1.2,8.75 -1.58,8.79 -1.96,8.8 -2.341,8.78 l -0.5,-3.38 c 0.49,-0.01 0.971,0 1.461,0.05 0.38,0.04 0.75,0.15 1.079,0.35 0.341,0.25 0.58,0.6 0.7,1.01 M 4.63,9.25 C 4.89,8.32 4.85,7.32 4.529,6.4 4.229,5.46 3.55,4.69 2.64,4.29 2.18,4.06 1.689,3.9 1.18,3.82 2.14,3.67 3.02,3.21 3.699,2.52 4.279,1.78 4.58,0.86 4.55,-0.07 4.52,-0.92 4.33,-1.75 3.979,-2.52 3.47,-3.51 2.6,-4.28 1.55,-4.65 0.79,-4.86 0.01,-5 -0.771,-5.06 -1.61,-5.12 -2.45,-5.15 -3.29,-5.13 h -5.681 l 2.741,17.2 h 1.95 2.62 C -0.44,12.08 0.779,11.98 1.979,11.76 3.22,11.41 4.21,10.47 4.63,9.25"
             style="fill:#e03a35;fill-opacity:1;fill-rule:nonzero;stroke:none"
             id="path48" /></g><g
           id="g50"
           transform="translate(443.1792,285.1348)"
           style="fill:#e03a35;fill-opacity:1"><path
             d="M 0,0 C 0.67,-0.021 1.34,0 2.01,0.07 2.409,0.12 2.8,0.24 3.159,0.42 3.56,0.65 3.869,1 4.05,1.42 4.22,1.85 4.289,2.31 4.239,2.77 4.189,3.28 3.93,3.74 3.52,4.04 3.109,4.26 2.67,4.4 2.21,4.479 1.71,4.53 1.21,4.54 0.71,4.52 Z m -0.431,-2.78 -1.03,-6.56 H -6.04 L -3.33,7.86 2.56,7.85 C 3.029,7.83 3.5,7.8 3.97,7.76 4.689,7.67 5.399,7.49 6.079,7.22 6.729,6.93 7.3,6.49 7.76,5.94 8.17,5.39 8.479,4.76 8.64,4.09 8.77,3.31 8.77,2.51 8.64,1.729 8.569,1.22 8.39,0.729 8.13,0.29 7.88,-0.23 7.529,-0.7 7.1,-1.07 6.729,-1.42 6.319,-1.71 5.88,-1.95 5.27,-2.24 4.609,-2.44 3.939,-2.55 L 8.13,-9.34 H 2.88 Z"
             style="fill:#e03a35;fill-opacity:1;fill-rule:nonzero;stroke:none"
             id="path52" /></g><g
           id="g54"
           transform="translate(444.939,296.7148)"
           style="fill:#e03a35;fill-opacity:1"><path
             d="M 0,0 2.58,2.11 H 4.359 L 1.45,-2.021 H -1.74 L -3.16,2.11 h 1.66 z"
             style="fill:#e03a35;fill-opacity:1;fill-rule:nonzero;stroke:none"
             id="path56" /></g><g
           id="g58"
           transform="translate(438.269,292.9951)"
           style="fill:#e03a35;fill-opacity:1"><path
             d="m 0,0 -9.12,-17.2 h -4 L -17.69,0 h 4.879 l 2.121,-9.83 0.139,-0.851 0.101,-1.059 v -0.04 l 0.38,1.009 0.049,0.161 0.34,0.83 L -5.12,0 Z"
             style="fill:#e03a35;fill-opacity:1;fill-rule:nonzero;stroke:none"
             id="path60" /></g><g
           id="g62"
           transform="translate(422.1187,313.7349)"
           style="fill:#e03a35;fill-opacity:1"><path
             d="m 0,0 6.54,7.2 h 5.94 L 4.01,-1.3 9.87,-10.01 H 4.43 l -4.82,7.59 -1.19,-7.59 H -6.16 L -3.45,7.2 h 4.61 z"
             style="fill:#e03a35;fill-opacity:1;fill-rule:nonzero;stroke:none"
             id="path64" /></g><g
           id="g66"
           transform="translate(413.9985,282.8848)"
           style="fill:#e03a35;fill-opacity:1"><path
             d="M 0,0 C 0.38,0.9 0.52,1.88 0.41,2.84 0.34,3.64 0.05,4.4 -0.44,5.03 -1.16,5.93 -2.23,6.479 -3.38,6.54 -5.14,6.65 -6.83,5.8 -7.78,4.31 -8.4,3.31 -8.69,2.15 -8.63,0.979 -8.65,-0.09 -8.25,-1.13 -7.51,-1.9 c 0.65,-0.65 1.51,-1.05 2.42,-1.13 1.23,-0.18 2.47,0.15 3.45,0.9 C -0.95,-1.55 -0.39,-0.82 0,0 M 5.15,3.87 C 5.38,2.02 5.14,0.15 4.45,-1.58 3.77,-3.16 2.69,-4.54 1.32,-5.59 c -1.89,-1.46 -4.26,-2.181 -6.64,-2 -2.37,0.1 -4.59,1.12 -6.21,2.85 -1.35,1.63 -2.02,3.73 -1.87,5.84 0.02,2.25 0.85,4.41 2.34,6.09 1.93,2.19 4.73,3.42 7.65,3.35 2.2,0.08 4.36,-0.65 6.06,-2.04 1.38,-1.18 2.27,-2.83 2.5,-4.63"
             style="fill:#e03a35;fill-opacity:1;fill-rule:nonzero;stroke:none"
             id="path68" /></g><g
           id="g70"
           transform="translate(415.1387,319.3745)"
           style="fill:#e03a35;fill-opacity:1"><path
             d="m 0,0 -1.97,-3.41 c -0.3,0.24 -0.61,0.48 -0.91,0.71 -0.4,0.29 -0.83,0.51 -1.3,0.66 -0.44,0.18 -0.93,0.22 -1.39,0.13 C -6,-2 -6.36,-2.28 -6.55,-2.67 c -0.12,-0.27 -0.13,-0.58 -0.02,-0.87 0.13,-0.29 0.35,-0.54 0.62,-0.71 0.32,-0.22 0.65,-0.42 0.99,-0.61 0.85,-0.43 1.66,-0.93 2.43,-1.49 0.85,-0.56 1.43,-1.45 1.6,-2.45 0.22,-1.1 0.16,-2.24 -0.18,-3.32 -0.38,-1.04 -1.06,-1.94 -1.96,-2.59 -0.96,-0.68 -2.08,-1.12 -3.25,-1.27 -1.39,-0.21 -2.82,-0.08 -4.15,0.38 -1.31,0.51 -2.47,1.35 -3.36,2.44 l 2.37,3.43 c 0.61,-0.65 1.31,-1.22 2.07,-1.69 0.48,-0.23 0.98,-0.38 1.51,-0.46 0.52,-0.07 1.06,-0.02 1.56,0.15 0.52,0.17 0.86,0.66 0.83,1.2 0,0.46 -0.2,0.88 -0.56,1.16 -0.52,0.41 -1.08,0.77 -1.67,1.08 -0.59,0.31 -1.16,0.65 -1.71,1.03 -0.61,0.38 -1.11,0.91 -1.47,1.52 -0.41,0.77 -0.57,1.63 -0.48,2.49 0.11,0.85 0.36,1.68 0.74,2.45 0.62,1 1.53,1.79 2.62,2.26 1.05,0.41 2.18,0.58 3.3,0.49 C -3.78,1.9 -2.87,1.67 -2.02,1.28 -1.3,0.93 -0.62,0.5 0,0"
             style="fill:#e03a35;fill-opacity:1;fill-rule:nonzero;stroke:none"
             id="path72" /></g><g
           id="g74"
           transform="translate(394.0186,280.9248)"
           style="fill:#e03a35;fill-opacity:1"><path
             d="M 0,0 C 0.04,0.35 0.02,0.689 -0.08,1.03 -0.18,1.49 -0.5,1.87 -0.94,2.04 -1.27,2.13 -1.6,2.2 -1.94,2.229 -2.4,2.26 -2.87,2.28 -3.35,2.26 l -0.61,-4.02 c 0.6,-0.02 1.21,0 1.81,0.04 0.47,0.03 0.93,0.17 1.34,0.4 0.44,0.31 0.73,0.79 0.81,1.32 m 0.4,6.81 c 0.09,0.33 0.08,0.68 -0.04,1 -0.1,0.36 -0.39,0.64 -0.74,0.74 -0.26,0.11 -0.54,0.179 -0.82,0.2 -0.38,0.04 -0.76,0.05 -1.14,0.04 L -2.83,5.4 c 0.48,-0.01 0.96,0 1.45,0.05 C -1,5.49 -0.63,5.61 -0.3,5.8 0.04,6.05 0.28,6.4 0.4,6.81 M 4.63,9.26 C 4.89,8.32 4.85,7.32 4.53,6.4 4.23,5.46 3.55,4.689 2.64,4.29 2.18,4.06 1.69,3.9 1.18,3.82 2.14,3.67 3.02,3.21 3.7,2.52 4.28,1.78 4.58,0.86 4.55,-0.07 4.52,-0.91 4.33,-1.74 3.98,-2.51 3.47,-3.51 2.6,-4.271 1.55,-4.65 0.79,-4.86 0.02,-5 -0.77,-5.061 -1.61,-5.12 -2.45,-5.14 -3.29,-5.13 h -5.68 l 2.74,17.2 h 1.95 2.62 c 1.22,0.01 2.44,-0.091 3.64,-0.3 1.24,-0.36 2.23,-1.3 2.65,-2.51"
             style="fill:#e03a35;fill-opacity:1;fill-rule:nonzero;stroke:none"
             id="path76" /></g><g
           id="g78"
           transform="translate(378.1289,282.8643)"
           style="fill:#e03a35;fill-opacity:1"><path
             d="M 0,0 -0.8,4.03 -0.97,5.091 -1.05,5.971 -1.41,4.94 -1.82,3.931 -3.64,0 Z m 2.35,10.131 3.66,-17.2 H 1.34 l -0.69,3.25 h -6.02 l -1.64,-3.25 h -5.01 l 8.62,17.2 z"
             style="fill:#e03a35;fill-opacity:1;fill-rule:nonzero;stroke:none"
             id="path80" /></g><g
           id="g82"
           transform="translate(368.5186,292.9951)"
           style="fill:#e03a35;fill-opacity:1"><path
             d="m 0,0 -9.67,-13.11 h 7.6 L -2.69,-17.2 H -18 l 9.89,13.429 h -6.6 L -14.19,0 Z"
             style="fill:#e03a35;fill-opacity:1;fill-rule:nonzero;stroke:none"
             id="path84" /></g><g
           id="g86"
           transform="translate(360.8486,329.6045)"
           style="fill:#e03a35;fill-opacity:1"><path
             d="M 0,0 C 0.9,-0.07 1.8,-0.14 2.7,-0.2 2.55,-0.86 2.38,-1.52 2.19,-2.18 c -0.03,0.01 -0.07,0.02 -0.1,0.03 -1.64,0.39 -3.23,0.89 -4.79,1.5 -1.04,0.4 -2.06,0.86 -3.06,1.37 C -3.85,0.43 -1.93,0.19 0,0"
             style="fill:#e03a35;fill-opacity:1;fill-rule:nonzero;stroke:none"
             id="path88" /></g><g
           id="g90"
           transform="translate(362.4785,325.6646)"
           style="fill:#e03a35;fill-opacity:1"><path
             d="m 0,0 c -0.25,-0.65 -0.51,-1.29 -0.77,-1.94 -0.78,0.27 -1.54,0.59 -2.29,0.96 -0.24,0.13 -0.49,0.26 -0.73,0.39 C -5.25,0.27 -6.69,1.17 -8.12,2.1 -6.23,1.61 -4.35,1.09 -2.48,0.55 -1.67,0.31 -0.84,0.13 0,0"
             style="fill:#e03a35;fill-opacity:1;fill-rule:nonzero;stroke:none"
             id="path92" /></g><g
           id="g94"
           transform="translate(361.439,296.7148)"
           style="fill:#e03a35;fill-opacity:1"><path
             d="M 0,0 2.58,2.11 H 4.37 L 1.45,-2.021 H -1.74 L -3.16,2.11 h 1.66 z"
             style="fill:#e03a35;fill-opacity:1;fill-rule:nonzero;stroke:none"
             id="path96" /></g><g
           id="g98"
           transform="translate(335.6689,278.6348)"
           style="fill:#e03a35;fill-opacity:1"><path
             d="m 0,0 c -1.58,-1.69 -3.33,-3.22 -5.22,-4.55 -0.68,-0.34 -1.46,-0.42 -2.2,-0.221 -0.43,0.171 -0.87,0.341 -1.3,0.511 1.92,1.02 3.7,2.28 5.3,3.75 1.56,1.47 2.96,3.1 4.17,4.87 0.61,0.83 1.1,1.75 1.43,2.73 0.48,1.36 0.52,2.84 0.12,4.23 -1.83,3.48 -4.31,6.58 -7.29,9.15 -1.58,1.19 -3.16,2.41 -4.72,3.64 1.3,2.15 2.03,4.59 2.13,7.1 0.21,1.92 0.05,3.87 -0.47,5.73 1.14,-0.76 2.3,-1.48 3.5,-2.15 2.54,-1.3 5.2,-2.38 7.93,-3.21 1.93,-0.58 3.93,-0.92 5.95,-1.02 1.09,-0.1 2.13,0.47 2.64,1.44 0.52,2.17 0.54,4.44 0.06,6.61 -0.36,1.53 -0.78,3.03 -1.26,4.52 -1.05,3.24 -2.5,6.34 -4.34,9.21 2.75,-1.74 5.58,-3.36 8.47,-4.85 1.72,-0.9 3.47,-1.73 5.26,-2.49 0.91,-0.43 1.85,-0.82 2.8,-1.17 0.69,-0.26 1.39,-0.49 2.1,-0.7 -0.21,-0.39 -0.45,-0.77 -0.71,-1.14 -0.45,-0.55 -1.18,-0.78 -1.86,-0.57 -1.86,0.58 -3.62,1.42 -5.24,2.49 -2.39,1.7 -4.77,3.43 -7.12,5.19 2.25,-2.85 4.01,-6.06 5.2,-9.5 0.86,-2.5 1.43,-5.09 1.69,-7.72 0.08,-1.4 -0.1,-2.81 -0.52,-4.14 -0.35,-0.92 -0.98,-1.71 -1.8,-2.25 -0.6,-0.32 -1.27,-0.48 -1.95,-0.47 -2.58,-0.05 -5.15,0.37 -7.59,1.24 -2.75,0.76 -5.4,1.84 -7.9,3.21 -0.07,-0.99 -0.19,-1.98 -0.34,-2.96 -0.15,-0.84 -0.37,-1.66 -0.66,-2.46 2.93,-2.54 5.59,-5.38 7.94,-8.47 1.19,-1.56 1.96,-3.4 2.25,-5.34 C 6.47,9.16 6.21,8.1 5.71,7.14 4.05,4.58 2.14,2.18 0,0"
             style="fill:#e03a35;fill-opacity:1;fill-rule:nonzero;stroke:none"
             id="path100" /></g><g
           id="g102"
           transform="translate(330.3389,280.085)"
           style="fill:#e03a35;fill-opacity:1"><path
             d="m 0,0 c -0.42,-0.891 -1.01,-1.681 -1.75,-2.32 -0.98,-1.02 -2.11,-1.88 -3.35,-2.571 -0.73,0.341 -1.45,0.701 -2.16,1.071 1.2,0.48 2.38,1.03 3.52,1.65 1.32,0.59 2.58,1.31 3.74,2.17"
             style="fill:#e03a35;fill-opacity:1;fill-rule:nonzero;stroke:none"
             id="path104" /></g><g
           id="g106"
           transform="translate(328.5586,281.1143)"
           style="fill:#e03a35;fill-opacity:1"><path
             d="m 0,0 c -1.15,-1.02 -2.46,-1.84 -3.87,-2.46 -0.71,-0.409 -1.44,-0.79 -2.19,-1.13 -0.34,-0.16 -0.68,-0.3 -1.03,-0.439 -0.71,0.45 -1.42,0.899 -2.14,1.34 1.27,0.28 2.53,0.58 3.79,0.879 1.85,0.491 3.67,1.09 5.44,1.81"
             style="fill:#e03a35;fill-opacity:1;fill-rule:nonzero;stroke:none"
             id="path108" /></g><g
           id="g110"
           transform="translate(305.1489,351.2949)"
           style="fill:#e03a35;fill-opacity:1"><path
             d="m 0,0 c 1.53,-1.2 3.08,-2.37 4.66,-3.49 -1.05,0.34 -2.09,0.74 -3.1,1.19 -1.52,0.59 -3,1.27 -4.44,2.03 0.32,0.58 0.66,1.15 1.02,1.71 C -1.23,0.97 -0.61,0.49 0,0"
             style="fill:#e03a35;fill-opacity:1;fill-rule:nonzero;stroke:none"
             id="path112" /></g><g
           id="g114"
           transform="translate(325.5688,343.3745)"
           style="fill:#e03a35;fill-opacity:1"><path
             d="M 0,0 C 1.93,-0.77 3.78,-1.72 5.53,-2.84 5.87,-3.3 6.15,-3.8 6.34,-4.33 6.45,-4.87 6.39,-5.42 6.21,-5.91 6.01,-6.45 5.65,-6.93 5.16,-7.27 4.27,-8.14 3.29,-8.92 2.24,-9.59 c -2.27,-1.62 -4.76,-2.92 -7.38,-3.86 2.96,-0.23 5.87,-0.91 8.62,-2.04 1.93,-0.9 3.7,-2.12 5.24,-3.6 -0.58,2.1 -1.06,4.22 -1.44,6.35 -0.37,1.8 -0.56,3.62 -0.56,5.46 -0.03,0.41 0.03,0.81 0.17,1.17 0.34,0.89 1.15,1.56 2.16,1.67 1.16,-0.16 2.29,-0.44 3.4,-0.82 3.3,-1.03 6.67,-1.86 10.08,-2.48 2.35,-0.48 4.73,-0.77 7.13,-0.87 2.53,-0.2 5.08,-0.17 7.6,0.08 0.02,0 0.03,-0.01 0.04,-0.01 0.83,-0.16 1.37,-0.96 1.21,-1.78 -0.05,-0.4 -0.09,-0.8 -0.13,-1.21 -2.87,0.16 -5.73,0.42 -8.59,0.78 -1.88,0.23 -3.76,0.51 -5.64,0.83 -3.44,0.79 -6.91,1.41 -10.4,1.85 -0.6,-0.02 -1.18,-0.23 -1.65,-0.6 -0.56,-0.51 -0.8,-1.29 -0.61,-2.02 0.25,-2.14 0.6,-4.27 1.05,-6.39 0.37,-1.58 0.77,-3.15 1.22,-4.72 0.69,-2.35 1.54,-4.65 2.54,-6.89 -2.25,2.19 -4.73,4.12 -7.4,5.75 -1.88,1.26 -3.88,2.33 -5.97,3.22 -2.15,0.88 -4.34,1.65 -6.57,2.31 -4.59,1.12 -9.26,1.87 -13.97,2.22 3.78,1.81 7.51,3.72 11.19,5.72 1.98,0.83 3.85,1.89 5.57,3.16 0.71,0.42 1.17,1.16 1.22,1.98 0.08,0.51 -0.04,1.03 -0.33,1.46 -0.61,0.7 -1.35,1.28 -2.17,1.71 -4.73,2.74 -9.34,5.68 -13.83,8.8 -1.62,1.32 -3.31,2.55 -5.06,3.68 0.33,0.43 0.67,0.84 1.02,1.25 0.55,0.48 1.36,0.53 1.97,0.13 0.49,-0.4 0.96,-0.84 1.42,-1.29 C -11.75,6.71 -6.13,2.85 0,0"
             style="fill:#e03a35;fill-opacity:1;fill-rule:nonzero;stroke:none"
             id="path116" /></g><g
           id="g118"
           transform="translate(303.8589,347.7148)"
           style="fill:#e03a35;fill-opacity:1"><path
             d="m 0,0 c 1.63,-0.93 3.28,-1.84 4.95,-2.73 -1.64,0.12 -3.26,0.42 -4.82,0.92 -1.2,0.33 -2.36,0.79 -3.46,1.35 0.24,0.66 0.52,1.31 0.84,1.93 C -1.68,0.95 -0.85,0.46 0,0"
             style="fill:#e03a35;fill-opacity:1;fill-rule:nonzero;stroke:none"
             id="path120" /></g><g
           id="g122"
           transform="translate(311.6187,340.7847)"
           style="fill:#e03a35;fill-opacity:1"><path
             d="M 0,0 C 2.59,-0.34 5.19,-0.52 7.8,-0.56 3.04,-2.2 -1.56,-4.28 -5.95,-6.77 c -2.62,-1.24 -4.98,-2.98 -6.95,-5.12 -0.7,-0.83 -0.66,-2.05 0.1,-2.83 1.68,-1.45 3.62,-2.55 5.71,-3.26 3.4,-1.32 6.92,-2.27 10.51,-2.83 -0.11,-3.9 -1.16,-7.7 -3.07,-11.1 -2.39,0.65 -4.9,0.8 -7.35,0.43 0.23,1.28 -0.3,2.59 -1.35,3.37 -0.82,0.7 -2.06,0.61 -2.76,-0.21 -0.2,-0.22 -0.34,-0.5 -0.42,-0.79 -0.1,-0.7 0.03,-1.4 0.34,-2.01 l -1.98,-0.07 c -1.65,1.61 -1.81,4.21 -0.36,6.01 1.21,1.19 2.99,1.59 4.59,1.04 2.13,-0.71 3.64,-2.62 3.83,-4.85 0.28,0.03 0.53,0.14 0.75,0.32 0.98,1.41 1.52,3.08 1.57,4.8 -1.65,0.25 -3.28,0.61 -4.88,1.08 -3.76,0.98 -7.32,2.57 -10.56,4.71 -2.09,1.54 -2.69,4.41 -1.38,6.66 1.55,2.14 3.65,3.82 6.07,4.87 4.32,2.18 8.86,3.91 13.54,5.15 -2.45,0.03 -4.88,0.39 -7.24,1.07 -1.39,0.43 -2.75,0.98 -4.04,1.66 -0.66,0.33 -1.03,1.04 -0.93,1.77 0.12,0.52 0.27,1.04 0.42,1.56 C -9.72,3.39 -7.54,2.3 -5.28,1.41 -3.57,0.76 -1.8,0.29 0,0"
             style="fill:#e03a35;fill-opacity:1;fill-rule:nonzero;stroke:none"
             id="path124" /></g><g
           id="g126"
           transform="translate(299.8286,284.9844)"
           style="fill:#e03a35;fill-opacity:1"><path
             d="M 0,0 C 0.8,-1.14 1.7,-2.21 2.68,-3.189 3.54,-3.93 4.41,-4.67 5.28,-5.39 4.54,-5.51 3.8,-5.609 3.05,-5.699 2.35,-4.92 1.68,-4.109 1.04,-3.279 0.57,-2.229 0.22,-1.13 0,0"
             style="fill:#e03a35;fill-opacity:1;fill-rule:nonzero;stroke:none"
             id="path128" /></g><g
           id="g130"
           transform="translate(297.0088,285.4443)"
           style="fill:#e03a35;fill-opacity:1"><path
             d="M 0,0 C 0.47,-1.449 1.19,-2.8 2.11,-4.01 2.63,-4.8 3.19,-5.569 3.8,-6.3 2.92,-6.33 2.03,-6.31 1.15,-6.25 0.5,-5.239 0.06,-4.109 -0.14,-2.93 -0.35,-1.96 -0.31,-0.949 0,0"
             style="fill:#e03a35;fill-opacity:1;fill-rule:nonzero;stroke:none"
             id="path132" /></g><g
           id="g134"
           transform="translate(331.5088,287.0352)"
           style="fill:#e03a35;fill-opacity:1"><path
             d="m 0,0 c -0.4,-0.841 -0.99,-1.591 -1.7,-2.2 -1.49,-1 -3.08,-1.851 -4.74,-2.53 -2.04,-0.871 -4.13,-1.651 -6.24,-2.34 -0.38,-0.13 -0.76,-0.25 -1.14,-0.37 -0.22,0.089 -0.43,0.23 -0.6,0.4 -0.05,0.06 -0.09,0.13 -0.13,0.21 -0.3,0.649 -0.02,1.409 0.63,1.72 3.53,0.589 6.88,1.95 9.83,3.979 0.21,0.2 0.41,0.401 0.59,0.62 0.16,0.37 0.22,0.771 0.17,1.16 -0.15,0.661 -0.52,1.26 -1.04,1.691 -0.69,0.59 -1.5,1.04 -2.37,1.319 -1.8,-1.25 -3.84,-2.109 -5.99,-2.51 -2.36,-0.57 -4.79,-0.849 -7.22,-0.83 -2.39,0.031 -4.77,0.351 -7.08,0.941 -0.21,-0.781 -0.08,-1.611 0.36,-2.3 0.36,-0.9 0.91,-1.721 1.61,-2.4 0.72,-0.571 1.44,-1.14 2.16,-1.71 0.05,-0.04 0.09,-0.09 0.13,-0.14 0.34,-0.45 0.24,-1.091 -0.21,-1.42 -0.34,-0.131 -0.69,-0.23 -1.05,-0.311 -1.8,1.43 -3.49,3 -5.05,4.691 -0.83,0.85 -1.38,1.939 -1.56,3.109 -0.12,0.571 -0.11,1.151 0.04,1.71 -0.57,0.401 -1.14,0.79 -1.71,1.181 -1.63,-0.811 -2.98,-2.07 -3.89,-3.65 -0.54,-0.991 -0.83,-2.1 -0.85,-3.23 -0.03,-1.61 0.43,-3.19 1.31,-4.53 -0.44,0.09 -0.89,0.149 -1.34,0.2 -0.51,0.1 -0.95,0.42 -1.2,0.88 -0.31,0.68 -0.54,1.399 -0.69,2.139 -0.32,1.561 -0.3,3.17 0.07,4.72 0.88,2.301 2.66,4.13 4.93,5.061 -0.2,0.179 -0.38,0.38 -0.55,0.599 -1.78,-0.559 -3.72,-0.139 -5.12,1.09 -1.3,1.591 -1.53,3.801 -0.6,5.631 -0.79,0.37 -1.54,0.83 -2.23,1.359 -0.88,0.721 -1.49,1.701 -1.74,2.801 -0.38,1.659 -0.07,3.4 0.87,4.81 1.14,1.349 3.01,1.84 4.67,1.22 1.16,-0.51 2.11,-1.411 2.66,-2.561 0.55,1.21 1.65,2.081 2.95,2.351 l 1.98,0.069 c 0.25,-0.48 0.6,-0.9 1.05,-1.23 -0.84,-0.179 -1.63,-0.52 -2.35,-0.989 -0.7,-0.42 -1.34,-0.91 -1.93,-1.471 -0.65,-0.779 -1.35,-1.529 -2.1,-2.219 -0.26,1.02 -0.86,1.92 -1.69,2.57 -1.01,0.589 -2.32,0.26 -2.91,-0.76 -0.01,0 -0.01,-0.01 -0.01,-0.01 -0.35,-0.63 -0.38,-1.4 -0.07,-2.05 0.59,-1.321 1.86,-2.2 3.3,-2.31 -0.26,-1.091 -0.27,-2.21 -0.05,-3.31 0.57,-1.521 1.96,-2.58 3.58,-2.71 1.95,-0.111 3.91,0.12 5.79,0.689 3.07,1.021 5.97,2.501 8.6,4.4 1.18,0.98 2.16,2.201 2.86,3.571 -0.2,-1.22 -0.7,-2.361 -1.45,-3.341 -1.11,-1.5 -2.5,-2.77 -4.09,-3.739 -1.84,-1.18 -3.8,-2.18 -5.84,-2.96 0.97,-0.601 2.04,-1.031 3.15,-1.29 1.69,-0.321 3.41,-0.47 5.14,-0.45 2.41,0.03 4.8,0.5 7.04,1.37 1.53,0.53 2.9,1.429 4,2.62 2.24,-0.74 4.37,-1.771 6.33,-3.071 1.05,-0.75 1.9,-1.729 2.5,-2.86 C 0.17,2.1 0.25,1.029 0,0"
             style="fill:#e03a35;fill-opacity:1;fill-rule:nonzero;stroke:none"
             id="path136" /></g></g></g></g></svg>
