<?xml version="1.0" encoding="UTF-8" standalone="no"?>
<!-- Created with Inkscape (http://www.inkscape.org/) -->

<svg
   xmlns:dc="http://purl.org/dc/elements/1.1/"
   xmlns:cc="http://creativecommons.org/ns#"
   xmlns:rdf="http://www.w3.org/1999/02/22-rdf-syntax-ns#"
   xmlns:svg="http://www.w3.org/2000/svg"
   xmlns="http://www.w3.org/2000/svg"
   xmlns:sodipodi="http://sodipodi.sourceforge.net/DTD/sodipodi-0.dtd"
   xmlns:inkscape="http://www.inkscape.org/namespaces/inkscape"
   version="1.1"
   id="svg2"
   width="351.12436"
   height="174.97495"
   viewBox="0 0 351.12436 174.97495"
   sodipodi:docname="gpsCentrum.svg"
   inkscape:version="0.92.2 2405546, 2018-03-11">
  <metadata
     id="metadata8">
    <rdf:RDF>
      <cc:Work
         rdf:about="">
        <dc:format>image/svg+xml</dc:format>
        <dc:type
           rdf:resource="http://purl.org/dc/dcmitype/StillImage" />
        <dc:title></dc:title>
      </cc:Work>
    </rdf:RDF>
  </metadata>
  <defs
     id="defs6" />
  <sodipodi:namedview
     pagecolor="#ffffff"
     bordercolor="#666666"
     borderopacity="1"
     objecttolerance="10"
     gridtolerance="10"
     guidetolerance="10"
     inkscape:pageopacity="0"
     inkscape:pageshadow="2"
     inkscape:window-width="1787"
     inkscape:window-height="747"
     id="namedview4"
     showgrid="false"
     inkscape:zoom="2.5495161"
     inkscape:cx="144.70955"
     inkscape:cy="71.238448"
     inkscape:window-x="0"
     inkscape:window-y="0"
     inkscape:window-maximized="0"
     inkscape:current-layer="g12" />
  <g
     id="g12"
     transform="translate(-17.195663)">
    <path
       style="fill:#fefefe;stroke-width:0.29727763"
       d="M 17.195663,87.48747 V 0 H 192.75783 368.32001 v 87.48747 87.48747 H 192.75783 17.195663 Z"
       id="path16"
       inkscape:connector-curvature="0" />
    <path
       style="fill:#6b014a;stroke-width:0.31999999"
       d="M 76.160002,131.84 V 115.2 h 1.28 c 1.192157,0 1.28,0.0622 1.28,0.90667 0,1.31975 0.288019,1.41736 1.40441,0.47592 1.53527,-1.29468 3.027949,-1.78594 5.391341,-1.77436 3.772851,0.0185 6.473472,1.98234 7.984704,5.80638 0.579552,1.4665 0.707603,2.44268 0.716928,5.46539 0.0097,3.14394 -0.09939,3.95693 -0.748861,5.58108 -1.382691,3.45773 -4.736883,5.93892 -8.028522,5.93892 -1.543571,0 -4.086595,-0.95466 -5.123683,-1.92344 -0.5632,-0.52611 -1.152771,-0.95656 -1.31016,-0.95656 -0.159338,0 -0.286157,3.04909 -0.286157,6.88 v 6.88 h -1.28 -1.28 z m 11.865063,2.15238 c 2.416825,-1.62869 3.651094,-4.86631 3.433757,-9.00711 -0.109764,-2.09124 -0.315204,-2.92226 -1.06136,-4.29319 -1.978407,-3.63499 -6.559754,-4.56063 -9.350282,-1.88919 -1.573319,1.50617 -2.160474,3.6152 -2.159594,7.75711 6.4e-4,2.98352 0.105101,3.71508 0.68544,4.8 1.314688,2.45775 2.736874,3.3369 5.419655,3.35027 1.51208,0.008 2.196301,-0.15445 3.032384,-0.71789 z m -31.906004,13.59815 c -2.205018,-0.78709 -3.156196,-1.45124 -4.259306,-2.97405 -0.960624,-1.3261 -1.574496,-3.66974 -1.088515,-4.15572 0.152822,-0.15282 0.763721,-0.31901 1.357549,-0.36931 1.02422,-0.0867 1.106185,-0.0145 1.595449,1.40687 1.011984,2.93988 2.826109,4.10168 6.404653,4.10168 3.274887,0 4.854157,-0.79509 6.038298,-3.04 0.581747,-1.10289 1.004534,-8.16 0.488861,-8.16 -0.167469,0 -0.653587,0.37956 -1.080269,0.84347 -1.276298,1.38765 -3.358234,2.14031 -5.924576,2.14184 -2.824192,0.002 -4.711293,-0.83373 -6.516928,-2.88504 -3.9008,-4.43154 -3.77682,-13.27639 0.242441,-17.29566 1.729453,-1.72945 3.637216,-2.45321 6.463284,-2.45201 2.63032,9.6e-4 4.295091,0.63276 5.735779,2.17626 1.034915,1.10877 1.24736,1.05135 1.364902,-0.36886 0.09684,-1.17012 0.131197,-1.2 1.379319,-1.2 h 1.28 l -9.6e-4,12.96 c -9.6e-4,11.56843 -0.0619,13.1344 -0.567181,14.58419 -1.121619,3.21824 -4.040957,4.98056 -8.551703,5.16242 -2.043756,0.0824 -3.127968,-0.036 -4.36094,-0.47608 z m 6.049686,-12.88977 c 1.687133,-0.46852 3.285437,-1.98036 3.970484,-3.75567 0.435433,-1.12844 0.580771,-2.39173 0.580771,-5.04812 0,-3.30729 -0.06387,-3.66761 -0.96,-5.41536 -1.331059,-2.59603 -2.947101,-3.47713 -6.001277,-3.27202 -2.835783,0.19044 -4.36393,1.20411 -5.595328,3.71158 -0.796391,1.62166 -0.882672,2.12976 -0.876055,5.15883 0.0059,2.70568 0.136093,3.64125 0.668509,4.80428 1.516141,3.31189 4.700819,4.79179 8.212896,3.81648 z m 41.129113,2.47222 c -0.82618,-0.23374 -1.76218,-0.62207 -2.08,-0.86297 -1.478891,-1.12096 -2.445457,-2.16523 -2.997691,-3.23869 -0.668592,-1.29965 -0.489222,-1.65105 1.03847,-2.03448 0.72026,-0.18077 0.929591,-0.0713 1.327811,0.69428 1.5387,2.95823 5.58247,4.17493 8.76125,2.63611 1.55525,-0.75288 2.3323,-1.94836 2.3323,-3.58818 0,-2.18332 -1.51897,-3.18397 -6.40632,-4.22028 -4.22753,-0.8964 -6.044221,-2.3945 -6.314481,-5.20713 -0.322464,-3.35596 1.760831,-5.80366 5.533181,-6.50101 2.41764,-0.44692 4.65577,-0.16352 6.77106,0.8574 2.30004,1.11008 3.79481,3.58951 2.47039,4.09773 -1.06855,0.41004 -1.95002,0.18613 -2.37211,-0.60256 -1.34095,-2.50557 -7.42785,-2.80442 -9.0799,-0.4458 -0.52931,0.7557 -0.68583,2.36286 -0.32235,3.31006 0.29094,0.75817 2.18369,1.61763 4.92053,2.2343 4.51056,1.01634 6.3217,2.15389 7.23443,4.54386 1.07467,2.81398 -0.2317,6.05629 -3.06051,7.59592 -1.97496,1.07491 -5.40024,1.39793 -7.75606,0.73144 z m 22.62214,0.14709 c -4.19001,-1.11331 -6.94876,-4.77176 -7.42232,-9.84296 -0.50248,-5.38094 1.95103,-10.10516 6.26316,-12.05967 2.32265,-1.05276 6.04851,-0.96445 8.42296,0.19964 1.16969,0.57345 2.17391,1.37022 2.8,2.22157 1.27018,1.72717 1.25812,2.36858 -0.0499,2.65587 -0.91008,0.19989 -1.13626,0.0957 -2,-0.92111 -2.59378,-3.05349 -7.10226,-3.2156 -9.9639,-0.35826 -1.68029,1.67776 -2.36998,3.68884 -2.36998,6.91067 0,5.58279 2.52672,8.88748 6.81028,8.90715 2.08488,0.01 3.69037,-0.70677 5.0579,-2.25676 1.07354,-1.21678 1.2191,-1.28299 2.23951,-1.01857 0.60023,0.15553 1.1368,0.51888 1.19237,0.80743 0.14919,0.77467 -2.44908,3.44012 -4.04651,4.15116 -1.52286,0.67784 -5.38813,1.01446 -6.93355,0.60384 z m 21.21703,-0.14891 c -4.23173,-1.19261 -6.78437,-4.83922 -7.20385,-10.29116 -0.29045,-3.77504 0.98623,-7.43209 3.38472,-9.69546 0.46315,-0.43707 1.6341,-1.1653 2.6021,-1.61829 2.38143,-1.11442 5.85105,-1.14763 8.06541,-0.0772 1.79815,0.86923 3.9241,3.08416 4.74801,4.94675 0.67544,1.52693 1.2687,4.80301 0.96017,5.30222 -0.1297,0.20986 -3.18063,0.36201 -8.34899,0.41635 l -8.1446,0.0856 -0.10645,1.12 c -0.36751,3.8666 3.07456,7.68 6.93216,7.68 2.51809,0 3.91257,-0.6243 5.85601,-2.62168 1.73407,-1.7822 1.83919,-1.83866 2.8,-1.50372 0.54906,0.19141 0.99828,0.44973 0.99828,0.57405 0,0.41728 -1.82177,3.06398 -2.59889,3.77572 -2.09025,1.91439 -6.74803,2.80752 -9.94408,1.90679 z m 9.28176,-14.18472 c 0.13967,-0.98048 -1.35272,-3.77298 -2.40994,-4.50941 -1.20285,-0.83787 -2.82257,-1.35703 -4.23377,-1.35703 -1.69487,0 -4.38567,1.4484 -5.32346,2.8655 -0.86464,1.30655 -1.49063,3.14777 -1.21941,3.58661 0.0955,0.15455 3.07934,0.24205 6.63073,0.19444 6.34861,-0.0851 6.45873,-0.0982 6.55585,-0.78011 z m 36.70122,14.37767 c -1.73575,-0.29569 -2.11409,-0.47859 -2.63596,-1.27425 -0.49323,-0.75202 -0.58413,-1.9667 -0.72404,-9.67492 l -0.16,-8.81494 -2.08,-0.16 c -2.06223,-0.15863 -2.08,-0.1682 -2.08,-1.12 0,-0.9518 0.0178,-0.96137 2.08,-1.12 l 2.08,-0.16 0.16,-4.48 0.16,-4.48 h 1.28 1.28 l 0.16,4.48 0.16,4.48 2.24,0.16 2.24,0.16 v 0.96 0.96 l -2.24,0.16 -2.24,0.16 v 8.30773 8.30773 l 0.81565,0.45782 c 0.72077,0.40455 0.95157,0.39332 1.98392,-0.0966 0.64254,-0.30491 1.31949,-0.46091 1.50434,-0.34666 0.50465,0.31189 0.40427,1.65604 -0.16629,2.2266 -0.63893,0.63893 -2.62401,1.11079 -3.81762,0.90745 z m 26.66827,-0.12345 c -1.72729,-0.48774 -3.64202,-2.27887 -4.3231,-4.04405 -0.51195,-1.32683 -0.58517,-2.5377 -0.58517,-9.67661 v -8.16 h 1.28 1.28 l 0.16,8.16 c 0.14621,7.45714 0.21606,8.25647 0.81088,9.28 0.93301,1.60547 2.46344,2.31709 4.56229,2.12139 2.13091,-0.19868 3.4737,-0.97635 4.7024,-2.72334 l 0.96443,-1.37126 0.0849,-7.09339 c 0.0467,-3.90137 0.15741,-7.4174 0.2461,-7.8134 0.13415,-0.59909 0.37515,-0.72 1.43513,-0.72 h 1.27391 v 10.88 10.88 h -1.24577 c -1.33135,0 -1.63423,-0.34268 -1.63423,-1.84894 v -0.83661 l -1.04,0.98695 c -0.572,0.54282 -1.50439,1.2209 -2.07198,1.50684 -1.30665,0.65827 -4.37223,0.90375 -5.89975,0.47242 z m -55.11404,-0.78683 c -0.29934,-0.78007 -0.2202,-20.39742 0.0842,-20.87757 0.16157,-0.25484 0.70171,-0.38239 1.3551,-0.32 0.88593,0.0846 1.10411,0.25138 1.18214,0.90374 0.20099,1.68037 0.35111,1.75662 1.43454,0.72868 1.68215,-1.596 2.96285,-2.07979 5.50568,-2.07979 2.61634,0 4.3598,0.70057 5.69633,2.28895 1.51344,1.79862 1.65513,2.78282 1.66167,11.54216 l 0.006,8.16 h -1.28 -1.28 l -0.16,-8.3351 c -0.18094,-9.42598 -0.22881,-9.6186 -2.66495,-10.72469 -2.41431,-1.09617 -4.80176,-0.5997 -6.81231,1.41663 -1.7864,1.79155 -2.04274,3.20438 -2.04274,11.25891 V 136.96 h -1.24576 c -0.84078,0 -1.30891,-0.16455 -1.44,-0.50617 z m 36.43119,0.10357 c -0.085,-0.22143 -0.11645,-5.08143 -0.07,-10.8 l 0.0845,-10.3974 1.08644,-0.10374 c 1.1767,-0.11236 1.62064,0.28663 1.62866,1.46374 0.006,0.94874 0.29305,0.89771 1.4227,-0.25336 1.12856,-1.14996 2.71821,-1.67199 4.6622,-1.53104 1.41249,0.10241 1.44,0.12579 1.44,1.2244 v 1.12 l -1.9353,0.16 c -2.72343,0.22516 -4.24786,1.3089 -5.16036,3.66858 -0.243,0.62839 -0.38425,3.41988 -0.4,7.90525 -0.0134,3.8136 -0.11175,7.1616 -0.21858,7.44 -0.23618,0.61547 -2.31144,0.70008 -2.54034,0.10357 z m 37.12747,0.0195 c -0.0891,-0.23214 -0.12392,-5.1009 -0.0774,-10.81947 l 0.0845,-10.39739 h 1.28 1.28 l 0.16,1.44 0.16,1.44 0.74842,-0.99705 c 2.55477,-3.40346 8.69194,-3.29035 10.68335,0.19689 0.40052,0.70138 0.81709,1.27634 0.9257,1.2777 0.10862,0.001 0.57678,-0.5707 1.04036,-1.27122 1.5467,-2.33722 5.11118,-3.31924 8.26724,-2.27765 1.49551,0.49356 3.02745,2.21948 3.35914,3.78449 0.14068,0.66376 0.25579,4.95084 0.25579,9.52684 v 8.32 h -1.28 -1.28 l -0.16,-8.69488 c -0.15957,-8.67128 -0.16212,-8.69712 -0.93916,-9.52359 -1.67285,-1.77925 -4.83244,-1.7207 -6.67688,0.12373 -1.97967,1.97968 -2.12873,2.6742 -2.30396,10.73474 l -0.16,7.36 h -1.28 -1.28 l -0.16,-8.48 c -0.15488,-8.20825 -0.18359,-8.51307 -0.8961,-9.512 -1.33235,-1.86795 -4.44989,-2.06091 -6.55418,-0.40567 -0.44761,0.35209 -1.15041,1.3236 -1.56178,2.15891 -0.70048,1.42239 -0.7581,1.98577 -0.90794,8.87876 l -0.16,7.36 -1.20258,0.0995 c -0.77691,0.0643 -1.2599,-0.0499 -1.36453,-0.3226 z"
       id="path14"
       inkscape:connector-curvature="0"
       sodipodi:nodetypes="ccsscccssscsscccccscccscccccccscsccsccscsccssccscscccccsccccccsscsccccccccccsscccccscccccccccccccccccsscscccccsccccccsccssccccccccccccccccccsccccsccccscccccscccssccccccccccscccccsccscscccccccscscsccccccccccccccccscscccsccscccscccccccc" />
    <circle
       style="fill:#1a1a1a;fill-opacity:1;stroke:none;stroke-opacity:1"
       id="path39"
       cx="210.30019"
       cy="73.811752"
       r="12.203374" />
    <path
       style="fill:#6b014a;fill-opacity:1;stroke:none;stroke-width:0.06933735;stroke-opacity:1"
       d="m 191.61588,85.904984 c -2.83072,-0.422579 -5.21005,-1.597126 -7.13516,-3.522234 -2.48161,-2.481606 -3.76658,-5.949757 -3.50158,-9.450775 0.45898,-6.063619 5.22109,-10.822778 11.24946,-11.242497 4.97648,-0.346482 9.61803,2.309062 11.80104,6.751658 2.3133,4.707753 1.35649,10.358078 -2.37436,14.021408 -1.01057,0.992287 -2.04741,1.713696 -3.35164,2.332007 -0.95968,0.454965 -1.65444,0.695886 -2.66619,0.924546 -0.66105,0.149398 -0.96604,0.175345 -2.28814,0.194657 -0.83898,0.01226 -1.61902,0.0083 -1.73343,-0.0088 z"
       id="path848"
       inkscape:connector-curvature="0"
       transform="translate(17.195663)" />
    <circle
       style="fill:#6b014a;fill-opacity:1;stroke:none;stroke-opacity:1"
       id="path852"
       cx="288.92874"
       cy="126.02277"
       r="9.8459034" />
    <circle
       style="fill:#6b014a;fill-opacity:1;stroke:none;stroke-width:0.82599121;stroke-opacity:1"
       id="path854"
       cx="289.06741"
       cy="73.742409"
       r="26.001505" />
    <circle
       style="fill:#6b014a;fill-opacity:1;stroke:none;stroke-width:1.0147059;stroke-opacity:1"
       id="path856"
       cx="336.61902"
       cy="73.632187"
       r="6.7659898" />
    <circle
       style="fill:#6b014a;fill-opacity:1;stroke:none;stroke-opacity:1"
       id="path858"
       cx="288.96289"
       cy="29.064907"
       r="6.7659898" />
  </g>
</svg>
