<?xml version="1.0" encoding="UTF-8" standalone="no"?>
<!-- Created with Inkscape (http://www.inkscape.org/) -->

<svg
   xmlns:dc="http://purl.org/dc/elements/1.1/"
   xmlns:cc="http://creativecommons.org/ns#"
   xmlns:rdf="http://www.w3.org/1999/02/22-rdf-syntax-ns#"
   xmlns:svg="http://www.w3.org/2000/svg"
   xmlns="http://www.w3.org/2000/svg"
   xmlns:sodipodi="http://sodipodi.sourceforge.net/DTD/sodipodi-0.dtd"
   xmlns:inkscape="http://www.inkscape.org/namespaces/inkscape"
   version="1.1"
   id="svg2"
   width="907.84003"
   height="394.23999"
   viewBox="0 0 907.84003 394.23999"
   sodipodi:docname="Revos.svg"
   inkscape:version="0.92.2 2405546, 2018-03-11">
  <metadata
     id="metadata8">
    <rdf:RDF>
      <cc:Work
         rdf:about="">
        <dc:format>image/svg+xml</dc:format>
        <dc:type
           rdf:resource="http://purl.org/dc/dcmitype/StillImage" />
        <dc:title></dc:title>
      </cc:Work>
    </rdf:RDF>
  </metadata>
  <defs
     id="defs6" />
  <sodipodi:namedview
     pagecolor="#ffffff"
     bordercolor="#666666"
     borderopacity="1"
     objecttolerance="10"
     gridtolerance="10"
     guidetolerance="10"
     inkscape:pageopacity="0"
     inkscape:pageshadow="2"
     inkscape:window-width="1657"
     inkscape:window-height="668"
     id="namedview4"
     showgrid="false"
     inkscape:zoom="0.51718242"
     inkscape:cx="455.7255"
     inkscape:cy="57.60492"
     inkscape:window-x="0"
     inkscape:window-y="0"
     inkscape:window-maximized="0"
     inkscape:current-layer="svg2" />
  <g
     id="g817">
    <path
       style="fill:#fbfdfc;stroke-width:0.31999999"
       d="M 0,197.11999 V 0 h 453.92001 453.92002 v 197.11999 197.12 H 453.92001 0 Z"
       id="path821"
       inkscape:connector-curvature="0" />
    <path
       style="fill:#01913e;stroke-width:0.31999999"
       d="M 55.520002,393.56565 C 49.71051,393.01977 48.569838,392.80652 43.157288,391.25471 37.229332,389.55516 37.165144,389.527 32.146007,386.42687 20.647579,379.32473 13.973866,372.5398 7.726047,361.59999 4.6404066,356.19708 4.4709137,355.79727 2.9103583,350.23999 1.4348471,344.98556 1.2361334,343.8646 0.64643692,337.46898 0.01008274,330.56735 0,328.37436 0,196.86821 0,65.428741 0.01039751,63.164021 0.64595058,56.171343 1.2499355,49.525996 1.4020133,48.680184 2.986788,43.152332 4.6641867,37.301397 4.7139144,37.187775 7.806246,32.140198 12.417409,24.613454 17.241,18.899361 22.735507,14.45479 25.120036,12.525916 29.348814,9.5408369 32.132795,7.8212798 37.163179,4.7142034 37.23138,4.68426 43.129422,2.9933569 48.683307,1.4011193 49.520482,1.2504368 56.171346,0.64595054 63.253663,0.00225049 64.63942,0 453.92001,0 843.2006,0 844.58636,0.00225049 851.66867,0.64595054 c 6.64141,0.60362616 7.49337,0.75669796 13.00275,2.33616836 5.84019,1.6743197 5.94349,1.7196256 10.98278,4.816687 2.79796,1.719558 7.04436,4.7069131 9.43649,6.6385661 5.48003,4.42513 10.06809,9.852837 14.81449,17.525622 l 3.2433,5.242995 1.69984,5.92914 c 1.59037,5.547398 1.74141,6.386719 2.34576,13.036214 0.63555,6.992742 0.64595,9.257203 0.64595,140.760787 0,132.03193 -0.008,133.73865 -0.65286,140.65282 -0.60586,6.49491 -0.77581,7.42784 -2.35936,12.95143 -1.76752,6.16527 -1.77008,6.17084 -6.45668,14.10361 -0.9358,1.584 -3.32812,4.85469 -5.31628,7.26816 -2.95687,3.58947 -4.43917,5.05171 -8.14397,8.03366 -2.49104,2.00503 -6.73904,4.9896 -9.44,6.63242 -4.80039,2.91971 -5.0434,3.02502 -10.80298,4.68038 -5.51338,1.58461 -6.34902,1.73501 -12.99923,2.33943 -7.08506,0.64393 -8.31891,0.64582 -398.42786,0.60947 C 72.932732,394.16805 61.73989,394.1501 55.520002,393.56565 Z M 849.98249,372.17314 c 6.2192,-0.91565 10.71383,-2.3975 15.23475,-5.02278 3.34244,-1.94093 4.24829,-2.68071 8.54788,-6.98067 4.51894,-4.5194 4.93744,-5.04423 6.93347,-8.69514 2.61453,-4.78211 4.17344,-9.59187 5.05651,-15.60109 0.63859,-4.34547 0.64493,-5.71113 0.64493,-139.07346 0,-132.080357 -0.0122,-134.76723 -0.62685,-138.942449 -0.91565,-6.219213 -2.3975,-10.71384 -5.02278,-15.234781 -1.94093,-3.342429 -2.68093,-4.248553 -6.98276,-8.55039 -4.30182,-4.301836 -5.20796,-5.041832 -8.5504,-6.982757 -4.52092,-2.625277 -9.01555,-4.107118 -15.23475,-5.022779 -4.20973,-0.6198 -8.66089,-0.626845 -396.06248,-0.626845 -387.401582,0 -391.852754,0.007 -396.062456,0.626845 -6.219213,0.915661 -10.71384,2.397502 -15.234781,5.022779 -3.342429,1.940925 -4.248554,2.680921 -8.550391,6.982757 -4.301836,4.301837 -5.041833,5.207961 -6.982757,8.55039 -2.625277,4.520941 -4.107119,9.015568 -5.02278,15.234781 -0.614722,4.175219 -0.626844,6.862092 -0.626844,138.942449 0,133.587 0.0053,134.72089 0.64822,139.10246 0.876675,5.97443 2.357684,10.55382 4.993486,15.44016 2.047374,3.79551 2.375121,4.20943 6.975376,8.80969 4.31807,4.31808 5.22128,5.05597 8.56569,6.99805 4.408723,2.56013 8.956723,4.09165 14.817229,4.98966 3.711094,0.56867 17.006442,0.58963 396.062478,0.62419 387.91204,0.0354 392.26923,0.0288 396.48001,-0.59107 z M 76.306969,332.40012 c -0.08418,-0.22006 -0.115683,-8.82413 -0.07001,-19.12013 l 0.08304,-18.72 30.240001,0.0842 c 16.632,0.0463 47.48401,0.1713 68.56001,0.27778 35.65284,0.18014 38.32,0.15643 38.32,-0.34054 0,-0.29379 -1.908,-3.05529 -4.24,-6.13667 -2.332,-3.08138 -5.37655,-7.21401 -6.76567,-9.18362 -6.41774,-9.09965 -10.01597,-14.0139 -14.98217,-20.46177 -2.94864,-3.82836 -6.63875,-9.01236 -8.20024,-11.52 -1.5615,-2.50764 -3.69707,-5.85535 -4.74573,-7.43935 -1.04866,-1.584 -2.74826,-4.45573 -3.7769,-6.38162 -1.02863,-1.9259 -2.7362,-4.8779 -3.79459,-6.56 -1.05839,-1.68211 -2.8273,-4.87255 -3.93092,-7.08986 -1.10361,-2.21733 -3.19247,-5.96133 -4.6419,-8.32 -1.44943,-2.35868 -4.05569,-7.24052 -5.79167,-10.84852 -8.28489,-17.2189 -11.63009,-23.99282 -11.85022,-23.99625 -0.132,-0.002 -0.24,20.36197 -0.24,45.2534 0,40.71619 -0.0504,45.30759 -0.50285,45.76 -0.44947,0.44946 -3.46934,0.50285 -28.44082,0.50285 -23.113278,0 -28.000104,-0.0749 -28.297787,-0.43356 -0.264771,-0.31902 -0.338519,-21.34606 -0.279184,-79.59999 l 0.08064,-79.16644 28.460041,-0.0817 c 22.55648,-0.0648 28.51295,0.002 28.7151,0.32 0.14029,0.22095 0.25727,11.74174 0.25997,25.60174 0.004,19.95247 0.0882,25.19675 0.40489,25.1844 0.22,-0.009 1.13933,-0.54858 2.04294,-1.2 6.18157,-4.45634 7.60782,-5.52515 10.00829,-7.49998 1.48017,-1.21773 3.71217,-2.92343 4.96,-3.79045 1.24782,-0.86703 3.20478,-2.29908 4.34878,-3.18234 8.39587,-6.48232 10.72145,-8.61971 15.42484,-14.17674 2.94538,-3.47995 3.77084,-4.71148 5.26237,-7.85113 2.36147,-4.97087 3.19658,-9.10558 2.65876,-13.16376 -0.56336,-4.25092 -0.80957,-4.91276 -2.35891,-6.3409 -1.70251,-1.56931 -3.82009,-2.67806 -6.9587,-3.643499 L 173.92001,98.413239 120.32,98.328622 c -29.479997,-0.04654 -53.923998,-0.160263 -54.319998,-0.252717 -0.437645,-0.102179 -0.72,-0.408535 -0.72,-0.781203 0,-0.478484 10.434708,-39.20446 12.657329,-46.974703 l 0.48055,-1.68 h 57.547189 57.54719 l 7.64387,1.117965 c 8.1637,1.19399 13.17144,2.348284 17.16295,3.956092 6.34091,2.55416 12.53467,6.303971 15.48484,9.374797 2.70492,2.815536 9.5077,12.232393 11.24288,15.563129 2.20327,4.229225 3.74911,8.823414 5.08352,15.108016 l 1.1211,5.279999 -0.14315,7.680003 c -0.16906,9.07087 -0.57762,11.45069 -3.31039,19.28316 -2.38737,6.84251 -5.52612,12.61864 -9.63586,17.73255 -0.66111,0.82264 -2.20791,2.76664 -3.43735,4.32 -4.02865,5.09009 -11.93024,12.65745 -18.32825,17.55298 -3.21397,2.45922 -7.24597,5.4506 -8.96,6.64753 -1.71403,1.19692 -3.15776,2.29296 -3.20829,2.43565 -0.16148,0.45592 13.06958,24.39516 15.13723,27.38812 1.09429,1.584 2.84412,4.392 3.88852,6.24 1.04439,1.848 2.71642,4.41487 3.71562,5.70415 0.9992,1.28929 2.5657,3.59329 3.48111,5.12 3.07302,5.12516 10.6852,14.93847 23.62458,30.45585 2.5683,3.08 6.74897,8.192 9.29037,11.36 2.54141,3.168 6.78766,8.208 9.43614,11.2 2.64847,2.992 6.60252,7.6 8.78678,10.24 4.72395,5.7096 9.84998,11.67078 10.5498,12.26862 0.41838,0.35741 25.88551,0.39818 153.30173,0.24538 84.04001,-0.10078 207.80801,-0.22166 275.04001,-0.26862 l 122.24001,-0.0854 v 19.04 19.04 l -383.13,0.0801 c -306.3362,0.0641 -383.16069,-6e-5 -383.283061,-0.32 z M 644.80002,272.28209 c -7.90803,-0.62054 -16.49021,-3.10341 -23.32406,-6.74778 -6.27373,-3.34564 -10.69796,-6.51326 -14.27594,-10.22114 -8.05418,-8.34656 -9.98115,-10.89451 -16.54221,-21.87318 -12.27113,-20.53333 -17.73203,-38.64735 -19.24602,-63.83999 -0.32403,-5.39174 -0.2998,-7.15353 0.17831,-12.96 0.94067,-11.42462 1.68067,-14.21687 6.22067,-23.47262 2.94381,-6.00159 5.91952,-10.3023 9.97831,-14.42139 9.00937,-9.14328 17.39356,-12.9594 34.20265,-15.56758 l 7.24371,-1.12397 21.14228,0.10614 21.1423,0.10615 5.12,0.86946 c 10.03619,1.70432 15.19523,3.24714 21.57885,6.45318 7.64154,3.83782 16.06186,12.16379 20.72275,20.49063 4.2752,7.63776 5.30487,10.63917 6.97012,20.31755 1.32691,7.7119 1.3448,8.52217 0.50518,22.88245 -0.89213,15.25865 -1.44656,18.27273 -6.12166,33.27999 -2.57556,8.26762 -8.80864,22.48289 -12.52644,28.56804 -4.60032,7.5296 -7.99552,11.88783 -14.36323,18.43719 -6.42045,6.60363 -8.77443,8.41456 -16.12557,12.40541 -2.92499,1.58795 -4.83126,2.3623 -8,3.24974 -5.82637,1.63174 -11.02617,2.68461 -14.4,2.91575 -1.584,0.10852 -3.672,0.25073 -4.64,0.31603 -0.968,0.0653 -3.416,-0.0112 -5.44,-0.17006 z m 7.69719,-47.20874 c 1.20377,-0.58479 2.80041,-1.9186 5.16233,-4.31258 3.01383,-3.05477 3.59133,-3.82631 4.86784,-6.5036 0.79661,-1.67071 2.33043,-4.59005 3.40855,-6.48742 2.26265,-3.98211 3.22592,-6.36917 4.14294,-10.26661 0.36016,-1.53073 1.00803,-3.86314 1.43971,-5.18314 2.89456,-8.85072 3.90125,-23.91936 2.09159,-31.30687 -0.76804,-3.13528 -2.54724,-6.35809 -4.54506,-8.23293 -5.44026,-5.10529 -10.19914,-6.7027 -19.94509,-6.69499 -7.8871,0.006 -10.70125,0.59209 -16.44576,3.42367 -2.07398,1.02231 -5.47424,3.99642 -5.47424,4.78816 0,0.23787 -0.43514,1.32442 -0.96698,2.41455 -1.18064,2.41996 -1.57267,5.77643 -1.58476,13.56794 -0.009,5.84184 1.17254,18.57495 2.10467,22.68047 0.50531,2.22546 3.77475,11.2969 5.1343,14.24562 1.49181,3.23557 5.22317,9.34267 7.36432,12.05321 2.66967,3.37958 3.63092,4.23602 6.34845,5.65632 2.49203,1.30243 4.44931,1.34733 6.89719,0.1582 z m -302.7372,42.72553 c -2.376,-0.14774 -6.62422,-0.55634 -9.44048,-0.908 -4.69478,-0.58621 -5.8255,-0.86878 -13.6,-3.39866 -7.21707,-2.34848 -9.13826,-3.11382 -12.90408,-5.14051 -8.60399,-4.63053 -14.04164,-8.6174 -23.06568,-16.91172 -7.8883,-7.2504 -17.95696,-21.20895 -21.52456,-29.84026 -5.2058,-12.5947 -7.32575,-19.87861 -8.49071,-29.17301 -0.54113,-4.31721 -0.67161,-7.24595 -0.69982,-15.70672 -0.0335,-10.05638 -0.004,-10.58503 0.89245,-16 1.09707,-6.62655 3.92435,-15.52373 6.7622,-21.28 1.48486,-3.01187 2.28834,-4.14362 5.56601,-7.84 4.30179,-4.85135 5.41834,-5.80902 10.42467,-8.94123 7.31904,-4.57918 16.53051,-7.38728 31.2,-9.51129 5.67181,-0.82122 6.5975,-0.8624 22.08,-0.9823 17.99824,-0.13938 20.55223,0.003 29.6057,1.65223 6.69145,1.21885 14.69398,3.69134 18.60454,5.74814 2.6737,1.40626 7.20071,4.7707 10.10432,7.50949 3.62042,3.41485 8.20746,12.11168 8.72733,16.54661 0.1224,1.04409 0.49603,3.15682 0.83034,4.69496 0.47661,2.193 0.60739,4.09237 0.60595,8.8 -0.003,5.56177 -0.0825,6.40356 -1.09882,11.44339 -1.14819,5.69387 -2.99456,11.56807 -4.82787,15.36 -2.82557,5.84419 -12.16218,17.8594 -16.0352,20.63554 -0.85594,0.61355 -2.92429,2.41881 -4.59629,4.01168 -3.91763,3.73222 -6.22125,5.54687 -13.62153,10.73027 -6.41917,4.49621 -12.11943,8.15481 -15.41847,9.89606 -1.92685,1.017 -2.29696,1.38515 -1.7391,1.72992 0.45245,0.27963 7.48733,1.84246 9.6591,2.14582 4.74186,0.66235 11.18083,0.89769 25.00083,0.91374 11.27927,0.0131 14.67389,0.10796 14.92209,0.41696 0.39977,0.49776 -12.08826,43.04431 -12.75879,43.46895 -0.55498,0.35146 -29.30653,0.29418 -35.16413,-0.0701 z M 318.16914,187.8011 c 1.09498,-0.5494 3.18101,-1.77157 4.63564,-2.71593 1.45459,-0.94436 3.25459,-2.02597 4,-2.40356 0.74537,-0.3776 2.44918,-1.49543 3.78624,-2.48408 1.33702,-0.98864 3.83782,-2.80553 5.55734,-4.03753 6.21648,-4.45408 7.09428,-5.15684 9.78919,-7.83722 3.54713,-3.52801 4.10985,-4.32571 5.75824,-8.16278 1.18685,-2.76271 1.37417,-3.50611 1.37088,-5.44 -0.004,-2.66033 -0.76487,-4.60622 -2.41027,-6.16844 -0.9553,-0.90699 -1.60842,-1.15521 -4.84151,-1.84 -7.19229,-1.52336 -16.652,-0.62973 -22.47936,2.12357 -2.82464,1.33457 -6.46271,4.99149 -7.81668,7.8572 -3.2279,6.83185 -3.65914,17.20969 -1.16413,28.01456 0.83377,3.61071 1.01212,4.09311 1.5133,4.09311 0.17063,0 1.20613,-0.44951 2.30112,-0.9989 z m 143.34774,80.09317 c -0.22173,-0.14077 -11.86989,-36.65761 -25.88477,-81.14856 -20.59622,-65.38374 -25.39635,-80.94662 -25.03686,-81.17427 0.24665,-0.15619 12.15091,-0.28383 26.7256,-0.28654 20.64454,-0.004 26.34979,0.0809 26.60243,0.3951 0.1769,0.22 5.80813,22 12.51389,48.4 14.00457,55.1348 13.69053,53.91433 13.93667,54.16049 0.1024,0.10239 0.25306,0.11928 0.33482,0.0375 0.0818,-0.0818 2.89558,-10.72576 6.25296,-23.65334 3.35737,-12.92757 7.60096,-29.26468 9.4302,-36.30468 2.89399,-11.13785 9.87732,-38.0747 10.76314,-41.51678 0.21363,-0.8301 0.52509,-1.24926 1.01651,-1.36806 0.3897,-0.0942 12.4426,-0.13166 26.7842,-0.0832 24.15932,0.0816 26.08326,0.1277 26.17948,0.6275 0.0571,0.2967 -3.9495,13.5447 -8.90361,29.44 -4.95415,15.89531 -11.74397,37.68456 -15.08855,48.42056 -3.34457,10.736 -7.49472,24.05599 -9.22249,29.59999 -12.03488,38.61653 -16.64048,53.44289 -16.64048,53.56917 0,0.0798 -0.22627,0.37141 -0.50285,0.64798 -0.44986,0.44986 -3.57776,0.50234 -29.68,0.49795 -16.04743,-0.003 -29.35856,-0.12007 -29.58029,-0.26082 z m 289.42442,-0.13428 c -0.6655,-0.49202 -13.82118,-42.44808 -13.432,-42.83728 0.14532,-0.1453 9.40516,-0.32275 20.57748,-0.39433 11.17229,-0.0716 20.91027,-0.23344 21.63997,-0.3597 1.84483,-0.31921 3.33452,-1.89358 3.54006,-3.74129 0.28218,-2.53669 -2.64026,-7.24264 -12.68563,-20.4274 C 767.16182,195.512 761.67587,188.312 758.3902,184 c -3.28563,-4.312 -6.66435,-8.92 -7.50826,-10.24 -0.84387,-1.32 -2.14115,-3.192 -2.88278,-4.16 -0.74163,-0.968 -1.64285,-2.336 -2.00266,-3.04 -0.3598,-0.704 -0.9976,-1.60034 -1.41731,-1.99186 -1.45225,-1.35475 -4.39587,-8.41989 -5.17536,-12.42165 -1.60569,-8.24339 -1.54301,-12.49664 0.26573,-18.03068 1.59021,-4.86534 2.12195,-6.04888 4.24928,-9.4581 3.66573,-5.87468 8.06733,-10.47711 12.37946,-12.94433 3.02422,-1.73032 9.36653,-4.31404 12.58726,-5.12777 1.36096,-0.34385 3.8728,-0.77828 5.58186,-0.9654 3.68141,-0.40306 50.11882,-0.46606 50.7449,-0.0688 0.40992,0.26008 12.86771,40.93754 12.86771,42.01595 0,0.53079 -0.95632,0.57036 -15.92,0.6587 l -15.92,0.094 -2.23572,0.8 c -2.15161,0.76989 -2.27043,0.86828 -3.15772,2.61472 l -0.92202,1.81473 0.57488,1.8277 c 0.31619,1.00524 1.23315,2.69475 2.03773,3.75447 0.80457,1.05972 1.80998,2.44185 2.23424,3.07141 0.42425,0.62956 5.75843,7.33943 11.85373,14.91081 12.05133,14.96984 15.60915,19.5633 16.48701,21.28615 0.31388,0.616 1.03913,1.768 1.61168,2.56 0.57254,0.792 1.9318,3.22153 3.02057,5.39895 4.43322,8.86595 5.65027,13.97257 5.57712,23.40105 -0.0375,4.8311 -0.0718,5.06812 -1.32045,9.12 -2.41004,7.82042 -5.44864,13.15318 -10.05241,17.64201 -2.61303,2.54779 -7.81869,6.27626 -10.99223,7.87299 -1.96131,0.98682 -8.78089,2.9453 -11.89773,3.41684 -3.50358,0.53006 -57.39536,0.48199 -58.11741,-0.0518 z"
       id="path819"
       inkscape:connector-curvature="0" />
  </g>
</svg>
