<?xml version="1.0" encoding="UTF-8" standalone="no"?>
<!-- Generator: Adobe Illustrator 19.0.0, SVG Export Plug-In . SVG Version: 6.00 Build 0)  -->

<svg
   version="1.1"
   id="Vrstva_1"
   x="0px"
   y="0px"
   viewBox="0 0 82.5 60.5"
   xml:space="preserve"
   sodipodi:docname="CEZ.svg"
   style="enable-background:new 0 0 82.5 60.5;"
   inkscape:version="1.1.1 (3bf5ae0d25, 2021-09-20)"
   xmlns:inkscape="http://www.inkscape.org/namespaces/inkscape"
   xmlns:sodipodi="http://sodipodi.sourceforge.net/DTD/sodipodi-0.dtd"
   xmlns="http://www.w3.org/2000/svg"
   xmlns:svg="http://www.w3.org/2000/svg"><defs
   id="defs885" /><sodipodi:namedview
   id="namedview883"
   pagecolor="#ffffff"
   bordercolor="#666666"
   borderopacity="1.0"
   inkscape:pageshadow="2"
   inkscape:pageopacity="0.0"
   inkscape:pagecheckerboard="0"
   showgrid="false"
   inkscape:zoom="7.0416757"
   inkscape:cx="22.79287"
   inkscape:cy="22.863876"
   inkscape:window-width="1920"
   inkscape:window-height="1011"
   inkscape:window-x="0"
   inkscape:window-y="32"
   inkscape:window-maximized="1"
   inkscape:current-layer="Vrstva_1" />
<style
   type="text/css"
   id="style875">
	.st0{fill:#606A70;}
	.st1{fill:#F15A22;}
</style>
<g
   id="XMLID_1_">
	<path
   class="st0"
   d="M0,50.9h1.2l5.6,6.4v-6.2h1.8v9.4H7.4l-5.6-6.4v6.2H0V50.9 M13,58.3h3.8l0.8,1.9h1.9l-3.9-9.4h-1.4l-4,9.4h1.9   L13,58.3 M16.2,56.9h-2.6l1.3-3.3L16.2,56.9z M21,51.1v9.2h2.6c1.4,0,2.4-0.3,3.3-1.1c1-0.9,1.7-2.2,1.7-3.5c0-1.4-0.6-2.7-1.6-3.5   c-0.9-0.7-1.9-1.1-3.3-1.1H21 M22.8,58.7v-6.1h0.5c1.2,0,1.9,0.2,2.5,0.7c0.6,0.6,1,1.4,1,2.3c0,0.9-0.4,1.8-1,2.3   c-0.6,0.5-1.3,0.7-2.5,0.7H22.8z M31.9,58.3h3.8l0.8,1.9h1.9l-3.9-9.4h-1.4l-4,9.4h1.9L31.9,58.3 M35.1,56.9h-2.6l1.3-3.3   L35.1,56.9z M46.2,53.6v-2.1c-0.8-0.4-1.4-0.6-2.2-0.6c-2.7,0-4.9,2.2-4.9,4.9c0,2.7,2.2,4.8,4.9,4.8c0.8,0,1.4-0.2,2.2-0.5v-2.1   c-0.7,0.7-1.3,1-2.2,1c-1.7,0-3.1-1.3-3.1-3.1c0-1.8,1.3-3.2,3-3.2C44.8,52.5,45.5,52.8,46.2,53.6 M50.2,52.6h3.3v-1.6h-5.1v9.2   h5.1v-1.6h-3.3v-2.5h3.2v-1.6h-3.2V52.6 M66.3,53.6v-2.1c-0.8-0.4-1.4-0.6-2.3-0.6c-2.7,0-4.9,2.2-4.9,4.9c0,2.7,2.2,4.8,4.9,4.8   c0.8,0,1.4-0.2,2.3-0.5v-2.1c-0.7,0.7-1.4,1-2.2,1c-1.7,0-3-1.3-3-3.1c0-1.8,1.3-3.2,3-3.2C64.9,52.5,65.6,52.8,66.3,53.6    M61.5,48.3l2.3,1.9l2.4-1.9l-0.9-0.8l-1.5,1.2l-1.5-1.2L61.5,48.3z M70.3,52.6h3.3v-1.6h-5.1v9.2h5.1v-1.6h-3.3v-2.5h3.2v-1.6   h-3.2V52.6 M82.2,58.7H78l4.5-7.6h-6.8v1.6h3.8L75,60.3h7.2V58.7"
   id="path877" />
	<path
   class="st1"
   d="M12.9,16.1v8.1h8.1v16.1H29V24.2h8.1v16.1h8.1V24.2h8.1v16.1h8.1V24.2h8.1v-8.1H12.9z M29,0h-8.1v8.1H29V0z    M45.1,0h-8.1v8.1h8.1V0z M61.3,0h-8.1v8.1h8.1V0z"
   id="path879" />
</g>
</svg>
