<?xml version="1.0" encoding="UTF-8" standalone="no"?>
<svg
   xmlns:dc="http://purl.org/dc/elements/1.1/"
   xmlns:cc="http://creativecommons.org/ns#"
   xmlns:rdf="http://www.w3.org/1999/02/22-rdf-syntax-ns#"
   xmlns:svg="http://www.w3.org/2000/svg"
   xmlns="http://www.w3.org/2000/svg"
   xmlns:sodipodi="http://sodipodi.sourceforge.net/DTD/sodipodi-0.dtd"
   xmlns:inkscape="http://www.inkscape.org/namespaces/inkscape"
   version="1.1"
   id="svg2"
   xml:space="preserve"
   width="939.61731"
   height="95.9916"
   viewBox="0 0 939.61728 95.991599"
   sodipodi:docname="jmk.svg"
   inkscape:version="1.0.2 (e86c870879, 2021-01-15)"><metadata
     id="metadata8"><rdf:RDF><cc:Work
         rdf:about=""><dc:format>image/svg+xml</dc:format><dc:type
           rdf:resource="http://purl.org/dc/dcmitype/StillImage" /><dc:title></dc:title></cc:Work></rdf:RDF></metadata><defs
     id="defs6"><clipPath
       clipPathUnits="userSpaceOnUse"
       id="clipPath18"><path
         d="M 0,198.973 H 831.22 V 0 H 0 Z"
         id="path16" /></clipPath></defs><sodipodi:namedview
     pagecolor="#ffffff"
     bordercolor="#666666"
     borderopacity="1"
     objecttolerance="10"
     gridtolerance="10"
     guidetolerance="10"
     inkscape:pageopacity="0"
     inkscape:pageshadow="2"
     inkscape:window-width="985"
     inkscape:window-height="480"
     id="namedview4"
     showgrid="false"
     inkscape:zoom="0.46521491"
     inkscape:cx="540.24779"
     inkscape:cy="106.15679"
     inkscape:window-x="26"
     inkscape:window-y="23"
     inkscape:window-maximized="0"
     inkscape:current-layer="g10" /><g
     id="g10"
     inkscape:groupmode="layer"
     inkscape:label="Logotyp_jihomoravsky_kraj_RGB"
     transform="matrix(1.3333333,0,0,-1.3333333,-84.658665,180.624)"><g
       id="g12"><g
         id="g14"
         clip-path="url(#clipPath18)"><path
           d="M 83.537,124.163 H 71.111 v 11.305 H 83.537 Z M 63.735,63.635 63.494,73.736 c 1.042,-0.08 1.042,-0.08 1.844,-0.08 3.929,0 6.013,2.646 6.013,7.296 v 38.16 H 83.056 V 79.349 c 0,-9.702 -6.414,-15.874 -16.355,-15.874 -0.802,0 -2.966,0.16 -2.966,0.16"
           style="fill:#1d34fe;fill-opacity:1;fill-rule:nonzero;stroke:none"
           id="path20" /><path
           d="m 94.281,119.112 h 11.785 V 78.707 H 94.281 Z m 12.185,5.051 H 94.04 v 11.305 h 12.426 z"
           style="fill:#1d34fe;fill-opacity:1;fill-rule:nonzero;stroke:none"
           id="path22" /><g
           id="g24"
           transform="translate(117.6104,135.4678)"><path
             d="m 0,0 h 11.785 v -21.807 c 2.485,3.768 6.894,6.093 12.266,6.093 9.139,0 15.072,-5.772 15.072,-14.751 V -56.761 H 27.418 v 23.249 c 0,4.49 -2.806,7.376 -7.135,7.376 -5.612,0 -8.498,-4.65 -8.498,-12.987 V -56.761 H 0 Z"
             style="fill:#1d34fe;fill-opacity:1;fill-rule:nonzero;stroke:none"
             id="path26" /></g><g
           id="g28"
           transform="translate(196.1406,98.9102)"><path
             d="m 0,0 c 0,6.413 -3.848,10.822 -9.54,10.822 -5.773,0 -9.621,-4.409 -9.621,-10.822 0,-6.414 3.848,-10.823 9.621,-10.823 C -3.848,-10.823 0,-6.414 0,0 m -30.865,0 c 0,12.025 8.819,20.844 21.325,20.844 12.346,0 21.325,-8.819 21.325,-20.844 0,-12.025 -8.979,-20.845 -21.325,-20.845 -12.506,0 -21.325,8.82 -21.325,20.845"
             style="fill:#1d34fe;fill-opacity:1;fill-rule:nonzero;stroke:none"
             id="path30" /></g><g
           id="g32"
           transform="translate(217.3877,119.1123)"><path
             d="m 0,0 h 11.785 v -5.451 c 2.325,3.607 6.012,6.093 11.384,6.093 6.253,0 10.182,-2.566 12.185,-7.215 2.165,3.847 7.056,7.215 13.629,7.215 8.739,0 14.511,-5.853 14.511,-13.549 V -55.638 H 51.79 v 39.284 c 0,4.409 -2.406,7.134 -6.575,7.134 -4.89,0 -7.696,-4.008 -7.696,-10.502 V -55.638 H 25.895 v 39.284 c 0,4.409 -2.405,7.134 -6.494,7.134 -4.81,0 -7.616,-4.088 -7.616,-10.502 V -55.638 H 0 Z"
             style="fill:#fb5271;fill-opacity:1;fill-rule:nonzero;stroke:none"
             id="path34" /></g><g
           id="g36"
           transform="translate(321.291,98.9102)"><path
             d="m 0,0 c 0,6.413 -3.848,10.822 -9.54,10.822 -5.773,0 -9.621,-4.409 -9.621,-10.822 0,-6.414 3.848,-10.823 9.621,-10.823 C -3.848,-10.823 0,-6.414 0,0 m -30.865,0 c 0,12.025 8.819,20.844 21.325,20.844 12.346,0 21.325,-8.819 21.325,-20.844 0,-12.025 -8.979,-20.845 -21.325,-20.845 -12.506,0 -21.325,8.82 -21.325,20.845"
             style="fill:#1d34fe;fill-opacity:1;fill-rule:nonzero;stroke:none"
             id="path38" /></g><g
           id="g40"
           transform="translate(364.6641,108.7705)"><path
             d="m 0,0 c -5.291,0 -10.342,-4.009 -10.342,-15.473 v -14.59 h -11.784 v 40.405 h 11.784 V 3.367 c 1.844,4.329 7.055,7.616 11.865,7.616 1.363,0 3.207,-0.24 4.33,-0.641 L 5.131,-0.962 C 3.768,-0.32 1.844,0 0,0"
             style="fill:#1d34fe;fill-opacity:1;fill-rule:nonzero;stroke:none"
             id="path42" /></g><g
           id="g44"
           transform="translate(401.2617,95.4629)"><path
             d="m 0,0 v 0.08 0.24 0.321 l -7.536,-0.882 c -4.008,-0.401 -6.013,-2.405 -6.013,-4.73 0,-2.245 1.764,-4.008 5.051,-4.008 C -3.207,-8.979 -0.08,-4.73 0,0 M 11.384,7.215 V -16.756 H 0 v 5.131 c -2.325,-3.527 -6.895,-5.772 -11.384,-5.772 -7.857,0 -13.388,5.291 -13.388,12.025 0,8.018 5.852,12.347 17.477,13.549 L 0,8.898 v 0.241 c 0,4.008 -2.726,6.414 -7.055,6.414 -3.848,0 -6.654,-2.325 -7.055,-6.254 l -10.262,1.925 c 1.283,7.936 8.659,13.067 17.317,13.067 10.983,0 18.439,-5.692 18.439,-17.076"
             style="fill:#1d34fe;fill-opacity:1;fill-rule:nonzero;stroke:none"
             id="path46" /></g><g
           id="g48"
           transform="translate(419.2603,119.1123)"><path
             d="M 0,0 H 11.784 L 19.962,-26.776 28.138,0 H 40.003 L 25.333,-40.405 H 14.671 Z"
             style="fill:#1d34fe;fill-opacity:1;fill-rule:nonzero;stroke:none"
             id="path50" /></g><g
           id="g52"
           transform="translate(463.9116,90.1709)"><path
             d="m 0,0 9.459,3.688 c 0.963,-3.768 4.09,-6.894 8.578,-6.894 3.127,0 5.211,1.522 5.211,3.768 0,6.333 -21.404,2.084 -21.404,17.396 0,6.334 5.531,11.625 14.429,11.625 8.258,0 15.073,-4.009 16.916,-9.861 L 23.73,15.794 c -1.043,3.687 -4.33,5.371 -7.054,5.371 -2.647,0 -4.49,-1.122 -4.49,-2.886 0,-6.414 21.726,-1.123 21.726,-17.477 0,-6.975 -6.414,-12.907 -15.875,-12.907 C 8.178,-12.105 2.084,-6.093 0,0"
             style="fill:#1d34fe;fill-opacity:1;fill-rule:nonzero;stroke:none"
             id="path54" /></g><g
           id="g56"
           transform="translate(524.1577,95.3828)"><path
             d="M 0,0 -4.408,-4.41 V -16.676 H -16.273 V 40.085 H -4.408 V 10.502 L 9.061,23.729 h 14.75 L 7.857,7.856 25.014,-16.676 h -14.03 z"
             style="fill:#1d34fe;fill-opacity:1;fill-rule:nonzero;stroke:none"
             id="path58" /></g><g
           id="g60"
           transform="translate(575.4312,123.6016)"><path
             d="m 0,0 h -8.258 l 4.651,11.866 H 9.781 Z M 18.52,-4.489 -2.807,-59.485 h -12.025 l 6.414,16.594 -15.553,38.402 h 12.746 l 8.661,-23.409 9.058,23.409 z"
             style="fill:#1d34fe;fill-opacity:1;fill-rule:nonzero;stroke:none"
             id="path62" /></g><g
           id="g64"
           transform="translate(643.2495,95.3828)"><path
             d="M 0,0 -4.41,-4.41 V -16.676 H -16.275 V 40.085 H -4.41 V 10.502 L 9.059,23.729 H 23.811 L 7.857,7.856 25.014,-16.676 H 10.982 Z"
             style="fill:#1d34fe;fill-opacity:1;fill-rule:nonzero;stroke:none"
             id="path66" /></g><g
           id="g68"
           transform="translate(695.7671,108.7705)"><path
             d="m 0,0 c -5.291,0 -10.342,-4.009 -10.342,-15.473 v -14.59 h -11.785 v 40.405 h 11.785 V 3.367 c 1.844,4.329 7.055,7.616 11.865,7.616 1.364,0 3.207,-0.24 4.331,-0.641 L 5.131,-0.962 C 3.77,-0.32 1.844,0 0,0"
             style="fill:#1d34fe;fill-opacity:1;fill-rule:nonzero;stroke:none"
             id="path70" /></g><g
           id="g72"
           transform="translate(730.3647,95.4629)"><path
             d="m 0,0 v 0.08 0.24 0.321 l -7.535,-0.882 c -4.008,-0.401 -6.014,-2.405 -6.014,-4.73 0,-2.245 1.764,-4.008 5.051,-4.008 C -3.207,-8.979 -0.08,-4.73 0,0 M 11.385,7.215 V -16.756 H 0 v 5.131 c -2.324,-3.527 -6.895,-5.772 -11.383,-5.772 -7.857,0 -13.388,5.291 -13.388,12.025 0,8.018 5.851,12.347 17.476,13.549 L 0,8.898 v 0.241 c 0,4.008 -2.725,6.414 -7.055,6.414 -3.847,0 -6.654,-2.325 -7.054,-6.254 l -10.262,1.925 c 1.283,7.936 8.658,13.067 17.316,13.067 10.985,0 18.44,-5.692 18.44,-17.076"
             style="fill:#1d34fe;fill-opacity:1;fill-rule:nonzero;stroke:none"
             id="path74" /></g><path
           d="m 768.207,124.163 h -12.426 v 11.305 h 12.426 z m -19.803,-60.528 -0.24,10.101 c 1.043,-0.08 1.043,-0.08 1.843,-0.08 3.93,0 6.014,2.646 6.014,7.296 v 38.16 h 11.705 V 79.349 c 0,-9.702 -6.414,-15.874 -16.355,-15.874 -0.801,0 -2.967,0.16 -2.967,0.16"
           style="fill:#1d34fe;fill-opacity:1;fill-rule:nonzero;stroke:none"
           id="path76" /></g></g></g></svg>
