<?xml version="1.0" standalone="no"?>
<!DOCTYPE svg PUBLIC "-//W3C//DTD SVG 20010904//EN"
 "http://www.w3.org/TR/2001/REC-SVG-20010904/DTD/svg10.dtd">
<svg version="1.0" xmlns="http://www.w3.org/2000/svg"
 width="1208.000000pt" height="330.000000pt" viewBox="0 0 1208.000000 330.000000"
 preserveAspectRatio="xMidYMid meet">

<g transform="translate(0.000000,330.000000) scale(0.100000,-0.100000)"
fill="#000000" stroke="none">
<path d="M5198 2980 c-82 -14 -150 -69 -187 -150 -20 -44 -21 -61 -21 -875 0
-814 1 -831 21 -875 24 -54 50 -83 104 -119 l40 -26 970 0 c942 0 971 1 1000
19 53 34 86 70 111 118 l24 47 0 839 0 838 -25 51 c-26 51 -60 84 -125 119
-34 18 -72 19 -950 20 -503 1 -936 -2 -962 -6z m1282 -280 l0 -90 -120 0 -120
0 0 -660 0 -660 120 0 120 0 0 -90 0 -90 -370 0 -370 0 0 90 0 90 120 0 120 0
0 660 0 660 -120 0 -120 0 0 90 0 90 370 0 370 0 0 -90z"/>
<path d="M4017 2724 c-218 -48 -370 -164 -468 -357 -61 -119 -82 -223 -82
-397 0 -116 4 -163 22 -235 52 -213 172 -372 341 -453 127 -62 199 -76 375
-76 134 -1 160 2 248 27 54 16 133 43 175 62 l77 34 3 115 c2 80 -1 116 -8
116 -6 0 -40 -20 -74 -45 -172 -122 -373 -170 -545 -130 -194 46 -336 205
-377 426 -19 100 -14 281 10 372 67 248 244 387 493 387 153 0 290 -47 418
-144 33 -25 66 -46 73 -46 9 0 12 30 12 119 l0 119 -87 37 c-140 58 -228 76
-393 81 -105 3 -164 -1 -213 -12z"/>
<path d="M737 2713 c-4 -3 -7 -339 -7 -745 l0 -738 475 0 475 0 0 85 0 85
-365 0 -365 0 0 660 0 660 -103 0 c-57 0 -107 -3 -110 -7z"/>
<path d="M1950 2195 c0 -573 4 -620 58 -735 55 -117 182 -209 339 -244 91 -20
293 -21 385 -1 191 40 321 157 376 338 13 44 16 135 19 610 l4 558 -108 -3
-108 -3 -5 -550 c-4 -388 -9 -560 -18 -585 -19 -56 -68 -121 -113 -152 -69
-46 -136 -61 -263 -57 -102 4 -117 7 -178 37 -70 34 -105 71 -141 150 -22 46
-22 58 -27 602 l-5 555 -107 3 -108 3 0 -526z"/>
<path d="M7470 1975 l0 -745 110 0 110 0 0 355 0 355 365 0 365 0 0 90 0 90
-365 0 -365 0 0 210 0 210 380 0 380 0 0 90 0 90 -490 0 -490 0 0 -745z"/>
<path d="M8760 1975 l0 -745 510 0 510 0 0 85 0 85 -402 2 -403 3 0 275 0 275
378 3 377 2 0 85 0 85 -380 0 -380 0 0 205 0 205 405 0 405 0 0 90 0 90 -510
0 -510 0 0 -745z"/>
<path d="M10130 1975 l0 -745 110 0 110 0 0 295 0 295 124 0 123 0 259 -295
258 -295 138 0 c76 0 138 2 138 5 0 2 -128 146 -285 320 l-284 316 78 40 c94
47 179 127 215 202 76 161 49 356 -65 463 -128 119 -244 143 -696 144 l-223 0
0 -745z m535 565 c97 -11 157 -35 200 -78 50 -50 60 -80 59 -177 -1 -102 -15
-144 -69 -204 -65 -72 -180 -101 -402 -101 l-103 0 0 285 0 285 113 0 c61 0
153 -5 202 -10z"/>
<path d="M1041 697 c-50 -18 -74 -56 -79 -125 -8 -113 37 -168 134 -160 71 6
100 33 116 109 26 127 -60 216 -171 176z m106 -49 c42 -47 37 -160 -10 -193
-41 -28 -106 -12 -126 32 -24 53 -5 162 31 176 34 14 85 6 105 -15z"/>
<path d="M5201 699 c-32 -13 -50 -38 -50 -69 0 -34 16 -53 74 -87 54 -32 67
-60 39 -88 -17 -17 -49 -17 -101 0 -13 4 -23 3 -23 -1 1 -25 23 -38 73 -42 50
-4 58 -2 81 21 48 49 31 104 -44 142 -51 26 -70 56 -50 80 14 17 53 19 80 5
13 -7 19 -6 23 4 11 29 -58 53 -102 35z"/>
<path d="M738 694 c-5 -4 -8 -70 -8 -146 0 -131 1 -138 20 -138 18 0 20 7 20
54 l0 53 47 6 c58 6 93 41 93 91 0 57 -27 79 -101 84 -35 2 -67 0 -71 -4z
m114 -41 c39 -35 15 -90 -45 -100 l-37 -6 0 62 0 61 32 0 c17 0 40 -7 50 -17z"/>
<path d="M1271 633 c11 -37 29 -103 41 -146 20 -73 23 -78 47 -75 23 3 27 11
50 106 14 56 28 102 32 102 3 0 19 -47 34 -106 27 -100 30 -105 53 -102 23 3
28 14 63 133 44 149 45 155 21 155 -14 0 -23 -22 -46 -115 -16 -63 -32 -115
-35 -115 -4 0 -20 51 -37 113 -25 93 -34 113 -50 115 -18 3 -24 -9 -48 -105
-16 -59 -32 -112 -35 -116 -4 -4 -21 43 -37 105 -26 97 -33 113 -51 116 l-22
3 20 -68z"/>
<path d="M1692 558 l3 -143 78 -3 c64 -2 77 0 77 13 0 12 -13 15 -60 15 l-60
0 0 55 0 55 50 0 c38 0 50 4 50 15 0 11 -12 15 -50 15 l-50 0 0 45 0 45 60 0
c47 0 60 3 60 15 0 12 -16 15 -80 15 l-81 0 3 -142z"/>
<path d="M1920 555 c0 -138 1 -145 20 -145 18 0 20 7 20 65 0 62 1 65 23 65
30 0 50 -22 72 -82 12 -34 23 -48 36 -48 26 0 24 15 -11 85 -28 59 -29 60 -9
78 19 18 26 71 11 93 -14 22 -52 34 -106 34 l-56 0 0 -145z m118 103 c32 -32
1 -88 -49 -88 -28 0 -29 1 -29 50 0 50 0 50 33 50 18 0 38 -5 45 -12z"/>
<path d="M2177 693 c-4 -3 -7 -69 -7 -145 0 -131 1 -138 20 -138 18 0 20 7 20
65 l0 65 55 0 c42 0 55 3 55 15 0 12 -13 15 -55 15 l-55 0 0 50 0 50 55 0 c42
0 55 3 55 15 0 12 -14 15 -68 15 -38 0 -72 -3 -75 -7z"/>
<path d="M2390 584 c0 -114 0 -116 29 -145 24 -24 38 -29 76 -29 38 0 52 5 76
29 29 29 29 31 29 145 0 96 -3 116 -15 116 -12 0 -15 -17 -15 -94 0 -52 -4
-106 -10 -120 -12 -32 -50 -51 -85 -42 -39 10 -55 58 -55 166 0 73 -3 90 -15
90 -12 0 -15 -20 -15 -116z"/>
<path d="M2690 555 l0 -146 73 3 c56 2 72 6 72 18 0 11 -14 16 -57 18 l-58 3
0 124 c0 104 -2 125 -15 125 -13 0 -15 -23 -15 -145z"/>
<path d="M2990 555 c0 -138 1 -145 20 -145 18 0 20 7 20 70 l0 70 65 0 65 0 0
-70 c0 -63 2 -70 20 -70 19 0 20 7 20 145 0 138 -1 145 -20 145 -18 0 -20 -7
-20 -60 l0 -60 -65 0 -65 0 0 60 c0 53 -2 60 -20 60 -19 0 -20 -7 -20 -145z"/>
<path d="M3282 558 l3 -143 78 -3 c64 -2 77 0 77 13 0 12 -13 15 -60 15 l-60
0 0 55 0 55 50 0 c38 0 50 4 50 15 0 11 -12 15 -50 15 l-50 0 0 45 0 45 60 0
c47 0 60 3 60 15 0 12 -16 15 -80 15 l-81 0 3 -142z"/>
<path d="M3527 568 c-26 -73 -47 -139 -47 -146 0 -27 34 -6 45 28 11 34 13 35
73 38 l61 3 12 -41 c9 -28 18 -40 31 -40 10 0 18 6 17 13 0 6 -21 70 -47 142
-42 116 -50 130 -72 133 -24 3 -28 -5 -73 -130z m99 11 l21 -59 -49 0 c-36 0
-49 4 -46 13 3 6 13 36 23 65 9 29 20 51 23 47 4 -3 16 -33 28 -66z"/>
<path d="M3777 693 c-9 -8 -9 -246 -1 -267 8 -22 90 -21 144 0 93 37 106 194
21 251 -26 18 -48 23 -96 23 -34 0 -65 -3 -68 -7z m126 -34 c35 -16 52 -54 51
-111 -1 -65 -31 -98 -95 -101 l-44 -2 -3 113 -3 112 35 0 c19 0 46 -5 59 -11z"/>
<path d="M4062 558 l3 -143 73 -3 c66 -3 73 -1 70 15 -2 14 -15 19 -56 21
l-52 3 0 125 c0 118 -1 124 -20 124 -20 0 -20 -5 -18 -142z"/>
<path d="M4321 678 c-48 -129 -91 -251 -91 -259 0 -5 8 -9 18 -9 13 0 22 12
31 40 l12 41 61 -3 c60 -3 62 -4 73 -38 8 -24 19 -36 34 -38 13 -2 22 0 20 5
-2 5 -26 71 -53 146 -44 124 -51 137 -73 137 -15 0 -26 -8 -32 -22z m53 -80
c9 -29 20 -59 23 -65 3 -10 -9 -13 -45 -13 l-50 0 21 65 c12 36 24 65 27 65 4
0 14 -24 24 -52z"/>
<path d="M4530 556 c0 -139 1 -146 20 -146 19 0 20 7 21 123 l0 122 47 -120
c37 -92 52 -120 66 -120 14 0 30 28 66 120 l49 120 3 -120 c3 -105 5 -120 21
-123 16 -3 17 9 17 142 l0 146 -29 0 c-27 0 -31 -6 -73 -106 -25 -58 -48 -106
-52 -107 -5 -1 -27 45 -50 103 -40 101 -43 105 -74 108 l-32 3 0 -145z"/>
<path d="M4924 687 c-2 -7 -3 -71 -2 -142 3 -114 5 -130 21 -133 14 -3 17 5
17 51 l0 54 47 6 c86 9 125 96 68 152 -20 21 -34 25 -85 25 -41 0 -62 -4 -66
-13z m118 -34 c40 -36 4 -107 -50 -101 -25 3 -27 6 -30 61 l-3 57 32 0 c18 0
41 -7 51 -17z"/>
<path d="M5490 556 c0 -139 1 -146 20 -146 18 0 20 8 22 122 l3 122 45 -119
c60 -158 66 -158 133 5 l52 125 3 -127 c2 -105 5 -128 17 -128 13 0 15 24 15
145 l0 145 -29 0 c-27 0 -31 -6 -72 -106 -24 -58 -46 -107 -50 -109 -3 -3 -26
44 -50 103 -42 103 -45 107 -77 110 l-32 3 0 -145z"/>
<path d="M5908 567 c-27 -73 -48 -138 -48 -145 0 -27 34 -6 45 28 11 34 13 35
72 38 l60 3 16 -41 c9 -23 22 -40 31 -40 9 0 16 5 16 11 0 6 -21 71 -47 145
-44 124 -50 134 -73 134 -23 0 -29 -11 -72 -133z m101 11 l21 -58 -51 0 c-37
0 -50 4 -47 13 3 6 13 36 23 65 9 30 21 50 25 45 4 -4 17 -34 29 -65z"/>
<path d="M6160 554 l0 -147 68 5 c82 6 115 25 136 79 20 49 20 89 2 134 -22
51 -68 75 -143 75 l-63 0 0 -146z m130 101 c56 -29 65 -138 16 -184 -16 -15
-38 -23 -67 -24 l-44 -2 -3 113 -3 112 36 0 c20 0 49 -7 65 -15z"/>
<path d="M6444 687 c-2 -7 -3 -71 -2 -143 l3 -129 78 -3 c64 -2 77 0 77 13 0
12 -13 15 -60 15 l-60 0 0 54 0 55 53 3 c28 2 52 8 52 13 0 6 -24 11 -52 13
l-53 3 0 45 0 44 60 0 c47 0 60 3 60 15 0 20 -148 22 -156 2z"/>
<path d="M6780 555 c0 -138 1 -145 20 -145 19 0 20 7 20 145 0 138 -1 145 -20
145 -19 0 -20 -7 -20 -145z"/>
<path d="M6900 555 c0 -138 1 -145 20 -145 18 0 20 8 22 115 l3 116 60 -113
c52 -98 63 -113 85 -113 l25 0 3 143 c2 136 2 142 -17 142 -19 0 -21 -8 -23
-112 l-3 -113 -39 74 c-64 125 -83 151 -111 151 l-25 0 0 -145z"/>
<path d="M7270 685 c0 -11 12 -15 45 -15 l45 0 0 -130 c0 -123 1 -130 20 -130
19 0 20 7 20 130 l0 130 45 0 c33 0 45 4 45 15 0 12 -19 15 -110 15 -91 0
-110 -3 -110 -15z"/>
<path d="M7540 555 c0 -120 2 -145 15 -145 11 0 15 16 17 68 l3 67 65 0 65 0
3 -67 c2 -52 6 -68 17 -68 13 0 15 25 15 145 0 122 -2 145 -15 145 -12 0 -15
-13 -15 -60 l0 -60 -70 0 -70 0 0 60 c0 47 -3 60 -15 60 -13 0 -15 -23 -15
-145z"/>
<path d="M7830 555 l0 -146 77 3 c98 4 114 26 21 30 l-63 3 -3 53 -3 52 55 0
c43 0 56 3 56 15 0 12 -13 15 -55 15 l-55 0 0 45 0 45 60 0 c47 0 60 3 60 15
0 12 -15 15 -75 15 l-75 0 0 -145z"/>
<path d="M8198 680 c-38 -29 -51 -71 -46 -146 4 -60 7 -69 37 -96 31 -28 39
-30 89 -26 38 3 59 11 68 23 20 27 7 37 -26 20 -16 -8 -36 -15 -44 -15 -28 0
-64 22 -75 47 -25 56 -5 162 34 177 29 11 70 7 93 -10 21 -14 22 -14 22 5 0
27 -29 41 -83 41 -29 0 -53 -7 -69 -20z"/>
<path d="M8390 685 c0 -12 14 -15 65 -15 36 0 65 -3 65 -7 0 -3 -29 -52 -65
-108 -36 -56 -65 -112 -65 -124 0 -21 3 -22 92 -19 60 2 93 7 95 15 3 9 -18
13 -72 15 l-76 3 71 110 c38 61 70 118 70 128 0 15 -11 17 -90 17 -73 0 -90
-3 -90 -15z"/>
<path d="M8632 558 l3 -143 78 -3 c64 -2 77 0 77 13 0 12 -13 15 -60 15 l-60
0 0 55 0 55 50 0 c38 0 50 4 50 15 0 11 -12 15 -50 15 l-50 0 0 45 0 45 60 0
c47 0 60 3 60 15 0 12 -16 15 -80 15 l-81 0 3 -142z"/>
<path d="M8891 684 c-32 -23 -51 -74 -51 -137 0 -71 30 -118 83 -131 45 -11
106 2 121 26 16 26 2 31 -33 14 -44 -23 -69 -20 -102 13 -24 25 -29 37 -29 81
0 102 54 145 135 108 34 -15 45 -1 16 23 -29 24 -107 26 -140 3z"/>
<path d="M9100 555 c0 -138 1 -145 20 -145 18 0 20 7 20 70 l0 70 65 0 65 0 0
-70 c0 -63 2 -70 20 -70 19 0 20 7 20 145 0 138 -1 145 -20 145 -18 0 -20 -7
-20 -60 l0 -60 -65 0 -65 0 0 60 c0 53 -2 60 -20 60 -19 0 -20 -7 -20 -145z"/>
<path d="M9500 555 c0 -138 1 -145 20 -145 18 0 20 7 20 65 0 62 1 65 24 65
29 0 57 -33 76 -89 9 -28 19 -41 32 -41 10 0 18 4 18 10 0 18 -33 95 -48 112
-13 16 -12 19 8 36 16 13 22 28 22 57 0 56 -27 75 -108 75 l-64 0 0 -145z
m124 94 c25 -37 -4 -79 -56 -79 -27 0 -28 2 -28 50 l0 50 34 0 c24 0 39 -7 50
-21z"/>
<path d="M9757 693 c-10 -9 -8 -256 2 -271 5 -9 29 -12 82 -10 88 4 95 21 12
28 l-58 5 -3 53 -3 52 55 0 c43 0 56 3 56 15 0 12 -13 15 -55 15 l-55 0 0 45
0 45 60 0 c47 0 60 3 60 15 0 12 -15 15 -73 15 -41 0 -77 -3 -80 -7z"/>
<path d="M9988 694 c-5 -4 -8 -70 -8 -146 0 -131 1 -138 20 -138 18 0 20 7 20
55 0 55 0 55 30 55 38 0 86 24 100 49 16 30 12 76 -9 102 -15 19 -30 24 -82
27 -35 2 -67 0 -71 -4z m114 -41 c18 -16 23 -49 10 -69 -11 -16 -48 -34 -71
-34 -19 0 -21 6 -21 60 l0 60 32 0 c17 0 40 -7 50 -17z"/>
<path d="M10220 600 c0 -153 23 -190 120 -190 27 0 48 8 67 24 27 24 28 27 31
145 4 117 3 121 -17 121 -20 0 -21 -5 -21 -110 0 -97 -2 -112 -20 -130 -27
-27 -66 -25 -95 5 -23 23 -25 31 -25 130 0 98 -1 105 -20 105 -19 0 -20 -7
-20 -100z"/>
<path d="M10524 687 c-2 -7 -3 -71 -2 -143 l3 -129 40 -3 c92 -8 145 22 145
82 0 25 -7 40 -25 54 -21 17 -23 21 -10 32 24 20 19 86 -7 104 -28 20 -136 22
-144 3z m114 -29 c17 -17 15 -65 -4 -72 -9 -3 -29 -6 -45 -6 -28 0 -29 2 -29
45 0 44 1 45 33 45 18 0 38 -5 45 -12z m17 -128 c40 -33 0 -90 -62 -90 l-33 0
0 56 0 57 40 -6 c23 -3 47 -11 55 -17z"/>
<path d="M10780 555 l0 -146 73 3 c56 2 72 6 72 18 0 11 -14 16 -57 18 l-58 3
0 124 c0 104 -2 125 -15 125 -13 0 -15 -23 -15 -145z"/>
<path d="M10972 558 c3 -127 5 -143 21 -146 16 -3 17 9 17 142 0 140 -1 146
-20 146 -20 0 -20 -5 -18 -142z"/>
<path d="M11131 684 c-32 -23 -51 -74 -51 -137 0 -71 30 -118 83 -131 45 -11
106 2 121 26 16 26 2 31 -33 14 -44 -23 -69 -20 -102 13 -24 25 -29 37 -29 81
0 100 55 145 135 108 34 -15 45 -1 16 23 -29 24 -107 26 -140 3z"/>
</g>
</svg>
