<?xml version="1.0" encoding="UTF-8" standalone="no"?>
<svg
   version="1.1"
   id="svg2"
   xml:space="preserve"
   width="384.39999"
   height="89.626663"
   viewBox="0 0 384.39999 89.626663"
   sodipodi:docname="SAP_BOne_P_1.svg"
   inkscape:version="1.1.1 (3bf5ae0d25, 2021-09-20)"
   xmlns:inkscape="http://www.inkscape.org/namespaces/inkscape"
   xmlns:sodipodi="http://sodipodi.sourceforge.net/DTD/sodipodi-0.dtd"
   xmlns="http://www.w3.org/2000/svg"
   xmlns:svg="http://www.w3.org/2000/svg"
   xmlns:rdf="http://www.w3.org/1999/02/22-rdf-syntax-ns#"
   xmlns:cc="http://creativecommons.org/ns#"
   xmlns:dc="http://purl.org/dc/elements/1.1/"><metadata
     id="metadata8"><rdf:RDF><cc:Work
         rdf:about=""><dc:format>image/svg+xml</dc:format><dc:type
           rdf:resource="http://purl.org/dc/dcmitype/StillImage" /></cc:Work></rdf:RDF></metadata><defs
     id="defs6" /><sodipodi:namedview
     pagecolor="#ffffff"
     bordercolor="#666666"
     borderopacity="1"
     objecttolerance="10"
     gridtolerance="10"
     guidetolerance="10"
     inkscape:pageopacity="0"
     inkscape:pageshadow="2"
     inkscape:window-width="1804"
     inkscape:window-height="742"
     id="namedview4"
     inkscape:pagecheckerboard="0"
     showgrid="false"
     inkscape:zoom="3.4001041"
     inkscape:cx="385.72348"
     inkscape:cy="44.851568"
     inkscape:window-x="26"
     inkscape:window-y="23"
     inkscape:window-maximized="0"
     inkscape:current-layer="g12" /><g
     id="g10"
     inkscape:groupmode="layer"
     inkscape:label="ink_ext_XXXXXX"
     transform="matrix(1.3333333,0,0,-1.3333333,0,89.626667)"><g
       id="g12"
       transform="scale(0.1)"><path
         d="M 1231.13,660.996 H 1022.07 V 163.887 L 839.336,660.996 H 658.203 L 502.168,245.273 C 485.645,350.02 377.188,386.23 291.816,413.477 235.371,431.504 175.781,458.34 176.25,487.598 c 0.449,24.179 32.109,46.523 94.707,43.164 42.012,-2.188 79.219,-5.606 152.949,-41.289 l 72.696,126.562 c -67.364,34.336 -160.547,55.996 -236.817,56.172 h -0.566 C 170.273,672.207 96.0547,643.242 50.1172,595.703 18.0859,562.48 0.78125,520.469 0.0390625,473.848 -1.09375,409.59 22.5,364.004 71.8945,327.676 113.633,297.129 167.031,277.168 214.121,262.656 272.09,244.688 319.492,229.063 318.926,195.684 318.652,183.398 313.984,172.227 305.254,163.086 290.781,148.145 268.555,142.461 237.852,141.797 178.555,140.762 134.59,149.98 64.6289,191.23 L 0.0390625,63.0469 C 69.9805,23.3789 152.52,0 236.797,0 h 10.879 c 73.437,1.44531 132.578,22.3438 180.019,60.5664 2.618,2.1094 5.157,4.2774 7.618,6.4844 L 414.375,11.0352 h 190 l 31.836,96.9138 c 33.359,-11.1912 71.328,-17.617 111.66,-17.617 39.258,0 76.172,6.0938 108.984,16.797 L 887.539,11.0352 H 1197.32 V 211.895 h 67.6 c 163.38,0 260.07,83.085 260.07,222.558 0,155.293 -93.86,226.543 -293.86,226.543 z M 747.871,235.352 c -24.394,0 -47.305,4.375 -67.031,11.855 l 66.269,209.141 h 1.446 l 64.922,-209.649 c -19.512,-7.285 -41.836,-11.347 -65.606,-11.347 z m 495.589,120.371 h -46.14 v 168.574 h 46.14 c 61.42,0 110.46,-20.449 110.46,-83.516 0,-64.726 -49.04,-85.058 -110.46,-85.058"
         style="fill:#a09d9e;fill-opacity:1;fill-rule:evenodd;stroke:none"
         id="path14" /><path
         d="m 1776.01,499.898 c 0,19.551 -15.31,30.977 -46.93,30.977 h -63.58 v -62.598 h 66.51 c 27.38,0 44,10.743 44,31.621 z m -12.7,96.192 c 0,18.574 -14.33,29.336 -40.11,29.336 h -57.7 v -60.645 h 54.77 c 25.76,0 43.04,10.117 43.04,31.309 z m 40.1,6.523 c 0,-28.047 -15.64,-42.383 -32.6,-51.211 26.72,-9.121 45.32,-24.433 45.32,-55.742 0,-41.074 -33.58,-62.93 -84.46,-62.93 h -105.62 v 228.243 h 102.38 c 45.96,0 74.98,-22.5 74.98,-58.36"
         style="fill:#a09d9e;fill-opacity:1;fill-rule:nonzero;stroke:none"
         id="path16" /><path
         d="m 1950.46,604.898 h 39.46 V 432.73 h -39.46 v 26.739 c -11.09,-16.309 -27.07,-30.332 -53.81,-30.332 -38.78,0 -61.28,26.093 -61.28,66.191 v 109.57 h 39.45 v -97.832 c 0,-26.718 13.38,-42.07 36.85,-42.07 22.82,0 38.79,15.996 38.79,42.734 v 97.168"
         style="fill:#a09d9e;fill-opacity:1;fill-rule:nonzero;stroke:none"
         id="path18" /><path
         d="m 2082.18,429.449 c -24.45,0 -51.52,8.828 -73.05,25.781 l 17.62,26.739 c 18.58,-14.043 38.79,-21.192 56.41,-21.192 16.93,0 26.76,7.149 26.76,18.594 v 0.645 c 0,13.359 -18.29,17.929 -38.5,24.121 -25.43,7.187 -53.81,17.617 -53.81,50.547 v 0.664 c 0,32.578 27.07,52.48 61.29,52.48 21.52,0 45.02,-7.5 63.28,-19.59 l -15.66,-28.008 c -16.6,10.098 -34.24,16.29 -48.58,16.29 -15.33,0 -24.12,-7.168 -24.12,-17.266 v -0.664 c 0,-12.383 18.58,-17.617 38.79,-24.121 25.12,-7.832 53.48,-19.239 53.48,-50.215 v -0.664 c 0,-36.192 -28.03,-54.141 -63.91,-54.141"
         style="fill:#a09d9e;fill-opacity:1;fill-rule:nonzero;stroke:none"
         id="path20" /><path
         d="m 2172.16,432.73 v 172.168 h 39.46 V 432.73 Z m -1.62,198.555 v 37.5 h 42.38 v -37.5 h -42.38"
         style="fill:#a09d9e;fill-opacity:1;fill-rule:nonzero;stroke:none"
         id="path22" /><path
         d="m 2286.28,432.73 h -39.45 v 172.168 h 39.45 v -26.757 c 11.08,16.308 27.07,30.332 53.79,30.332 38.81,0 61.29,-26.094 61.29,-66.192 V 432.73 h -39.43 v 97.833 c 0,26.738 -13.38,42.031 -36.84,42.031 -22.83,0 -38.81,-15.957 -38.81,-42.696 V 432.73"
         style="fill:#a09d9e;fill-opacity:1;fill-rule:nonzero;stroke:none"
         id="path24" /><path
         d="m 2550.75,530.875 c -2.66,25.449 -17.65,45.313 -43.72,45.313 -24.13,0 -41.1,-18.575 -44.69,-45.313 z m -38.49,-69.785 c 19.22,0 32.89,7.187 46.63,20.547 l 23.15,-20.547 c -16.31,-19.551 -38.84,-32.266 -70.44,-32.266 -49.89,0 -88.36,36.172 -88.36,89.649 0,49.57 34.86,90 84.14,90 54.75,0 82.47,-43.028 82.47,-92.93 0,-3.594 -0.35,-6.836 -0.63,-10.742 h -126.53 c 4.53,-28.047 24.12,-43.711 49.57,-43.711"
         style="fill:#a09d9e;fill-opacity:1;fill-rule:nonzero;stroke:none"
         id="path26" /><path
         d="m 2672.31,429.449 c -24.43,0 -51.51,8.828 -73.01,25.781 l 17.6,26.739 c 18.61,-14.043 38.81,-21.192 56.42,-21.192 16.96,0 26.72,7.149 26.72,18.594 v 0.645 c 0,13.359 -18.24,17.929 -38.47,24.121 -25.43,7.187 -53.79,17.617 -53.79,50.547 v 0.664 c 0,32.578 27.07,52.48 61.29,52.48 21.52,0 45,-7.5 63.26,-19.59 l -15.65,-28.008 c -16.64,10.098 -34.25,16.29 -48.59,16.29 -15.31,0 -24.12,-7.168 -24.12,-17.266 v -0.664 c 0,-12.383 18.57,-17.617 38.81,-24.121 25.08,-7.832 53.45,-19.239 53.45,-50.215 v -0.664 c 0,-36.192 -28.02,-54.141 -63.92,-54.141"
         style="fill:#a09d9e;fill-opacity:1;fill-rule:nonzero;stroke:none"
         id="path28" /><path
         d="m 2819.05,429.449 c -24.48,0 -51.51,8.828 -73.05,25.781 l 17.64,26.739 c 18.57,-14.043 38.79,-21.192 56.38,-21.192 16.94,0 26.76,7.149 26.76,18.594 v 0.645 c 0,13.359 -18.26,17.929 -38.48,24.121 -25.44,7.187 -53.8,17.617 -53.8,50.547 v 0.664 c 0,32.578 27.05,52.48 61.29,52.48 21.52,0 45,-7.5 63.28,-19.59 l -15.69,-28.008 c -16.6,10.098 -34.24,16.29 -48.57,16.29 -15.31,0 -24.14,-7.168 -24.14,-17.266 v -0.664 c 0,-12.383 18.61,-17.617 38.83,-24.121 25.09,-7.832 53.47,-19.239 53.47,-50.215 v -0.664 c 0,-36.192 -28.04,-54.141 -63.92,-54.141"
         style="fill:#a09d9e;fill-opacity:1;fill-rule:nonzero;stroke:none"
         id="path30" /><path
         d="m 1904.21,197.48 c 0,64.18 -47.07,117.696 -113.41,117.696 -66.35,0 -112.35,-52.442 -112.35,-116.621 v -1.075 c 0,-64.218 47.09,-117.6948 113.42,-117.6948 66.35,0 112.34,52.4028 112.34,116.6208 z M 1790.8,3.80859 c -115.57,0 -198.48,86.13281 -198.48,192.59741 v 1.074 c 0,106.465 84,193.653 199.55,193.653 115.57,0 198.48,-86.133 198.48,-192.578 V 197.48 C 1990.35,90.9961 1906.36,3.80859 1790.8,3.80859"
         style="fill:#fab20b;fill-opacity:1;fill-rule:nonzero;stroke:none"
         id="path32" /><path
         d="M 2204.33,10.2148 V 170.176 c 0,38.535 -18.16,58.32 -49.22,58.32 -30.99,0 -50.82,-19.785 -50.82,-58.32 V 10.2148 h -81.31 V 296.992 h 81.31 v -40.683 c 18.75,24.082 42.81,46.015 84.01,46.015 61.52,0 97.36,-40.664 97.36,-106.465 V 10.2148 h -81.33"
         style="fill:#fab20b;fill-opacity:1;fill-rule:nonzero;stroke:none"
         id="path34" /><path
         d="m 2462.73,237.051 c -33.67,0 -55.61,-24.063 -62.05,-60.977 h 122.52 c -4.81,36.367 -26.21,60.977 -60.47,60.977 z m 138.6,-111.817 h -199.58 c 8.03,-36.9137 33.71,-56.152 70.1,-56.152 27.27,0 47.09,8.5547 69.55,29.4141 l 46.53,-41.2109 C 2561.18,24.1406 2522.67,3.80859 2470.78,3.80859 c -86.14,0 -149.79,60.42971 -149.79,148.18341 v 1.074 c 0,81.856 58.3,149.258 141.74,149.258 95.79,0 139.66,-74.355 139.66,-155.683 v -1.075 c 0,-8.027 -0.53,-12.832 -1.06,-20.332"
         style="fill:#fab20b;fill-opacity:1;fill-rule:nonzero;stroke:none"
         id="path36" /></g></g></svg>
